%TF.GenerationSoftware,KiCad,Pcbnew,10.0.2*%
%TF.CreationDate,2026-07-05T14:21:51+05:30*%
%TF.ProjectId,Split Keyboard,53706c69-7420-44b6-9579-626f6172642e,rev?*%
%TF.SameCoordinates,Original*%
%TF.FileFunction,Legend,Top*%
%TF.FilePolarity,Positive*%
%FSLAX46Y46*%
G04 Gerber Fmt 4.6, Leading zero omitted, Abs format (unit mm)*
G04 Created by KiCad (PCBNEW 10.0.2) date 2026-07-05 14:21:51*
%MOMM*%
%LPD*%
G01*
G04 APERTURE LIST*
%ADD10C,0.150000*%
%ADD11C,0.106680*%
%ADD12C,0.120000*%
%ADD13C,0.100000*%
%ADD14C,0.127000*%
%ADD15C,0.504000*%
G04 APERTURE END LIST*
D10*
X173388095Y-131256819D02*
X173959523Y-131256819D01*
X173673809Y-132256819D02*
X173673809Y-131256819D01*
X174292857Y-132256819D02*
X174292857Y-131256819D01*
X174292857Y-131256819D02*
X174673809Y-131256819D01*
X174673809Y-131256819D02*
X174769047Y-131304438D01*
X174769047Y-131304438D02*
X174816666Y-131352057D01*
X174816666Y-131352057D02*
X174864285Y-131447295D01*
X174864285Y-131447295D02*
X174864285Y-131590152D01*
X174864285Y-131590152D02*
X174816666Y-131685390D01*
X174816666Y-131685390D02*
X174769047Y-131733009D01*
X174769047Y-131733009D02*
X174673809Y-131780628D01*
X174673809Y-131780628D02*
X174292857Y-131780628D01*
X175245238Y-131352057D02*
X175292857Y-131304438D01*
X175292857Y-131304438D02*
X175388095Y-131256819D01*
X175388095Y-131256819D02*
X175626190Y-131256819D01*
X175626190Y-131256819D02*
X175721428Y-131304438D01*
X175721428Y-131304438D02*
X175769047Y-131352057D01*
X175769047Y-131352057D02*
X175816666Y-131447295D01*
X175816666Y-131447295D02*
X175816666Y-131542533D01*
X175816666Y-131542533D02*
X175769047Y-131685390D01*
X175769047Y-131685390D02*
X175197619Y-132256819D01*
X175197619Y-132256819D02*
X175816666Y-132256819D01*
X176888095Y-131356819D02*
X177459523Y-131356819D01*
X177173809Y-132356819D02*
X177173809Y-131356819D01*
X177792857Y-132356819D02*
X177792857Y-131356819D01*
X177792857Y-131356819D02*
X178173809Y-131356819D01*
X178173809Y-131356819D02*
X178269047Y-131404438D01*
X178269047Y-131404438D02*
X178316666Y-131452057D01*
X178316666Y-131452057D02*
X178364285Y-131547295D01*
X178364285Y-131547295D02*
X178364285Y-131690152D01*
X178364285Y-131690152D02*
X178316666Y-131785390D01*
X178316666Y-131785390D02*
X178269047Y-131833009D01*
X178269047Y-131833009D02*
X178173809Y-131880628D01*
X178173809Y-131880628D02*
X177792857Y-131880628D01*
X179221428Y-131690152D02*
X179221428Y-132356819D01*
X178983333Y-131309200D02*
X178745238Y-132023485D01*
X178745238Y-132023485D02*
X179364285Y-132023485D01*
X82870476Y-172681200D02*
X83013333Y-172728819D01*
X83013333Y-172728819D02*
X83251428Y-172728819D01*
X83251428Y-172728819D02*
X83346666Y-172681200D01*
X83346666Y-172681200D02*
X83394285Y-172633580D01*
X83394285Y-172633580D02*
X83441904Y-172538342D01*
X83441904Y-172538342D02*
X83441904Y-172443104D01*
X83441904Y-172443104D02*
X83394285Y-172347866D01*
X83394285Y-172347866D02*
X83346666Y-172300247D01*
X83346666Y-172300247D02*
X83251428Y-172252628D01*
X83251428Y-172252628D02*
X83060952Y-172205009D01*
X83060952Y-172205009D02*
X82965714Y-172157390D01*
X82965714Y-172157390D02*
X82918095Y-172109771D01*
X82918095Y-172109771D02*
X82870476Y-172014533D01*
X82870476Y-172014533D02*
X82870476Y-171919295D01*
X82870476Y-171919295D02*
X82918095Y-171824057D01*
X82918095Y-171824057D02*
X82965714Y-171776438D01*
X82965714Y-171776438D02*
X83060952Y-171728819D01*
X83060952Y-171728819D02*
X83299047Y-171728819D01*
X83299047Y-171728819D02*
X83441904Y-171776438D01*
X83775238Y-171728819D02*
X84013333Y-172728819D01*
X84013333Y-172728819D02*
X84203809Y-172014533D01*
X84203809Y-172014533D02*
X84394285Y-172728819D01*
X84394285Y-172728819D02*
X84632381Y-171728819D01*
X84918095Y-171728819D02*
X85537142Y-171728819D01*
X85537142Y-171728819D02*
X85203809Y-172109771D01*
X85203809Y-172109771D02*
X85346666Y-172109771D01*
X85346666Y-172109771D02*
X85441904Y-172157390D01*
X85441904Y-172157390D02*
X85489523Y-172205009D01*
X85489523Y-172205009D02*
X85537142Y-172300247D01*
X85537142Y-172300247D02*
X85537142Y-172538342D01*
X85537142Y-172538342D02*
X85489523Y-172633580D01*
X85489523Y-172633580D02*
X85441904Y-172681200D01*
X85441904Y-172681200D02*
X85346666Y-172728819D01*
X85346666Y-172728819D02*
X85060952Y-172728819D01*
X85060952Y-172728819D02*
X84965714Y-172681200D01*
X84965714Y-172681200D02*
X84918095Y-172633580D01*
X85870476Y-171728819D02*
X86489523Y-171728819D01*
X86489523Y-171728819D02*
X86156190Y-172109771D01*
X86156190Y-172109771D02*
X86299047Y-172109771D01*
X86299047Y-172109771D02*
X86394285Y-172157390D01*
X86394285Y-172157390D02*
X86441904Y-172205009D01*
X86441904Y-172205009D02*
X86489523Y-172300247D01*
X86489523Y-172300247D02*
X86489523Y-172538342D01*
X86489523Y-172538342D02*
X86441904Y-172633580D01*
X86441904Y-172633580D02*
X86394285Y-172681200D01*
X86394285Y-172681200D02*
X86299047Y-172728819D01*
X86299047Y-172728819D02*
X86013333Y-172728819D01*
X86013333Y-172728819D02*
X85918095Y-172681200D01*
X85918095Y-172681200D02*
X85870476Y-172633580D01*
X246436667Y-100531200D02*
X246579524Y-100578819D01*
X246579524Y-100578819D02*
X246817619Y-100578819D01*
X246817619Y-100578819D02*
X246912857Y-100531200D01*
X246912857Y-100531200D02*
X246960476Y-100483580D01*
X246960476Y-100483580D02*
X247008095Y-100388342D01*
X247008095Y-100388342D02*
X247008095Y-100293104D01*
X247008095Y-100293104D02*
X246960476Y-100197866D01*
X246960476Y-100197866D02*
X246912857Y-100150247D01*
X246912857Y-100150247D02*
X246817619Y-100102628D01*
X246817619Y-100102628D02*
X246627143Y-100055009D01*
X246627143Y-100055009D02*
X246531905Y-100007390D01*
X246531905Y-100007390D02*
X246484286Y-99959771D01*
X246484286Y-99959771D02*
X246436667Y-99864533D01*
X246436667Y-99864533D02*
X246436667Y-99769295D01*
X246436667Y-99769295D02*
X246484286Y-99674057D01*
X246484286Y-99674057D02*
X246531905Y-99626438D01*
X246531905Y-99626438D02*
X246627143Y-99578819D01*
X246627143Y-99578819D02*
X246865238Y-99578819D01*
X246865238Y-99578819D02*
X247008095Y-99626438D01*
X247341429Y-99578819D02*
X247579524Y-100578819D01*
X247579524Y-100578819D02*
X247770000Y-99864533D01*
X247770000Y-99864533D02*
X247960476Y-100578819D01*
X247960476Y-100578819D02*
X248198572Y-99578819D01*
X248722381Y-100007390D02*
X248627143Y-99959771D01*
X248627143Y-99959771D02*
X248579524Y-99912152D01*
X248579524Y-99912152D02*
X248531905Y-99816914D01*
X248531905Y-99816914D02*
X248531905Y-99769295D01*
X248531905Y-99769295D02*
X248579524Y-99674057D01*
X248579524Y-99674057D02*
X248627143Y-99626438D01*
X248627143Y-99626438D02*
X248722381Y-99578819D01*
X248722381Y-99578819D02*
X248912857Y-99578819D01*
X248912857Y-99578819D02*
X249008095Y-99626438D01*
X249008095Y-99626438D02*
X249055714Y-99674057D01*
X249055714Y-99674057D02*
X249103333Y-99769295D01*
X249103333Y-99769295D02*
X249103333Y-99816914D01*
X249103333Y-99816914D02*
X249055714Y-99912152D01*
X249055714Y-99912152D02*
X249008095Y-99959771D01*
X249008095Y-99959771D02*
X248912857Y-100007390D01*
X248912857Y-100007390D02*
X248722381Y-100007390D01*
X248722381Y-100007390D02*
X248627143Y-100055009D01*
X248627143Y-100055009D02*
X248579524Y-100102628D01*
X248579524Y-100102628D02*
X248531905Y-100197866D01*
X248531905Y-100197866D02*
X248531905Y-100388342D01*
X248531905Y-100388342D02*
X248579524Y-100483580D01*
X248579524Y-100483580D02*
X248627143Y-100531200D01*
X248627143Y-100531200D02*
X248722381Y-100578819D01*
X248722381Y-100578819D02*
X248912857Y-100578819D01*
X248912857Y-100578819D02*
X249008095Y-100531200D01*
X249008095Y-100531200D02*
X249055714Y-100483580D01*
X249055714Y-100483580D02*
X249103333Y-100388342D01*
X249103333Y-100388342D02*
X249103333Y-100197866D01*
X249103333Y-100197866D02*
X249055714Y-100102628D01*
X249055714Y-100102628D02*
X249008095Y-100055009D01*
X249008095Y-100055009D02*
X248912857Y-100007390D01*
X248785714Y-174154819D02*
X248785714Y-173154819D01*
X248785714Y-173154819D02*
X249023809Y-173154819D01*
X249023809Y-173154819D02*
X249166666Y-173202438D01*
X249166666Y-173202438D02*
X249261904Y-173297676D01*
X249261904Y-173297676D02*
X249309523Y-173392914D01*
X249309523Y-173392914D02*
X249357142Y-173583390D01*
X249357142Y-173583390D02*
X249357142Y-173726247D01*
X249357142Y-173726247D02*
X249309523Y-173916723D01*
X249309523Y-173916723D02*
X249261904Y-174011961D01*
X249261904Y-174011961D02*
X249166666Y-174107200D01*
X249166666Y-174107200D02*
X249023809Y-174154819D01*
X249023809Y-174154819D02*
X248785714Y-174154819D01*
X249690476Y-173154819D02*
X250309523Y-173154819D01*
X250309523Y-173154819D02*
X249976190Y-173535771D01*
X249976190Y-173535771D02*
X250119047Y-173535771D01*
X250119047Y-173535771D02*
X250214285Y-173583390D01*
X250214285Y-173583390D02*
X250261904Y-173631009D01*
X250261904Y-173631009D02*
X250309523Y-173726247D01*
X250309523Y-173726247D02*
X250309523Y-173964342D01*
X250309523Y-173964342D02*
X250261904Y-174059580D01*
X250261904Y-174059580D02*
X250214285Y-174107200D01*
X250214285Y-174107200D02*
X250119047Y-174154819D01*
X250119047Y-174154819D02*
X249833333Y-174154819D01*
X249833333Y-174154819D02*
X249738095Y-174107200D01*
X249738095Y-174107200D02*
X249690476Y-174059580D01*
X250785714Y-174154819D02*
X250976190Y-174154819D01*
X250976190Y-174154819D02*
X251071428Y-174107200D01*
X251071428Y-174107200D02*
X251119047Y-174059580D01*
X251119047Y-174059580D02*
X251214285Y-173916723D01*
X251214285Y-173916723D02*
X251261904Y-173726247D01*
X251261904Y-173726247D02*
X251261904Y-173345295D01*
X251261904Y-173345295D02*
X251214285Y-173250057D01*
X251214285Y-173250057D02*
X251166666Y-173202438D01*
X251166666Y-173202438D02*
X251071428Y-173154819D01*
X251071428Y-173154819D02*
X250880952Y-173154819D01*
X250880952Y-173154819D02*
X250785714Y-173202438D01*
X250785714Y-173202438D02*
X250738095Y-173250057D01*
X250738095Y-173250057D02*
X250690476Y-173345295D01*
X250690476Y-173345295D02*
X250690476Y-173583390D01*
X250690476Y-173583390D02*
X250738095Y-173678628D01*
X250738095Y-173678628D02*
X250785714Y-173726247D01*
X250785714Y-173726247D02*
X250880952Y-173773866D01*
X250880952Y-173773866D02*
X251071428Y-173773866D01*
X251071428Y-173773866D02*
X251166666Y-173726247D01*
X251166666Y-173726247D02*
X251214285Y-173678628D01*
X251214285Y-173678628D02*
X251261904Y-173583390D01*
X85645714Y-126304819D02*
X85645714Y-125304819D01*
X85645714Y-125304819D02*
X85883809Y-125304819D01*
X85883809Y-125304819D02*
X86026666Y-125352438D01*
X86026666Y-125352438D02*
X86121904Y-125447676D01*
X86121904Y-125447676D02*
X86169523Y-125542914D01*
X86169523Y-125542914D02*
X86217142Y-125733390D01*
X86217142Y-125733390D02*
X86217142Y-125876247D01*
X86217142Y-125876247D02*
X86169523Y-126066723D01*
X86169523Y-126066723D02*
X86121904Y-126161961D01*
X86121904Y-126161961D02*
X86026666Y-126257200D01*
X86026666Y-126257200D02*
X85883809Y-126304819D01*
X85883809Y-126304819D02*
X85645714Y-126304819D01*
X87169523Y-126304819D02*
X86598095Y-126304819D01*
X86883809Y-126304819D02*
X86883809Y-125304819D01*
X86883809Y-125304819D02*
X86788571Y-125447676D01*
X86788571Y-125447676D02*
X86693333Y-125542914D01*
X86693333Y-125542914D02*
X86598095Y-125590533D01*
X87502857Y-125304819D02*
X88121904Y-125304819D01*
X88121904Y-125304819D02*
X87788571Y-125685771D01*
X87788571Y-125685771D02*
X87931428Y-125685771D01*
X87931428Y-125685771D02*
X88026666Y-125733390D01*
X88026666Y-125733390D02*
X88074285Y-125781009D01*
X88074285Y-125781009D02*
X88121904Y-125876247D01*
X88121904Y-125876247D02*
X88121904Y-126114342D01*
X88121904Y-126114342D02*
X88074285Y-126209580D01*
X88074285Y-126209580D02*
X88026666Y-126257200D01*
X88026666Y-126257200D02*
X87931428Y-126304819D01*
X87931428Y-126304819D02*
X87645714Y-126304819D01*
X87645714Y-126304819D02*
X87550476Y-126257200D01*
X87550476Y-126257200D02*
X87502857Y-126209580D01*
X82870476Y-148631200D02*
X83013333Y-148678819D01*
X83013333Y-148678819D02*
X83251428Y-148678819D01*
X83251428Y-148678819D02*
X83346666Y-148631200D01*
X83346666Y-148631200D02*
X83394285Y-148583580D01*
X83394285Y-148583580D02*
X83441904Y-148488342D01*
X83441904Y-148488342D02*
X83441904Y-148393104D01*
X83441904Y-148393104D02*
X83394285Y-148297866D01*
X83394285Y-148297866D02*
X83346666Y-148250247D01*
X83346666Y-148250247D02*
X83251428Y-148202628D01*
X83251428Y-148202628D02*
X83060952Y-148155009D01*
X83060952Y-148155009D02*
X82965714Y-148107390D01*
X82965714Y-148107390D02*
X82918095Y-148059771D01*
X82918095Y-148059771D02*
X82870476Y-147964533D01*
X82870476Y-147964533D02*
X82870476Y-147869295D01*
X82870476Y-147869295D02*
X82918095Y-147774057D01*
X82918095Y-147774057D02*
X82965714Y-147726438D01*
X82965714Y-147726438D02*
X83060952Y-147678819D01*
X83060952Y-147678819D02*
X83299047Y-147678819D01*
X83299047Y-147678819D02*
X83441904Y-147726438D01*
X83775238Y-147678819D02*
X84013333Y-148678819D01*
X84013333Y-148678819D02*
X84203809Y-147964533D01*
X84203809Y-147964533D02*
X84394285Y-148678819D01*
X84394285Y-148678819D02*
X84632381Y-147678819D01*
X84965714Y-147774057D02*
X85013333Y-147726438D01*
X85013333Y-147726438D02*
X85108571Y-147678819D01*
X85108571Y-147678819D02*
X85346666Y-147678819D01*
X85346666Y-147678819D02*
X85441904Y-147726438D01*
X85441904Y-147726438D02*
X85489523Y-147774057D01*
X85489523Y-147774057D02*
X85537142Y-147869295D01*
X85537142Y-147869295D02*
X85537142Y-147964533D01*
X85537142Y-147964533D02*
X85489523Y-148107390D01*
X85489523Y-148107390D02*
X84918095Y-148678819D01*
X84918095Y-148678819D02*
X85537142Y-148678819D01*
X85870476Y-147678819D02*
X86489523Y-147678819D01*
X86489523Y-147678819D02*
X86156190Y-148059771D01*
X86156190Y-148059771D02*
X86299047Y-148059771D01*
X86299047Y-148059771D02*
X86394285Y-148107390D01*
X86394285Y-148107390D02*
X86441904Y-148155009D01*
X86441904Y-148155009D02*
X86489523Y-148250247D01*
X86489523Y-148250247D02*
X86489523Y-148488342D01*
X86489523Y-148488342D02*
X86441904Y-148583580D01*
X86441904Y-148583580D02*
X86394285Y-148631200D01*
X86394285Y-148631200D02*
X86299047Y-148678819D01*
X86299047Y-148678819D02*
X86013333Y-148678819D01*
X86013333Y-148678819D02*
X85918095Y-148631200D01*
X85918095Y-148631200D02*
X85870476Y-148583580D01*
X208396667Y-100531200D02*
X208539524Y-100578819D01*
X208539524Y-100578819D02*
X208777619Y-100578819D01*
X208777619Y-100578819D02*
X208872857Y-100531200D01*
X208872857Y-100531200D02*
X208920476Y-100483580D01*
X208920476Y-100483580D02*
X208968095Y-100388342D01*
X208968095Y-100388342D02*
X208968095Y-100293104D01*
X208968095Y-100293104D02*
X208920476Y-100197866D01*
X208920476Y-100197866D02*
X208872857Y-100150247D01*
X208872857Y-100150247D02*
X208777619Y-100102628D01*
X208777619Y-100102628D02*
X208587143Y-100055009D01*
X208587143Y-100055009D02*
X208491905Y-100007390D01*
X208491905Y-100007390D02*
X208444286Y-99959771D01*
X208444286Y-99959771D02*
X208396667Y-99864533D01*
X208396667Y-99864533D02*
X208396667Y-99769295D01*
X208396667Y-99769295D02*
X208444286Y-99674057D01*
X208444286Y-99674057D02*
X208491905Y-99626438D01*
X208491905Y-99626438D02*
X208587143Y-99578819D01*
X208587143Y-99578819D02*
X208825238Y-99578819D01*
X208825238Y-99578819D02*
X208968095Y-99626438D01*
X209301429Y-99578819D02*
X209539524Y-100578819D01*
X209539524Y-100578819D02*
X209730000Y-99864533D01*
X209730000Y-99864533D02*
X209920476Y-100578819D01*
X209920476Y-100578819D02*
X210158572Y-99578819D01*
X210968095Y-99912152D02*
X210968095Y-100578819D01*
X210730000Y-99531200D02*
X210491905Y-100245485D01*
X210491905Y-100245485D02*
X211110952Y-100245485D01*
D11*
X169969942Y-125737455D02*
X169969942Y-126370762D01*
X169969942Y-126370762D02*
X170007196Y-126445268D01*
X170007196Y-126445268D02*
X170044449Y-126482522D01*
X170044449Y-126482522D02*
X170118956Y-126519775D01*
X170118956Y-126519775D02*
X170267969Y-126519775D01*
X170267969Y-126519775D02*
X170342476Y-126482522D01*
X170342476Y-126482522D02*
X170379729Y-126445268D01*
X170379729Y-126445268D02*
X170416982Y-126370762D01*
X170416982Y-126370762D02*
X170416982Y-125737455D01*
X170752262Y-125811962D02*
X170789515Y-125774708D01*
X170789515Y-125774708D02*
X170864022Y-125737455D01*
X170864022Y-125737455D02*
X171050289Y-125737455D01*
X171050289Y-125737455D02*
X171124795Y-125774708D01*
X171124795Y-125774708D02*
X171162049Y-125811962D01*
X171162049Y-125811962D02*
X171199302Y-125886468D01*
X171199302Y-125886468D02*
X171199302Y-125960975D01*
X171199302Y-125960975D02*
X171162049Y-126072735D01*
X171162049Y-126072735D02*
X170715009Y-126519775D01*
X170715009Y-126519775D02*
X171199302Y-126519775D01*
D10*
X146145714Y-178004819D02*
X146145714Y-177004819D01*
X146145714Y-177004819D02*
X146383809Y-177004819D01*
X146383809Y-177004819D02*
X146526666Y-177052438D01*
X146526666Y-177052438D02*
X146621904Y-177147676D01*
X146621904Y-177147676D02*
X146669523Y-177242914D01*
X146669523Y-177242914D02*
X146717142Y-177433390D01*
X146717142Y-177433390D02*
X146717142Y-177576247D01*
X146717142Y-177576247D02*
X146669523Y-177766723D01*
X146669523Y-177766723D02*
X146621904Y-177861961D01*
X146621904Y-177861961D02*
X146526666Y-177957200D01*
X146526666Y-177957200D02*
X146383809Y-178004819D01*
X146383809Y-178004819D02*
X146145714Y-178004819D01*
X147574285Y-177338152D02*
X147574285Y-178004819D01*
X147336190Y-176957200D02*
X147098095Y-177671485D01*
X147098095Y-177671485D02*
X147717142Y-177671485D01*
X148621904Y-178004819D02*
X148050476Y-178004819D01*
X148336190Y-178004819D02*
X148336190Y-177004819D01*
X148336190Y-177004819D02*
X148240952Y-177147676D01*
X148240952Y-177147676D02*
X148145714Y-177242914D01*
X148145714Y-177242914D02*
X148050476Y-177290533D01*
X267685714Y-150254819D02*
X267685714Y-149254819D01*
X267685714Y-149254819D02*
X267923809Y-149254819D01*
X267923809Y-149254819D02*
X268066666Y-149302438D01*
X268066666Y-149302438D02*
X268161904Y-149397676D01*
X268161904Y-149397676D02*
X268209523Y-149492914D01*
X268209523Y-149492914D02*
X268257142Y-149683390D01*
X268257142Y-149683390D02*
X268257142Y-149826247D01*
X268257142Y-149826247D02*
X268209523Y-150016723D01*
X268209523Y-150016723D02*
X268161904Y-150111961D01*
X268161904Y-150111961D02*
X268066666Y-150207200D01*
X268066666Y-150207200D02*
X267923809Y-150254819D01*
X267923809Y-150254819D02*
X267685714Y-150254819D01*
X268590476Y-149254819D02*
X269209523Y-149254819D01*
X269209523Y-149254819D02*
X268876190Y-149635771D01*
X268876190Y-149635771D02*
X269019047Y-149635771D01*
X269019047Y-149635771D02*
X269114285Y-149683390D01*
X269114285Y-149683390D02*
X269161904Y-149731009D01*
X269161904Y-149731009D02*
X269209523Y-149826247D01*
X269209523Y-149826247D02*
X269209523Y-150064342D01*
X269209523Y-150064342D02*
X269161904Y-150159580D01*
X269161904Y-150159580D02*
X269114285Y-150207200D01*
X269114285Y-150207200D02*
X269019047Y-150254819D01*
X269019047Y-150254819D02*
X268733333Y-150254819D01*
X268733333Y-150254819D02*
X268638095Y-150207200D01*
X268638095Y-150207200D02*
X268590476Y-150159580D01*
X269828571Y-149254819D02*
X269923809Y-149254819D01*
X269923809Y-149254819D02*
X270019047Y-149302438D01*
X270019047Y-149302438D02*
X270066666Y-149350057D01*
X270066666Y-149350057D02*
X270114285Y-149445295D01*
X270114285Y-149445295D02*
X270161904Y-149635771D01*
X270161904Y-149635771D02*
X270161904Y-149873866D01*
X270161904Y-149873866D02*
X270114285Y-150064342D01*
X270114285Y-150064342D02*
X270066666Y-150159580D01*
X270066666Y-150159580D02*
X270019047Y-150207200D01*
X270019047Y-150207200D02*
X269923809Y-150254819D01*
X269923809Y-150254819D02*
X269828571Y-150254819D01*
X269828571Y-150254819D02*
X269733333Y-150207200D01*
X269733333Y-150207200D02*
X269685714Y-150159580D01*
X269685714Y-150159580D02*
X269638095Y-150064342D01*
X269638095Y-150064342D02*
X269590476Y-149873866D01*
X269590476Y-149873866D02*
X269590476Y-149635771D01*
X269590476Y-149635771D02*
X269638095Y-149445295D01*
X269638095Y-149445295D02*
X269685714Y-149350057D01*
X269685714Y-149350057D02*
X269733333Y-149302438D01*
X269733333Y-149302438D02*
X269828571Y-149254819D01*
X44920476Y-124581200D02*
X45063333Y-124628819D01*
X45063333Y-124628819D02*
X45301428Y-124628819D01*
X45301428Y-124628819D02*
X45396666Y-124581200D01*
X45396666Y-124581200D02*
X45444285Y-124533580D01*
X45444285Y-124533580D02*
X45491904Y-124438342D01*
X45491904Y-124438342D02*
X45491904Y-124343104D01*
X45491904Y-124343104D02*
X45444285Y-124247866D01*
X45444285Y-124247866D02*
X45396666Y-124200247D01*
X45396666Y-124200247D02*
X45301428Y-124152628D01*
X45301428Y-124152628D02*
X45110952Y-124105009D01*
X45110952Y-124105009D02*
X45015714Y-124057390D01*
X45015714Y-124057390D02*
X44968095Y-124009771D01*
X44968095Y-124009771D02*
X44920476Y-123914533D01*
X44920476Y-123914533D02*
X44920476Y-123819295D01*
X44920476Y-123819295D02*
X44968095Y-123724057D01*
X44968095Y-123724057D02*
X45015714Y-123676438D01*
X45015714Y-123676438D02*
X45110952Y-123628819D01*
X45110952Y-123628819D02*
X45349047Y-123628819D01*
X45349047Y-123628819D02*
X45491904Y-123676438D01*
X45825238Y-123628819D02*
X46063333Y-124628819D01*
X46063333Y-124628819D02*
X46253809Y-123914533D01*
X46253809Y-123914533D02*
X46444285Y-124628819D01*
X46444285Y-124628819D02*
X46682381Y-123628819D01*
X47587142Y-124628819D02*
X47015714Y-124628819D01*
X47301428Y-124628819D02*
X47301428Y-123628819D01*
X47301428Y-123628819D02*
X47206190Y-123771676D01*
X47206190Y-123771676D02*
X47110952Y-123866914D01*
X47110952Y-123866914D02*
X47015714Y-123914533D01*
X48539523Y-124628819D02*
X47968095Y-124628819D01*
X48253809Y-124628819D02*
X48253809Y-123628819D01*
X48253809Y-123628819D02*
X48158571Y-123771676D01*
X48158571Y-123771676D02*
X48063333Y-123866914D01*
X48063333Y-123866914D02*
X47968095Y-123914533D01*
X102376667Y-100531200D02*
X102519524Y-100578819D01*
X102519524Y-100578819D02*
X102757619Y-100578819D01*
X102757619Y-100578819D02*
X102852857Y-100531200D01*
X102852857Y-100531200D02*
X102900476Y-100483580D01*
X102900476Y-100483580D02*
X102948095Y-100388342D01*
X102948095Y-100388342D02*
X102948095Y-100293104D01*
X102948095Y-100293104D02*
X102900476Y-100197866D01*
X102900476Y-100197866D02*
X102852857Y-100150247D01*
X102852857Y-100150247D02*
X102757619Y-100102628D01*
X102757619Y-100102628D02*
X102567143Y-100055009D01*
X102567143Y-100055009D02*
X102471905Y-100007390D01*
X102471905Y-100007390D02*
X102424286Y-99959771D01*
X102424286Y-99959771D02*
X102376667Y-99864533D01*
X102376667Y-99864533D02*
X102376667Y-99769295D01*
X102376667Y-99769295D02*
X102424286Y-99674057D01*
X102424286Y-99674057D02*
X102471905Y-99626438D01*
X102471905Y-99626438D02*
X102567143Y-99578819D01*
X102567143Y-99578819D02*
X102805238Y-99578819D01*
X102805238Y-99578819D02*
X102948095Y-99626438D01*
X103281429Y-99578819D02*
X103519524Y-100578819D01*
X103519524Y-100578819D02*
X103710000Y-99864533D01*
X103710000Y-99864533D02*
X103900476Y-100578819D01*
X103900476Y-100578819D02*
X104138572Y-99578819D01*
X104948095Y-99578819D02*
X104757619Y-99578819D01*
X104757619Y-99578819D02*
X104662381Y-99626438D01*
X104662381Y-99626438D02*
X104614762Y-99674057D01*
X104614762Y-99674057D02*
X104519524Y-99816914D01*
X104519524Y-99816914D02*
X104471905Y-100007390D01*
X104471905Y-100007390D02*
X104471905Y-100388342D01*
X104471905Y-100388342D02*
X104519524Y-100483580D01*
X104519524Y-100483580D02*
X104567143Y-100531200D01*
X104567143Y-100531200D02*
X104662381Y-100578819D01*
X104662381Y-100578819D02*
X104852857Y-100578819D01*
X104852857Y-100578819D02*
X104948095Y-100531200D01*
X104948095Y-100531200D02*
X104995714Y-100483580D01*
X104995714Y-100483580D02*
X105043333Y-100388342D01*
X105043333Y-100388342D02*
X105043333Y-100150247D01*
X105043333Y-100150247D02*
X104995714Y-100055009D01*
X104995714Y-100055009D02*
X104948095Y-100007390D01*
X104948095Y-100007390D02*
X104852857Y-99959771D01*
X104852857Y-99959771D02*
X104662381Y-99959771D01*
X104662381Y-99959771D02*
X104567143Y-100007390D01*
X104567143Y-100007390D02*
X104519524Y-100055009D01*
X104519524Y-100055009D02*
X104471905Y-100150247D01*
X267685714Y-126204819D02*
X267685714Y-125204819D01*
X267685714Y-125204819D02*
X267923809Y-125204819D01*
X267923809Y-125204819D02*
X268066666Y-125252438D01*
X268066666Y-125252438D02*
X268161904Y-125347676D01*
X268161904Y-125347676D02*
X268209523Y-125442914D01*
X268209523Y-125442914D02*
X268257142Y-125633390D01*
X268257142Y-125633390D02*
X268257142Y-125776247D01*
X268257142Y-125776247D02*
X268209523Y-125966723D01*
X268209523Y-125966723D02*
X268161904Y-126061961D01*
X268161904Y-126061961D02*
X268066666Y-126157200D01*
X268066666Y-126157200D02*
X267923809Y-126204819D01*
X267923809Y-126204819D02*
X267685714Y-126204819D01*
X268638095Y-125300057D02*
X268685714Y-125252438D01*
X268685714Y-125252438D02*
X268780952Y-125204819D01*
X268780952Y-125204819D02*
X269019047Y-125204819D01*
X269019047Y-125204819D02*
X269114285Y-125252438D01*
X269114285Y-125252438D02*
X269161904Y-125300057D01*
X269161904Y-125300057D02*
X269209523Y-125395295D01*
X269209523Y-125395295D02*
X269209523Y-125490533D01*
X269209523Y-125490533D02*
X269161904Y-125633390D01*
X269161904Y-125633390D02*
X268590476Y-126204819D01*
X268590476Y-126204819D02*
X269209523Y-126204819D01*
X269828571Y-125204819D02*
X269923809Y-125204819D01*
X269923809Y-125204819D02*
X270019047Y-125252438D01*
X270019047Y-125252438D02*
X270066666Y-125300057D01*
X270066666Y-125300057D02*
X270114285Y-125395295D01*
X270114285Y-125395295D02*
X270161904Y-125585771D01*
X270161904Y-125585771D02*
X270161904Y-125823866D01*
X270161904Y-125823866D02*
X270114285Y-126014342D01*
X270114285Y-126014342D02*
X270066666Y-126109580D01*
X270066666Y-126109580D02*
X270019047Y-126157200D01*
X270019047Y-126157200D02*
X269923809Y-126204819D01*
X269923809Y-126204819D02*
X269828571Y-126204819D01*
X269828571Y-126204819D02*
X269733333Y-126157200D01*
X269733333Y-126157200D02*
X269685714Y-126109580D01*
X269685714Y-126109580D02*
X269638095Y-126014342D01*
X269638095Y-126014342D02*
X269590476Y-125823866D01*
X269590476Y-125823866D02*
X269590476Y-125585771D01*
X269590476Y-125585771D02*
X269638095Y-125395295D01*
X269638095Y-125395295D02*
X269685714Y-125300057D01*
X269685714Y-125300057D02*
X269733333Y-125252438D01*
X269733333Y-125252438D02*
X269828571Y-125204819D01*
X207920476Y-124581200D02*
X208063333Y-124628819D01*
X208063333Y-124628819D02*
X208301428Y-124628819D01*
X208301428Y-124628819D02*
X208396666Y-124581200D01*
X208396666Y-124581200D02*
X208444285Y-124533580D01*
X208444285Y-124533580D02*
X208491904Y-124438342D01*
X208491904Y-124438342D02*
X208491904Y-124343104D01*
X208491904Y-124343104D02*
X208444285Y-124247866D01*
X208444285Y-124247866D02*
X208396666Y-124200247D01*
X208396666Y-124200247D02*
X208301428Y-124152628D01*
X208301428Y-124152628D02*
X208110952Y-124105009D01*
X208110952Y-124105009D02*
X208015714Y-124057390D01*
X208015714Y-124057390D02*
X207968095Y-124009771D01*
X207968095Y-124009771D02*
X207920476Y-123914533D01*
X207920476Y-123914533D02*
X207920476Y-123819295D01*
X207920476Y-123819295D02*
X207968095Y-123724057D01*
X207968095Y-123724057D02*
X208015714Y-123676438D01*
X208015714Y-123676438D02*
X208110952Y-123628819D01*
X208110952Y-123628819D02*
X208349047Y-123628819D01*
X208349047Y-123628819D02*
X208491904Y-123676438D01*
X208825238Y-123628819D02*
X209063333Y-124628819D01*
X209063333Y-124628819D02*
X209253809Y-123914533D01*
X209253809Y-123914533D02*
X209444285Y-124628819D01*
X209444285Y-124628819D02*
X209682381Y-123628819D01*
X210587142Y-124628819D02*
X210015714Y-124628819D01*
X210301428Y-124628819D02*
X210301428Y-123628819D01*
X210301428Y-123628819D02*
X210206190Y-123771676D01*
X210206190Y-123771676D02*
X210110952Y-123866914D01*
X210110952Y-123866914D02*
X210015714Y-123914533D01*
X210920476Y-123628819D02*
X211587142Y-123628819D01*
X211587142Y-123628819D02*
X211158571Y-124628819D01*
X137798095Y-114806819D02*
X138369523Y-114806819D01*
X138083809Y-115806819D02*
X138083809Y-114806819D01*
X138702857Y-115806819D02*
X138702857Y-114806819D01*
X138702857Y-114806819D02*
X139083809Y-114806819D01*
X139083809Y-114806819D02*
X139179047Y-114854438D01*
X139179047Y-114854438D02*
X139226666Y-114902057D01*
X139226666Y-114902057D02*
X139274285Y-114997295D01*
X139274285Y-114997295D02*
X139274285Y-115140152D01*
X139274285Y-115140152D02*
X139226666Y-115235390D01*
X139226666Y-115235390D02*
X139179047Y-115283009D01*
X139179047Y-115283009D02*
X139083809Y-115330628D01*
X139083809Y-115330628D02*
X138702857Y-115330628D01*
X139607619Y-114806819D02*
X140226666Y-114806819D01*
X140226666Y-114806819D02*
X139893333Y-115187771D01*
X139893333Y-115187771D02*
X140036190Y-115187771D01*
X140036190Y-115187771D02*
X140131428Y-115235390D01*
X140131428Y-115235390D02*
X140179047Y-115283009D01*
X140179047Y-115283009D02*
X140226666Y-115378247D01*
X140226666Y-115378247D02*
X140226666Y-115616342D01*
X140226666Y-115616342D02*
X140179047Y-115711580D01*
X140179047Y-115711580D02*
X140131428Y-115759200D01*
X140131428Y-115759200D02*
X140036190Y-115806819D01*
X140036190Y-115806819D02*
X139750476Y-115806819D01*
X139750476Y-115806819D02*
X139655238Y-115759200D01*
X139655238Y-115759200D02*
X139607619Y-115711580D01*
X83406667Y-100531200D02*
X83549524Y-100578819D01*
X83549524Y-100578819D02*
X83787619Y-100578819D01*
X83787619Y-100578819D02*
X83882857Y-100531200D01*
X83882857Y-100531200D02*
X83930476Y-100483580D01*
X83930476Y-100483580D02*
X83978095Y-100388342D01*
X83978095Y-100388342D02*
X83978095Y-100293104D01*
X83978095Y-100293104D02*
X83930476Y-100197866D01*
X83930476Y-100197866D02*
X83882857Y-100150247D01*
X83882857Y-100150247D02*
X83787619Y-100102628D01*
X83787619Y-100102628D02*
X83597143Y-100055009D01*
X83597143Y-100055009D02*
X83501905Y-100007390D01*
X83501905Y-100007390D02*
X83454286Y-99959771D01*
X83454286Y-99959771D02*
X83406667Y-99864533D01*
X83406667Y-99864533D02*
X83406667Y-99769295D01*
X83406667Y-99769295D02*
X83454286Y-99674057D01*
X83454286Y-99674057D02*
X83501905Y-99626438D01*
X83501905Y-99626438D02*
X83597143Y-99578819D01*
X83597143Y-99578819D02*
X83835238Y-99578819D01*
X83835238Y-99578819D02*
X83978095Y-99626438D01*
X84311429Y-99578819D02*
X84549524Y-100578819D01*
X84549524Y-100578819D02*
X84740000Y-99864533D01*
X84740000Y-99864533D02*
X84930476Y-100578819D01*
X84930476Y-100578819D02*
X85168572Y-99578819D01*
X86025714Y-99578819D02*
X85549524Y-99578819D01*
X85549524Y-99578819D02*
X85501905Y-100055009D01*
X85501905Y-100055009D02*
X85549524Y-100007390D01*
X85549524Y-100007390D02*
X85644762Y-99959771D01*
X85644762Y-99959771D02*
X85882857Y-99959771D01*
X85882857Y-99959771D02*
X85978095Y-100007390D01*
X85978095Y-100007390D02*
X86025714Y-100055009D01*
X86025714Y-100055009D02*
X86073333Y-100150247D01*
X86073333Y-100150247D02*
X86073333Y-100388342D01*
X86073333Y-100388342D02*
X86025714Y-100483580D01*
X86025714Y-100483580D02*
X85978095Y-100531200D01*
X85978095Y-100531200D02*
X85882857Y-100578819D01*
X85882857Y-100578819D02*
X85644762Y-100578819D01*
X85644762Y-100578819D02*
X85549524Y-100531200D01*
X85549524Y-100531200D02*
X85501905Y-100483580D01*
X64346667Y-100531200D02*
X64489524Y-100578819D01*
X64489524Y-100578819D02*
X64727619Y-100578819D01*
X64727619Y-100578819D02*
X64822857Y-100531200D01*
X64822857Y-100531200D02*
X64870476Y-100483580D01*
X64870476Y-100483580D02*
X64918095Y-100388342D01*
X64918095Y-100388342D02*
X64918095Y-100293104D01*
X64918095Y-100293104D02*
X64870476Y-100197866D01*
X64870476Y-100197866D02*
X64822857Y-100150247D01*
X64822857Y-100150247D02*
X64727619Y-100102628D01*
X64727619Y-100102628D02*
X64537143Y-100055009D01*
X64537143Y-100055009D02*
X64441905Y-100007390D01*
X64441905Y-100007390D02*
X64394286Y-99959771D01*
X64394286Y-99959771D02*
X64346667Y-99864533D01*
X64346667Y-99864533D02*
X64346667Y-99769295D01*
X64346667Y-99769295D02*
X64394286Y-99674057D01*
X64394286Y-99674057D02*
X64441905Y-99626438D01*
X64441905Y-99626438D02*
X64537143Y-99578819D01*
X64537143Y-99578819D02*
X64775238Y-99578819D01*
X64775238Y-99578819D02*
X64918095Y-99626438D01*
X65251429Y-99578819D02*
X65489524Y-100578819D01*
X65489524Y-100578819D02*
X65680000Y-99864533D01*
X65680000Y-99864533D02*
X65870476Y-100578819D01*
X65870476Y-100578819D02*
X66108572Y-99578819D01*
X66394286Y-99578819D02*
X67013333Y-99578819D01*
X67013333Y-99578819D02*
X66680000Y-99959771D01*
X66680000Y-99959771D02*
X66822857Y-99959771D01*
X66822857Y-99959771D02*
X66918095Y-100007390D01*
X66918095Y-100007390D02*
X66965714Y-100055009D01*
X66965714Y-100055009D02*
X67013333Y-100150247D01*
X67013333Y-100150247D02*
X67013333Y-100388342D01*
X67013333Y-100388342D02*
X66965714Y-100483580D01*
X66965714Y-100483580D02*
X66918095Y-100531200D01*
X66918095Y-100531200D02*
X66822857Y-100578819D01*
X66822857Y-100578819D02*
X66537143Y-100578819D01*
X66537143Y-100578819D02*
X66441905Y-100531200D01*
X66441905Y-100531200D02*
X66394286Y-100483580D01*
X230011905Y-102304819D02*
X230011905Y-101304819D01*
X230011905Y-101304819D02*
X230250000Y-101304819D01*
X230250000Y-101304819D02*
X230392857Y-101352438D01*
X230392857Y-101352438D02*
X230488095Y-101447676D01*
X230488095Y-101447676D02*
X230535714Y-101542914D01*
X230535714Y-101542914D02*
X230583333Y-101733390D01*
X230583333Y-101733390D02*
X230583333Y-101876247D01*
X230583333Y-101876247D02*
X230535714Y-102066723D01*
X230535714Y-102066723D02*
X230488095Y-102161961D01*
X230488095Y-102161961D02*
X230392857Y-102257200D01*
X230392857Y-102257200D02*
X230250000Y-102304819D01*
X230250000Y-102304819D02*
X230011905Y-102304819D01*
X230916667Y-101304819D02*
X231583333Y-101304819D01*
X231583333Y-101304819D02*
X231154762Y-102304819D01*
X44920476Y-172681200D02*
X45063333Y-172728819D01*
X45063333Y-172728819D02*
X45301428Y-172728819D01*
X45301428Y-172728819D02*
X45396666Y-172681200D01*
X45396666Y-172681200D02*
X45444285Y-172633580D01*
X45444285Y-172633580D02*
X45491904Y-172538342D01*
X45491904Y-172538342D02*
X45491904Y-172443104D01*
X45491904Y-172443104D02*
X45444285Y-172347866D01*
X45444285Y-172347866D02*
X45396666Y-172300247D01*
X45396666Y-172300247D02*
X45301428Y-172252628D01*
X45301428Y-172252628D02*
X45110952Y-172205009D01*
X45110952Y-172205009D02*
X45015714Y-172157390D01*
X45015714Y-172157390D02*
X44968095Y-172109771D01*
X44968095Y-172109771D02*
X44920476Y-172014533D01*
X44920476Y-172014533D02*
X44920476Y-171919295D01*
X44920476Y-171919295D02*
X44968095Y-171824057D01*
X44968095Y-171824057D02*
X45015714Y-171776438D01*
X45015714Y-171776438D02*
X45110952Y-171728819D01*
X45110952Y-171728819D02*
X45349047Y-171728819D01*
X45349047Y-171728819D02*
X45491904Y-171776438D01*
X45825238Y-171728819D02*
X46063333Y-172728819D01*
X46063333Y-172728819D02*
X46253809Y-172014533D01*
X46253809Y-172014533D02*
X46444285Y-172728819D01*
X46444285Y-172728819D02*
X46682381Y-171728819D01*
X46968095Y-171728819D02*
X47587142Y-171728819D01*
X47587142Y-171728819D02*
X47253809Y-172109771D01*
X47253809Y-172109771D02*
X47396666Y-172109771D01*
X47396666Y-172109771D02*
X47491904Y-172157390D01*
X47491904Y-172157390D02*
X47539523Y-172205009D01*
X47539523Y-172205009D02*
X47587142Y-172300247D01*
X47587142Y-172300247D02*
X47587142Y-172538342D01*
X47587142Y-172538342D02*
X47539523Y-172633580D01*
X47539523Y-172633580D02*
X47491904Y-172681200D01*
X47491904Y-172681200D02*
X47396666Y-172728819D01*
X47396666Y-172728819D02*
X47110952Y-172728819D01*
X47110952Y-172728819D02*
X47015714Y-172681200D01*
X47015714Y-172681200D02*
X46968095Y-172633580D01*
X48539523Y-172728819D02*
X47968095Y-172728819D01*
X48253809Y-172728819D02*
X48253809Y-171728819D01*
X48253809Y-171728819D02*
X48158571Y-171871676D01*
X48158571Y-171871676D02*
X48063333Y-171966914D01*
X48063333Y-171966914D02*
X47968095Y-172014533D01*
X245960476Y-124581200D02*
X246103333Y-124628819D01*
X246103333Y-124628819D02*
X246341428Y-124628819D01*
X246341428Y-124628819D02*
X246436666Y-124581200D01*
X246436666Y-124581200D02*
X246484285Y-124533580D01*
X246484285Y-124533580D02*
X246531904Y-124438342D01*
X246531904Y-124438342D02*
X246531904Y-124343104D01*
X246531904Y-124343104D02*
X246484285Y-124247866D01*
X246484285Y-124247866D02*
X246436666Y-124200247D01*
X246436666Y-124200247D02*
X246341428Y-124152628D01*
X246341428Y-124152628D02*
X246150952Y-124105009D01*
X246150952Y-124105009D02*
X246055714Y-124057390D01*
X246055714Y-124057390D02*
X246008095Y-124009771D01*
X246008095Y-124009771D02*
X245960476Y-123914533D01*
X245960476Y-123914533D02*
X245960476Y-123819295D01*
X245960476Y-123819295D02*
X246008095Y-123724057D01*
X246008095Y-123724057D02*
X246055714Y-123676438D01*
X246055714Y-123676438D02*
X246150952Y-123628819D01*
X246150952Y-123628819D02*
X246389047Y-123628819D01*
X246389047Y-123628819D02*
X246531904Y-123676438D01*
X246865238Y-123628819D02*
X247103333Y-124628819D01*
X247103333Y-124628819D02*
X247293809Y-123914533D01*
X247293809Y-123914533D02*
X247484285Y-124628819D01*
X247484285Y-124628819D02*
X247722381Y-123628819D01*
X248627142Y-124628819D02*
X248055714Y-124628819D01*
X248341428Y-124628819D02*
X248341428Y-123628819D01*
X248341428Y-123628819D02*
X248246190Y-123771676D01*
X248246190Y-123771676D02*
X248150952Y-123866914D01*
X248150952Y-123866914D02*
X248055714Y-123914533D01*
X249103333Y-124628819D02*
X249293809Y-124628819D01*
X249293809Y-124628819D02*
X249389047Y-124581200D01*
X249389047Y-124581200D02*
X249436666Y-124533580D01*
X249436666Y-124533580D02*
X249531904Y-124390723D01*
X249531904Y-124390723D02*
X249579523Y-124200247D01*
X249579523Y-124200247D02*
X249579523Y-123819295D01*
X249579523Y-123819295D02*
X249531904Y-123724057D01*
X249531904Y-123724057D02*
X249484285Y-123676438D01*
X249484285Y-123676438D02*
X249389047Y-123628819D01*
X249389047Y-123628819D02*
X249198571Y-123628819D01*
X249198571Y-123628819D02*
X249103333Y-123676438D01*
X249103333Y-123676438D02*
X249055714Y-123724057D01*
X249055714Y-123724057D02*
X249008095Y-123819295D01*
X249008095Y-123819295D02*
X249008095Y-124057390D01*
X249008095Y-124057390D02*
X249055714Y-124152628D01*
X249055714Y-124152628D02*
X249103333Y-124200247D01*
X249103333Y-124200247D02*
X249198571Y-124247866D01*
X249198571Y-124247866D02*
X249389047Y-124247866D01*
X249389047Y-124247866D02*
X249484285Y-124200247D01*
X249484285Y-124200247D02*
X249531904Y-124152628D01*
X249531904Y-124152628D02*
X249579523Y-124057390D01*
X229635714Y-126254819D02*
X229635714Y-125254819D01*
X229635714Y-125254819D02*
X229873809Y-125254819D01*
X229873809Y-125254819D02*
X230016666Y-125302438D01*
X230016666Y-125302438D02*
X230111904Y-125397676D01*
X230111904Y-125397676D02*
X230159523Y-125492914D01*
X230159523Y-125492914D02*
X230207142Y-125683390D01*
X230207142Y-125683390D02*
X230207142Y-125826247D01*
X230207142Y-125826247D02*
X230159523Y-126016723D01*
X230159523Y-126016723D02*
X230111904Y-126111961D01*
X230111904Y-126111961D02*
X230016666Y-126207200D01*
X230016666Y-126207200D02*
X229873809Y-126254819D01*
X229873809Y-126254819D02*
X229635714Y-126254819D01*
X231159523Y-126254819D02*
X230588095Y-126254819D01*
X230873809Y-126254819D02*
X230873809Y-125254819D01*
X230873809Y-125254819D02*
X230778571Y-125397676D01*
X230778571Y-125397676D02*
X230683333Y-125492914D01*
X230683333Y-125492914D02*
X230588095Y-125540533D01*
X231730952Y-125683390D02*
X231635714Y-125635771D01*
X231635714Y-125635771D02*
X231588095Y-125588152D01*
X231588095Y-125588152D02*
X231540476Y-125492914D01*
X231540476Y-125492914D02*
X231540476Y-125445295D01*
X231540476Y-125445295D02*
X231588095Y-125350057D01*
X231588095Y-125350057D02*
X231635714Y-125302438D01*
X231635714Y-125302438D02*
X231730952Y-125254819D01*
X231730952Y-125254819D02*
X231921428Y-125254819D01*
X231921428Y-125254819D02*
X232016666Y-125302438D01*
X232016666Y-125302438D02*
X232064285Y-125350057D01*
X232064285Y-125350057D02*
X232111904Y-125445295D01*
X232111904Y-125445295D02*
X232111904Y-125492914D01*
X232111904Y-125492914D02*
X232064285Y-125588152D01*
X232064285Y-125588152D02*
X232016666Y-125635771D01*
X232016666Y-125635771D02*
X231921428Y-125683390D01*
X231921428Y-125683390D02*
X231730952Y-125683390D01*
X231730952Y-125683390D02*
X231635714Y-125731009D01*
X231635714Y-125731009D02*
X231588095Y-125778628D01*
X231588095Y-125778628D02*
X231540476Y-125873866D01*
X231540476Y-125873866D02*
X231540476Y-126064342D01*
X231540476Y-126064342D02*
X231588095Y-126159580D01*
X231588095Y-126159580D02*
X231635714Y-126207200D01*
X231635714Y-126207200D02*
X231730952Y-126254819D01*
X231730952Y-126254819D02*
X231921428Y-126254819D01*
X231921428Y-126254819D02*
X232016666Y-126207200D01*
X232016666Y-126207200D02*
X232064285Y-126159580D01*
X232064285Y-126159580D02*
X232111904Y-126064342D01*
X232111904Y-126064342D02*
X232111904Y-125873866D01*
X232111904Y-125873866D02*
X232064285Y-125778628D01*
X232064285Y-125778628D02*
X232016666Y-125731009D01*
X232016666Y-125731009D02*
X231921428Y-125683390D01*
X123395714Y-150404819D02*
X123395714Y-149404819D01*
X123395714Y-149404819D02*
X123633809Y-149404819D01*
X123633809Y-149404819D02*
X123776666Y-149452438D01*
X123776666Y-149452438D02*
X123871904Y-149547676D01*
X123871904Y-149547676D02*
X123919523Y-149642914D01*
X123919523Y-149642914D02*
X123967142Y-149833390D01*
X123967142Y-149833390D02*
X123967142Y-149976247D01*
X123967142Y-149976247D02*
X123919523Y-150166723D01*
X123919523Y-150166723D02*
X123871904Y-150261961D01*
X123871904Y-150261961D02*
X123776666Y-150357200D01*
X123776666Y-150357200D02*
X123633809Y-150404819D01*
X123633809Y-150404819D02*
X123395714Y-150404819D01*
X124348095Y-149500057D02*
X124395714Y-149452438D01*
X124395714Y-149452438D02*
X124490952Y-149404819D01*
X124490952Y-149404819D02*
X124729047Y-149404819D01*
X124729047Y-149404819D02*
X124824285Y-149452438D01*
X124824285Y-149452438D02*
X124871904Y-149500057D01*
X124871904Y-149500057D02*
X124919523Y-149595295D01*
X124919523Y-149595295D02*
X124919523Y-149690533D01*
X124919523Y-149690533D02*
X124871904Y-149833390D01*
X124871904Y-149833390D02*
X124300476Y-150404819D01*
X124300476Y-150404819D02*
X124919523Y-150404819D01*
X125824285Y-149404819D02*
X125348095Y-149404819D01*
X125348095Y-149404819D02*
X125300476Y-149881009D01*
X125300476Y-149881009D02*
X125348095Y-149833390D01*
X125348095Y-149833390D02*
X125443333Y-149785771D01*
X125443333Y-149785771D02*
X125681428Y-149785771D01*
X125681428Y-149785771D02*
X125776666Y-149833390D01*
X125776666Y-149833390D02*
X125824285Y-149881009D01*
X125824285Y-149881009D02*
X125871904Y-149976247D01*
X125871904Y-149976247D02*
X125871904Y-150214342D01*
X125871904Y-150214342D02*
X125824285Y-150309580D01*
X125824285Y-150309580D02*
X125776666Y-150357200D01*
X125776666Y-150357200D02*
X125681428Y-150404819D01*
X125681428Y-150404819D02*
X125443333Y-150404819D01*
X125443333Y-150404819D02*
X125348095Y-150357200D01*
X125348095Y-150357200D02*
X125300476Y-150309580D01*
X229635714Y-150204819D02*
X229635714Y-149204819D01*
X229635714Y-149204819D02*
X229873809Y-149204819D01*
X229873809Y-149204819D02*
X230016666Y-149252438D01*
X230016666Y-149252438D02*
X230111904Y-149347676D01*
X230111904Y-149347676D02*
X230159523Y-149442914D01*
X230159523Y-149442914D02*
X230207142Y-149633390D01*
X230207142Y-149633390D02*
X230207142Y-149776247D01*
X230207142Y-149776247D02*
X230159523Y-149966723D01*
X230159523Y-149966723D02*
X230111904Y-150061961D01*
X230111904Y-150061961D02*
X230016666Y-150157200D01*
X230016666Y-150157200D02*
X229873809Y-150204819D01*
X229873809Y-150204819D02*
X229635714Y-150204819D01*
X230588095Y-149300057D02*
X230635714Y-149252438D01*
X230635714Y-149252438D02*
X230730952Y-149204819D01*
X230730952Y-149204819D02*
X230969047Y-149204819D01*
X230969047Y-149204819D02*
X231064285Y-149252438D01*
X231064285Y-149252438D02*
X231111904Y-149300057D01*
X231111904Y-149300057D02*
X231159523Y-149395295D01*
X231159523Y-149395295D02*
X231159523Y-149490533D01*
X231159523Y-149490533D02*
X231111904Y-149633390D01*
X231111904Y-149633390D02*
X230540476Y-150204819D01*
X230540476Y-150204819D02*
X231159523Y-150204819D01*
X231730952Y-149633390D02*
X231635714Y-149585771D01*
X231635714Y-149585771D02*
X231588095Y-149538152D01*
X231588095Y-149538152D02*
X231540476Y-149442914D01*
X231540476Y-149442914D02*
X231540476Y-149395295D01*
X231540476Y-149395295D02*
X231588095Y-149300057D01*
X231588095Y-149300057D02*
X231635714Y-149252438D01*
X231635714Y-149252438D02*
X231730952Y-149204819D01*
X231730952Y-149204819D02*
X231921428Y-149204819D01*
X231921428Y-149204819D02*
X232016666Y-149252438D01*
X232016666Y-149252438D02*
X232064285Y-149300057D01*
X232064285Y-149300057D02*
X232111904Y-149395295D01*
X232111904Y-149395295D02*
X232111904Y-149442914D01*
X232111904Y-149442914D02*
X232064285Y-149538152D01*
X232064285Y-149538152D02*
X232016666Y-149585771D01*
X232016666Y-149585771D02*
X231921428Y-149633390D01*
X231921428Y-149633390D02*
X231730952Y-149633390D01*
X231730952Y-149633390D02*
X231635714Y-149681009D01*
X231635714Y-149681009D02*
X231588095Y-149728628D01*
X231588095Y-149728628D02*
X231540476Y-149823866D01*
X231540476Y-149823866D02*
X231540476Y-150014342D01*
X231540476Y-150014342D02*
X231588095Y-150109580D01*
X231588095Y-150109580D02*
X231635714Y-150157200D01*
X231635714Y-150157200D02*
X231730952Y-150204819D01*
X231730952Y-150204819D02*
X231921428Y-150204819D01*
X231921428Y-150204819D02*
X232016666Y-150157200D01*
X232016666Y-150157200D02*
X232064285Y-150109580D01*
X232064285Y-150109580D02*
X232111904Y-150014342D01*
X232111904Y-150014342D02*
X232111904Y-149823866D01*
X232111904Y-149823866D02*
X232064285Y-149728628D01*
X232064285Y-149728628D02*
X232016666Y-149681009D01*
X232016666Y-149681009D02*
X231921428Y-149633390D01*
X267685714Y-102204819D02*
X267685714Y-101204819D01*
X267685714Y-101204819D02*
X267923809Y-101204819D01*
X267923809Y-101204819D02*
X268066666Y-101252438D01*
X268066666Y-101252438D02*
X268161904Y-101347676D01*
X268161904Y-101347676D02*
X268209523Y-101442914D01*
X268209523Y-101442914D02*
X268257142Y-101633390D01*
X268257142Y-101633390D02*
X268257142Y-101776247D01*
X268257142Y-101776247D02*
X268209523Y-101966723D01*
X268209523Y-101966723D02*
X268161904Y-102061961D01*
X268161904Y-102061961D02*
X268066666Y-102157200D01*
X268066666Y-102157200D02*
X267923809Y-102204819D01*
X267923809Y-102204819D02*
X267685714Y-102204819D01*
X269209523Y-102204819D02*
X268638095Y-102204819D01*
X268923809Y-102204819D02*
X268923809Y-101204819D01*
X268923809Y-101204819D02*
X268828571Y-101347676D01*
X268828571Y-101347676D02*
X268733333Y-101442914D01*
X268733333Y-101442914D02*
X268638095Y-101490533D01*
X269828571Y-101204819D02*
X269923809Y-101204819D01*
X269923809Y-101204819D02*
X270019047Y-101252438D01*
X270019047Y-101252438D02*
X270066666Y-101300057D01*
X270066666Y-101300057D02*
X270114285Y-101395295D01*
X270114285Y-101395295D02*
X270161904Y-101585771D01*
X270161904Y-101585771D02*
X270161904Y-101823866D01*
X270161904Y-101823866D02*
X270114285Y-102014342D01*
X270114285Y-102014342D02*
X270066666Y-102109580D01*
X270066666Y-102109580D02*
X270019047Y-102157200D01*
X270019047Y-102157200D02*
X269923809Y-102204819D01*
X269923809Y-102204819D02*
X269828571Y-102204819D01*
X269828571Y-102204819D02*
X269733333Y-102157200D01*
X269733333Y-102157200D02*
X269685714Y-102109580D01*
X269685714Y-102109580D02*
X269638095Y-102014342D01*
X269638095Y-102014342D02*
X269590476Y-101823866D01*
X269590476Y-101823866D02*
X269590476Y-101585771D01*
X269590476Y-101585771D02*
X269638095Y-101395295D01*
X269638095Y-101395295D02*
X269685714Y-101300057D01*
X269685714Y-101300057D02*
X269733333Y-101252438D01*
X269733333Y-101252438D02*
X269828571Y-101204819D01*
X188920476Y-124581200D02*
X189063333Y-124628819D01*
X189063333Y-124628819D02*
X189301428Y-124628819D01*
X189301428Y-124628819D02*
X189396666Y-124581200D01*
X189396666Y-124581200D02*
X189444285Y-124533580D01*
X189444285Y-124533580D02*
X189491904Y-124438342D01*
X189491904Y-124438342D02*
X189491904Y-124343104D01*
X189491904Y-124343104D02*
X189444285Y-124247866D01*
X189444285Y-124247866D02*
X189396666Y-124200247D01*
X189396666Y-124200247D02*
X189301428Y-124152628D01*
X189301428Y-124152628D02*
X189110952Y-124105009D01*
X189110952Y-124105009D02*
X189015714Y-124057390D01*
X189015714Y-124057390D02*
X188968095Y-124009771D01*
X188968095Y-124009771D02*
X188920476Y-123914533D01*
X188920476Y-123914533D02*
X188920476Y-123819295D01*
X188920476Y-123819295D02*
X188968095Y-123724057D01*
X188968095Y-123724057D02*
X189015714Y-123676438D01*
X189015714Y-123676438D02*
X189110952Y-123628819D01*
X189110952Y-123628819D02*
X189349047Y-123628819D01*
X189349047Y-123628819D02*
X189491904Y-123676438D01*
X189825238Y-123628819D02*
X190063333Y-124628819D01*
X190063333Y-124628819D02*
X190253809Y-123914533D01*
X190253809Y-123914533D02*
X190444285Y-124628819D01*
X190444285Y-124628819D02*
X190682381Y-123628819D01*
X191587142Y-124628819D02*
X191015714Y-124628819D01*
X191301428Y-124628819D02*
X191301428Y-123628819D01*
X191301428Y-123628819D02*
X191206190Y-123771676D01*
X191206190Y-123771676D02*
X191110952Y-123866914D01*
X191110952Y-123866914D02*
X191015714Y-123914533D01*
X192444285Y-123628819D02*
X192253809Y-123628819D01*
X192253809Y-123628819D02*
X192158571Y-123676438D01*
X192158571Y-123676438D02*
X192110952Y-123724057D01*
X192110952Y-123724057D02*
X192015714Y-123866914D01*
X192015714Y-123866914D02*
X191968095Y-124057390D01*
X191968095Y-124057390D02*
X191968095Y-124438342D01*
X191968095Y-124438342D02*
X192015714Y-124533580D01*
X192015714Y-124533580D02*
X192063333Y-124581200D01*
X192063333Y-124581200D02*
X192158571Y-124628819D01*
X192158571Y-124628819D02*
X192349047Y-124628819D01*
X192349047Y-124628819D02*
X192444285Y-124581200D01*
X192444285Y-124581200D02*
X192491904Y-124533580D01*
X192491904Y-124533580D02*
X192539523Y-124438342D01*
X192539523Y-124438342D02*
X192539523Y-124200247D01*
X192539523Y-124200247D02*
X192491904Y-124105009D01*
X192491904Y-124105009D02*
X192444285Y-124057390D01*
X192444285Y-124057390D02*
X192349047Y-124009771D01*
X192349047Y-124009771D02*
X192158571Y-124009771D01*
X192158571Y-124009771D02*
X192063333Y-124057390D01*
X192063333Y-124057390D02*
X192015714Y-124105009D01*
X192015714Y-124105009D02*
X191968095Y-124200247D01*
X50945714Y-154504819D02*
X50945714Y-153504819D01*
X50945714Y-153504819D02*
X51183809Y-153504819D01*
X51183809Y-153504819D02*
X51326666Y-153552438D01*
X51326666Y-153552438D02*
X51421904Y-153647676D01*
X51421904Y-153647676D02*
X51469523Y-153742914D01*
X51469523Y-153742914D02*
X51517142Y-153933390D01*
X51517142Y-153933390D02*
X51517142Y-154076247D01*
X51517142Y-154076247D02*
X51469523Y-154266723D01*
X51469523Y-154266723D02*
X51421904Y-154361961D01*
X51421904Y-154361961D02*
X51326666Y-154457200D01*
X51326666Y-154457200D02*
X51183809Y-154504819D01*
X51183809Y-154504819D02*
X50945714Y-154504819D01*
X51898095Y-153600057D02*
X51945714Y-153552438D01*
X51945714Y-153552438D02*
X52040952Y-153504819D01*
X52040952Y-153504819D02*
X52279047Y-153504819D01*
X52279047Y-153504819D02*
X52374285Y-153552438D01*
X52374285Y-153552438D02*
X52421904Y-153600057D01*
X52421904Y-153600057D02*
X52469523Y-153695295D01*
X52469523Y-153695295D02*
X52469523Y-153790533D01*
X52469523Y-153790533D02*
X52421904Y-153933390D01*
X52421904Y-153933390D02*
X51850476Y-154504819D01*
X51850476Y-154504819D02*
X52469523Y-154504819D01*
X53421904Y-154504819D02*
X52850476Y-154504819D01*
X53136190Y-154504819D02*
X53136190Y-153504819D01*
X53136190Y-153504819D02*
X53040952Y-153647676D01*
X53040952Y-153647676D02*
X52945714Y-153742914D01*
X52945714Y-153742914D02*
X52850476Y-153790533D01*
X120870476Y-124581200D02*
X121013333Y-124628819D01*
X121013333Y-124628819D02*
X121251428Y-124628819D01*
X121251428Y-124628819D02*
X121346666Y-124581200D01*
X121346666Y-124581200D02*
X121394285Y-124533580D01*
X121394285Y-124533580D02*
X121441904Y-124438342D01*
X121441904Y-124438342D02*
X121441904Y-124343104D01*
X121441904Y-124343104D02*
X121394285Y-124247866D01*
X121394285Y-124247866D02*
X121346666Y-124200247D01*
X121346666Y-124200247D02*
X121251428Y-124152628D01*
X121251428Y-124152628D02*
X121060952Y-124105009D01*
X121060952Y-124105009D02*
X120965714Y-124057390D01*
X120965714Y-124057390D02*
X120918095Y-124009771D01*
X120918095Y-124009771D02*
X120870476Y-123914533D01*
X120870476Y-123914533D02*
X120870476Y-123819295D01*
X120870476Y-123819295D02*
X120918095Y-123724057D01*
X120918095Y-123724057D02*
X120965714Y-123676438D01*
X120965714Y-123676438D02*
X121060952Y-123628819D01*
X121060952Y-123628819D02*
X121299047Y-123628819D01*
X121299047Y-123628819D02*
X121441904Y-123676438D01*
X121775238Y-123628819D02*
X122013333Y-124628819D01*
X122013333Y-124628819D02*
X122203809Y-123914533D01*
X122203809Y-123914533D02*
X122394285Y-124628819D01*
X122394285Y-124628819D02*
X122632381Y-123628819D01*
X123537142Y-124628819D02*
X122965714Y-124628819D01*
X123251428Y-124628819D02*
X123251428Y-123628819D01*
X123251428Y-123628819D02*
X123156190Y-123771676D01*
X123156190Y-123771676D02*
X123060952Y-123866914D01*
X123060952Y-123866914D02*
X122965714Y-123914533D01*
X124441904Y-123628819D02*
X123965714Y-123628819D01*
X123965714Y-123628819D02*
X123918095Y-124105009D01*
X123918095Y-124105009D02*
X123965714Y-124057390D01*
X123965714Y-124057390D02*
X124060952Y-124009771D01*
X124060952Y-124009771D02*
X124299047Y-124009771D01*
X124299047Y-124009771D02*
X124394285Y-124057390D01*
X124394285Y-124057390D02*
X124441904Y-124105009D01*
X124441904Y-124105009D02*
X124489523Y-124200247D01*
X124489523Y-124200247D02*
X124489523Y-124438342D01*
X124489523Y-124438342D02*
X124441904Y-124533580D01*
X124441904Y-124533580D02*
X124394285Y-124581200D01*
X124394285Y-124581200D02*
X124299047Y-124628819D01*
X124299047Y-124628819D02*
X124060952Y-124628819D01*
X124060952Y-124628819D02*
X123965714Y-124581200D01*
X123965714Y-124581200D02*
X123918095Y-124533580D01*
X82920476Y-124581200D02*
X83063333Y-124628819D01*
X83063333Y-124628819D02*
X83301428Y-124628819D01*
X83301428Y-124628819D02*
X83396666Y-124581200D01*
X83396666Y-124581200D02*
X83444285Y-124533580D01*
X83444285Y-124533580D02*
X83491904Y-124438342D01*
X83491904Y-124438342D02*
X83491904Y-124343104D01*
X83491904Y-124343104D02*
X83444285Y-124247866D01*
X83444285Y-124247866D02*
X83396666Y-124200247D01*
X83396666Y-124200247D02*
X83301428Y-124152628D01*
X83301428Y-124152628D02*
X83110952Y-124105009D01*
X83110952Y-124105009D02*
X83015714Y-124057390D01*
X83015714Y-124057390D02*
X82968095Y-124009771D01*
X82968095Y-124009771D02*
X82920476Y-123914533D01*
X82920476Y-123914533D02*
X82920476Y-123819295D01*
X82920476Y-123819295D02*
X82968095Y-123724057D01*
X82968095Y-123724057D02*
X83015714Y-123676438D01*
X83015714Y-123676438D02*
X83110952Y-123628819D01*
X83110952Y-123628819D02*
X83349047Y-123628819D01*
X83349047Y-123628819D02*
X83491904Y-123676438D01*
X83825238Y-123628819D02*
X84063333Y-124628819D01*
X84063333Y-124628819D02*
X84253809Y-123914533D01*
X84253809Y-123914533D02*
X84444285Y-124628819D01*
X84444285Y-124628819D02*
X84682381Y-123628819D01*
X85587142Y-124628819D02*
X85015714Y-124628819D01*
X85301428Y-124628819D02*
X85301428Y-123628819D01*
X85301428Y-123628819D02*
X85206190Y-123771676D01*
X85206190Y-123771676D02*
X85110952Y-123866914D01*
X85110952Y-123866914D02*
X85015714Y-123914533D01*
X85920476Y-123628819D02*
X86539523Y-123628819D01*
X86539523Y-123628819D02*
X86206190Y-124009771D01*
X86206190Y-124009771D02*
X86349047Y-124009771D01*
X86349047Y-124009771D02*
X86444285Y-124057390D01*
X86444285Y-124057390D02*
X86491904Y-124105009D01*
X86491904Y-124105009D02*
X86539523Y-124200247D01*
X86539523Y-124200247D02*
X86539523Y-124438342D01*
X86539523Y-124438342D02*
X86491904Y-124533580D01*
X86491904Y-124533580D02*
X86444285Y-124581200D01*
X86444285Y-124581200D02*
X86349047Y-124628819D01*
X86349047Y-124628819D02*
X86063333Y-124628819D01*
X86063333Y-124628819D02*
X85968095Y-124581200D01*
X85968095Y-124581200D02*
X85920476Y-124533580D01*
X264960476Y-124581200D02*
X265103333Y-124628819D01*
X265103333Y-124628819D02*
X265341428Y-124628819D01*
X265341428Y-124628819D02*
X265436666Y-124581200D01*
X265436666Y-124581200D02*
X265484285Y-124533580D01*
X265484285Y-124533580D02*
X265531904Y-124438342D01*
X265531904Y-124438342D02*
X265531904Y-124343104D01*
X265531904Y-124343104D02*
X265484285Y-124247866D01*
X265484285Y-124247866D02*
X265436666Y-124200247D01*
X265436666Y-124200247D02*
X265341428Y-124152628D01*
X265341428Y-124152628D02*
X265150952Y-124105009D01*
X265150952Y-124105009D02*
X265055714Y-124057390D01*
X265055714Y-124057390D02*
X265008095Y-124009771D01*
X265008095Y-124009771D02*
X264960476Y-123914533D01*
X264960476Y-123914533D02*
X264960476Y-123819295D01*
X264960476Y-123819295D02*
X265008095Y-123724057D01*
X265008095Y-123724057D02*
X265055714Y-123676438D01*
X265055714Y-123676438D02*
X265150952Y-123628819D01*
X265150952Y-123628819D02*
X265389047Y-123628819D01*
X265389047Y-123628819D02*
X265531904Y-123676438D01*
X265865238Y-123628819D02*
X266103333Y-124628819D01*
X266103333Y-124628819D02*
X266293809Y-123914533D01*
X266293809Y-123914533D02*
X266484285Y-124628819D01*
X266484285Y-124628819D02*
X266722381Y-123628819D01*
X267055714Y-123724057D02*
X267103333Y-123676438D01*
X267103333Y-123676438D02*
X267198571Y-123628819D01*
X267198571Y-123628819D02*
X267436666Y-123628819D01*
X267436666Y-123628819D02*
X267531904Y-123676438D01*
X267531904Y-123676438D02*
X267579523Y-123724057D01*
X267579523Y-123724057D02*
X267627142Y-123819295D01*
X267627142Y-123819295D02*
X267627142Y-123914533D01*
X267627142Y-123914533D02*
X267579523Y-124057390D01*
X267579523Y-124057390D02*
X267008095Y-124628819D01*
X267008095Y-124628819D02*
X267627142Y-124628819D01*
X268246190Y-123628819D02*
X268341428Y-123628819D01*
X268341428Y-123628819D02*
X268436666Y-123676438D01*
X268436666Y-123676438D02*
X268484285Y-123724057D01*
X268484285Y-123724057D02*
X268531904Y-123819295D01*
X268531904Y-123819295D02*
X268579523Y-124009771D01*
X268579523Y-124009771D02*
X268579523Y-124247866D01*
X268579523Y-124247866D02*
X268531904Y-124438342D01*
X268531904Y-124438342D02*
X268484285Y-124533580D01*
X268484285Y-124533580D02*
X268436666Y-124581200D01*
X268436666Y-124581200D02*
X268341428Y-124628819D01*
X268341428Y-124628819D02*
X268246190Y-124628819D01*
X268246190Y-124628819D02*
X268150952Y-124581200D01*
X268150952Y-124581200D02*
X268103333Y-124533580D01*
X268103333Y-124533580D02*
X268055714Y-124438342D01*
X268055714Y-124438342D02*
X268008095Y-124247866D01*
X268008095Y-124247866D02*
X268008095Y-124009771D01*
X268008095Y-124009771D02*
X268055714Y-123819295D01*
X268055714Y-123819295D02*
X268103333Y-123724057D01*
X268103333Y-123724057D02*
X268150952Y-123676438D01*
X268150952Y-123676438D02*
X268246190Y-123628819D01*
X248735714Y-126204819D02*
X248735714Y-125204819D01*
X248735714Y-125204819D02*
X248973809Y-125204819D01*
X248973809Y-125204819D02*
X249116666Y-125252438D01*
X249116666Y-125252438D02*
X249211904Y-125347676D01*
X249211904Y-125347676D02*
X249259523Y-125442914D01*
X249259523Y-125442914D02*
X249307142Y-125633390D01*
X249307142Y-125633390D02*
X249307142Y-125776247D01*
X249307142Y-125776247D02*
X249259523Y-125966723D01*
X249259523Y-125966723D02*
X249211904Y-126061961D01*
X249211904Y-126061961D02*
X249116666Y-126157200D01*
X249116666Y-126157200D02*
X248973809Y-126204819D01*
X248973809Y-126204819D02*
X248735714Y-126204819D01*
X250259523Y-126204819D02*
X249688095Y-126204819D01*
X249973809Y-126204819D02*
X249973809Y-125204819D01*
X249973809Y-125204819D02*
X249878571Y-125347676D01*
X249878571Y-125347676D02*
X249783333Y-125442914D01*
X249783333Y-125442914D02*
X249688095Y-125490533D01*
X250735714Y-126204819D02*
X250926190Y-126204819D01*
X250926190Y-126204819D02*
X251021428Y-126157200D01*
X251021428Y-126157200D02*
X251069047Y-126109580D01*
X251069047Y-126109580D02*
X251164285Y-125966723D01*
X251164285Y-125966723D02*
X251211904Y-125776247D01*
X251211904Y-125776247D02*
X251211904Y-125395295D01*
X251211904Y-125395295D02*
X251164285Y-125300057D01*
X251164285Y-125300057D02*
X251116666Y-125252438D01*
X251116666Y-125252438D02*
X251021428Y-125204819D01*
X251021428Y-125204819D02*
X250830952Y-125204819D01*
X250830952Y-125204819D02*
X250735714Y-125252438D01*
X250735714Y-125252438D02*
X250688095Y-125300057D01*
X250688095Y-125300057D02*
X250640476Y-125395295D01*
X250640476Y-125395295D02*
X250640476Y-125633390D01*
X250640476Y-125633390D02*
X250688095Y-125728628D01*
X250688095Y-125728628D02*
X250735714Y-125776247D01*
X250735714Y-125776247D02*
X250830952Y-125823866D01*
X250830952Y-125823866D02*
X251021428Y-125823866D01*
X251021428Y-125823866D02*
X251116666Y-125776247D01*
X251116666Y-125776247D02*
X251164285Y-125728628D01*
X251164285Y-125728628D02*
X251211904Y-125633390D01*
X245960476Y-172681200D02*
X246103333Y-172728819D01*
X246103333Y-172728819D02*
X246341428Y-172728819D01*
X246341428Y-172728819D02*
X246436666Y-172681200D01*
X246436666Y-172681200D02*
X246484285Y-172633580D01*
X246484285Y-172633580D02*
X246531904Y-172538342D01*
X246531904Y-172538342D02*
X246531904Y-172443104D01*
X246531904Y-172443104D02*
X246484285Y-172347866D01*
X246484285Y-172347866D02*
X246436666Y-172300247D01*
X246436666Y-172300247D02*
X246341428Y-172252628D01*
X246341428Y-172252628D02*
X246150952Y-172205009D01*
X246150952Y-172205009D02*
X246055714Y-172157390D01*
X246055714Y-172157390D02*
X246008095Y-172109771D01*
X246008095Y-172109771D02*
X245960476Y-172014533D01*
X245960476Y-172014533D02*
X245960476Y-171919295D01*
X245960476Y-171919295D02*
X246008095Y-171824057D01*
X246008095Y-171824057D02*
X246055714Y-171776438D01*
X246055714Y-171776438D02*
X246150952Y-171728819D01*
X246150952Y-171728819D02*
X246389047Y-171728819D01*
X246389047Y-171728819D02*
X246531904Y-171776438D01*
X246865238Y-171728819D02*
X247103333Y-172728819D01*
X247103333Y-172728819D02*
X247293809Y-172014533D01*
X247293809Y-172014533D02*
X247484285Y-172728819D01*
X247484285Y-172728819D02*
X247722381Y-171728819D01*
X248008095Y-171728819D02*
X248627142Y-171728819D01*
X248627142Y-171728819D02*
X248293809Y-172109771D01*
X248293809Y-172109771D02*
X248436666Y-172109771D01*
X248436666Y-172109771D02*
X248531904Y-172157390D01*
X248531904Y-172157390D02*
X248579523Y-172205009D01*
X248579523Y-172205009D02*
X248627142Y-172300247D01*
X248627142Y-172300247D02*
X248627142Y-172538342D01*
X248627142Y-172538342D02*
X248579523Y-172633580D01*
X248579523Y-172633580D02*
X248531904Y-172681200D01*
X248531904Y-172681200D02*
X248436666Y-172728819D01*
X248436666Y-172728819D02*
X248150952Y-172728819D01*
X248150952Y-172728819D02*
X248055714Y-172681200D01*
X248055714Y-172681200D02*
X248008095Y-172633580D01*
X249103333Y-172728819D02*
X249293809Y-172728819D01*
X249293809Y-172728819D02*
X249389047Y-172681200D01*
X249389047Y-172681200D02*
X249436666Y-172633580D01*
X249436666Y-172633580D02*
X249531904Y-172490723D01*
X249531904Y-172490723D02*
X249579523Y-172300247D01*
X249579523Y-172300247D02*
X249579523Y-171919295D01*
X249579523Y-171919295D02*
X249531904Y-171824057D01*
X249531904Y-171824057D02*
X249484285Y-171776438D01*
X249484285Y-171776438D02*
X249389047Y-171728819D01*
X249389047Y-171728819D02*
X249198571Y-171728819D01*
X249198571Y-171728819D02*
X249103333Y-171776438D01*
X249103333Y-171776438D02*
X249055714Y-171824057D01*
X249055714Y-171824057D02*
X249008095Y-171919295D01*
X249008095Y-171919295D02*
X249008095Y-172157390D01*
X249008095Y-172157390D02*
X249055714Y-172252628D01*
X249055714Y-172252628D02*
X249103333Y-172300247D01*
X249103333Y-172300247D02*
X249198571Y-172347866D01*
X249198571Y-172347866D02*
X249389047Y-172347866D01*
X249389047Y-172347866D02*
X249484285Y-172300247D01*
X249484285Y-172300247D02*
X249531904Y-172252628D01*
X249531904Y-172252628D02*
X249579523Y-172157390D01*
X101870476Y-172681200D02*
X102013333Y-172728819D01*
X102013333Y-172728819D02*
X102251428Y-172728819D01*
X102251428Y-172728819D02*
X102346666Y-172681200D01*
X102346666Y-172681200D02*
X102394285Y-172633580D01*
X102394285Y-172633580D02*
X102441904Y-172538342D01*
X102441904Y-172538342D02*
X102441904Y-172443104D01*
X102441904Y-172443104D02*
X102394285Y-172347866D01*
X102394285Y-172347866D02*
X102346666Y-172300247D01*
X102346666Y-172300247D02*
X102251428Y-172252628D01*
X102251428Y-172252628D02*
X102060952Y-172205009D01*
X102060952Y-172205009D02*
X101965714Y-172157390D01*
X101965714Y-172157390D02*
X101918095Y-172109771D01*
X101918095Y-172109771D02*
X101870476Y-172014533D01*
X101870476Y-172014533D02*
X101870476Y-171919295D01*
X101870476Y-171919295D02*
X101918095Y-171824057D01*
X101918095Y-171824057D02*
X101965714Y-171776438D01*
X101965714Y-171776438D02*
X102060952Y-171728819D01*
X102060952Y-171728819D02*
X102299047Y-171728819D01*
X102299047Y-171728819D02*
X102441904Y-171776438D01*
X102775238Y-171728819D02*
X103013333Y-172728819D01*
X103013333Y-172728819D02*
X103203809Y-172014533D01*
X103203809Y-172014533D02*
X103394285Y-172728819D01*
X103394285Y-172728819D02*
X103632381Y-171728819D01*
X103918095Y-171728819D02*
X104537142Y-171728819D01*
X104537142Y-171728819D02*
X104203809Y-172109771D01*
X104203809Y-172109771D02*
X104346666Y-172109771D01*
X104346666Y-172109771D02*
X104441904Y-172157390D01*
X104441904Y-172157390D02*
X104489523Y-172205009D01*
X104489523Y-172205009D02*
X104537142Y-172300247D01*
X104537142Y-172300247D02*
X104537142Y-172538342D01*
X104537142Y-172538342D02*
X104489523Y-172633580D01*
X104489523Y-172633580D02*
X104441904Y-172681200D01*
X104441904Y-172681200D02*
X104346666Y-172728819D01*
X104346666Y-172728819D02*
X104060952Y-172728819D01*
X104060952Y-172728819D02*
X103965714Y-172681200D01*
X103965714Y-172681200D02*
X103918095Y-172633580D01*
X105394285Y-172062152D02*
X105394285Y-172728819D01*
X105156190Y-171681200D02*
X104918095Y-172395485D01*
X104918095Y-172395485D02*
X105537142Y-172395485D01*
X104745714Y-126304819D02*
X104745714Y-125304819D01*
X104745714Y-125304819D02*
X104983809Y-125304819D01*
X104983809Y-125304819D02*
X105126666Y-125352438D01*
X105126666Y-125352438D02*
X105221904Y-125447676D01*
X105221904Y-125447676D02*
X105269523Y-125542914D01*
X105269523Y-125542914D02*
X105317142Y-125733390D01*
X105317142Y-125733390D02*
X105317142Y-125876247D01*
X105317142Y-125876247D02*
X105269523Y-126066723D01*
X105269523Y-126066723D02*
X105221904Y-126161961D01*
X105221904Y-126161961D02*
X105126666Y-126257200D01*
X105126666Y-126257200D02*
X104983809Y-126304819D01*
X104983809Y-126304819D02*
X104745714Y-126304819D01*
X106269523Y-126304819D02*
X105698095Y-126304819D01*
X105983809Y-126304819D02*
X105983809Y-125304819D01*
X105983809Y-125304819D02*
X105888571Y-125447676D01*
X105888571Y-125447676D02*
X105793333Y-125542914D01*
X105793333Y-125542914D02*
X105698095Y-125590533D01*
X107126666Y-125638152D02*
X107126666Y-126304819D01*
X106888571Y-125257200D02*
X106650476Y-125971485D01*
X106650476Y-125971485D02*
X107269523Y-125971485D01*
X86121905Y-102504819D02*
X86121905Y-101504819D01*
X86121905Y-101504819D02*
X86360000Y-101504819D01*
X86360000Y-101504819D02*
X86502857Y-101552438D01*
X86502857Y-101552438D02*
X86598095Y-101647676D01*
X86598095Y-101647676D02*
X86645714Y-101742914D01*
X86645714Y-101742914D02*
X86693333Y-101933390D01*
X86693333Y-101933390D02*
X86693333Y-102076247D01*
X86693333Y-102076247D02*
X86645714Y-102266723D01*
X86645714Y-102266723D02*
X86598095Y-102361961D01*
X86598095Y-102361961D02*
X86502857Y-102457200D01*
X86502857Y-102457200D02*
X86360000Y-102504819D01*
X86360000Y-102504819D02*
X86121905Y-102504819D01*
X87598095Y-101504819D02*
X87121905Y-101504819D01*
X87121905Y-101504819D02*
X87074286Y-101981009D01*
X87074286Y-101981009D02*
X87121905Y-101933390D01*
X87121905Y-101933390D02*
X87217143Y-101885771D01*
X87217143Y-101885771D02*
X87455238Y-101885771D01*
X87455238Y-101885771D02*
X87550476Y-101933390D01*
X87550476Y-101933390D02*
X87598095Y-101981009D01*
X87598095Y-101981009D02*
X87645714Y-102076247D01*
X87645714Y-102076247D02*
X87645714Y-102314342D01*
X87645714Y-102314342D02*
X87598095Y-102409580D01*
X87598095Y-102409580D02*
X87550476Y-102457200D01*
X87550476Y-102457200D02*
X87455238Y-102504819D01*
X87455238Y-102504819D02*
X87217143Y-102504819D01*
X87217143Y-102504819D02*
X87121905Y-102457200D01*
X87121905Y-102457200D02*
X87074286Y-102409580D01*
X85495714Y-150404819D02*
X85495714Y-149404819D01*
X85495714Y-149404819D02*
X85733809Y-149404819D01*
X85733809Y-149404819D02*
X85876666Y-149452438D01*
X85876666Y-149452438D02*
X85971904Y-149547676D01*
X85971904Y-149547676D02*
X86019523Y-149642914D01*
X86019523Y-149642914D02*
X86067142Y-149833390D01*
X86067142Y-149833390D02*
X86067142Y-149976247D01*
X86067142Y-149976247D02*
X86019523Y-150166723D01*
X86019523Y-150166723D02*
X85971904Y-150261961D01*
X85971904Y-150261961D02*
X85876666Y-150357200D01*
X85876666Y-150357200D02*
X85733809Y-150404819D01*
X85733809Y-150404819D02*
X85495714Y-150404819D01*
X86448095Y-149500057D02*
X86495714Y-149452438D01*
X86495714Y-149452438D02*
X86590952Y-149404819D01*
X86590952Y-149404819D02*
X86829047Y-149404819D01*
X86829047Y-149404819D02*
X86924285Y-149452438D01*
X86924285Y-149452438D02*
X86971904Y-149500057D01*
X86971904Y-149500057D02*
X87019523Y-149595295D01*
X87019523Y-149595295D02*
X87019523Y-149690533D01*
X87019523Y-149690533D02*
X86971904Y-149833390D01*
X86971904Y-149833390D02*
X86400476Y-150404819D01*
X86400476Y-150404819D02*
X87019523Y-150404819D01*
X87352857Y-149404819D02*
X87971904Y-149404819D01*
X87971904Y-149404819D02*
X87638571Y-149785771D01*
X87638571Y-149785771D02*
X87781428Y-149785771D01*
X87781428Y-149785771D02*
X87876666Y-149833390D01*
X87876666Y-149833390D02*
X87924285Y-149881009D01*
X87924285Y-149881009D02*
X87971904Y-149976247D01*
X87971904Y-149976247D02*
X87971904Y-150214342D01*
X87971904Y-150214342D02*
X87924285Y-150309580D01*
X87924285Y-150309580D02*
X87876666Y-150357200D01*
X87876666Y-150357200D02*
X87781428Y-150404819D01*
X87781428Y-150404819D02*
X87495714Y-150404819D01*
X87495714Y-150404819D02*
X87400476Y-150357200D01*
X87400476Y-150357200D02*
X87352857Y-150309580D01*
X207920476Y-172681200D02*
X208063333Y-172728819D01*
X208063333Y-172728819D02*
X208301428Y-172728819D01*
X208301428Y-172728819D02*
X208396666Y-172681200D01*
X208396666Y-172681200D02*
X208444285Y-172633580D01*
X208444285Y-172633580D02*
X208491904Y-172538342D01*
X208491904Y-172538342D02*
X208491904Y-172443104D01*
X208491904Y-172443104D02*
X208444285Y-172347866D01*
X208444285Y-172347866D02*
X208396666Y-172300247D01*
X208396666Y-172300247D02*
X208301428Y-172252628D01*
X208301428Y-172252628D02*
X208110952Y-172205009D01*
X208110952Y-172205009D02*
X208015714Y-172157390D01*
X208015714Y-172157390D02*
X207968095Y-172109771D01*
X207968095Y-172109771D02*
X207920476Y-172014533D01*
X207920476Y-172014533D02*
X207920476Y-171919295D01*
X207920476Y-171919295D02*
X207968095Y-171824057D01*
X207968095Y-171824057D02*
X208015714Y-171776438D01*
X208015714Y-171776438D02*
X208110952Y-171728819D01*
X208110952Y-171728819D02*
X208349047Y-171728819D01*
X208349047Y-171728819D02*
X208491904Y-171776438D01*
X208825238Y-171728819D02*
X209063333Y-172728819D01*
X209063333Y-172728819D02*
X209253809Y-172014533D01*
X209253809Y-172014533D02*
X209444285Y-172728819D01*
X209444285Y-172728819D02*
X209682381Y-171728819D01*
X209968095Y-171728819D02*
X210587142Y-171728819D01*
X210587142Y-171728819D02*
X210253809Y-172109771D01*
X210253809Y-172109771D02*
X210396666Y-172109771D01*
X210396666Y-172109771D02*
X210491904Y-172157390D01*
X210491904Y-172157390D02*
X210539523Y-172205009D01*
X210539523Y-172205009D02*
X210587142Y-172300247D01*
X210587142Y-172300247D02*
X210587142Y-172538342D01*
X210587142Y-172538342D02*
X210539523Y-172633580D01*
X210539523Y-172633580D02*
X210491904Y-172681200D01*
X210491904Y-172681200D02*
X210396666Y-172728819D01*
X210396666Y-172728819D02*
X210110952Y-172728819D01*
X210110952Y-172728819D02*
X210015714Y-172681200D01*
X210015714Y-172681200D02*
X209968095Y-172633580D01*
X210920476Y-171728819D02*
X211587142Y-171728819D01*
X211587142Y-171728819D02*
X211158571Y-172728819D01*
X210685714Y-174154819D02*
X210685714Y-173154819D01*
X210685714Y-173154819D02*
X210923809Y-173154819D01*
X210923809Y-173154819D02*
X211066666Y-173202438D01*
X211066666Y-173202438D02*
X211161904Y-173297676D01*
X211161904Y-173297676D02*
X211209523Y-173392914D01*
X211209523Y-173392914D02*
X211257142Y-173583390D01*
X211257142Y-173583390D02*
X211257142Y-173726247D01*
X211257142Y-173726247D02*
X211209523Y-173916723D01*
X211209523Y-173916723D02*
X211161904Y-174011961D01*
X211161904Y-174011961D02*
X211066666Y-174107200D01*
X211066666Y-174107200D02*
X210923809Y-174154819D01*
X210923809Y-174154819D02*
X210685714Y-174154819D01*
X211590476Y-173154819D02*
X212209523Y-173154819D01*
X212209523Y-173154819D02*
X211876190Y-173535771D01*
X211876190Y-173535771D02*
X212019047Y-173535771D01*
X212019047Y-173535771D02*
X212114285Y-173583390D01*
X212114285Y-173583390D02*
X212161904Y-173631009D01*
X212161904Y-173631009D02*
X212209523Y-173726247D01*
X212209523Y-173726247D02*
X212209523Y-173964342D01*
X212209523Y-173964342D02*
X212161904Y-174059580D01*
X212161904Y-174059580D02*
X212114285Y-174107200D01*
X212114285Y-174107200D02*
X212019047Y-174154819D01*
X212019047Y-174154819D02*
X211733333Y-174154819D01*
X211733333Y-174154819D02*
X211638095Y-174107200D01*
X211638095Y-174107200D02*
X211590476Y-174059580D01*
X212542857Y-173154819D02*
X213209523Y-173154819D01*
X213209523Y-173154819D02*
X212780952Y-174154819D01*
X211161905Y-102054819D02*
X211161905Y-101054819D01*
X211161905Y-101054819D02*
X211400000Y-101054819D01*
X211400000Y-101054819D02*
X211542857Y-101102438D01*
X211542857Y-101102438D02*
X211638095Y-101197676D01*
X211638095Y-101197676D02*
X211685714Y-101292914D01*
X211685714Y-101292914D02*
X211733333Y-101483390D01*
X211733333Y-101483390D02*
X211733333Y-101626247D01*
X211733333Y-101626247D02*
X211685714Y-101816723D01*
X211685714Y-101816723D02*
X211638095Y-101911961D01*
X211638095Y-101911961D02*
X211542857Y-102007200D01*
X211542857Y-102007200D02*
X211400000Y-102054819D01*
X211400000Y-102054819D02*
X211161905Y-102054819D01*
X212590476Y-101388152D02*
X212590476Y-102054819D01*
X212352381Y-101007200D02*
X212114286Y-101721485D01*
X212114286Y-101721485D02*
X212733333Y-101721485D01*
X172635714Y-174204819D02*
X172635714Y-173204819D01*
X172635714Y-173204819D02*
X172873809Y-173204819D01*
X172873809Y-173204819D02*
X173016666Y-173252438D01*
X173016666Y-173252438D02*
X173111904Y-173347676D01*
X173111904Y-173347676D02*
X173159523Y-173442914D01*
X173159523Y-173442914D02*
X173207142Y-173633390D01*
X173207142Y-173633390D02*
X173207142Y-173776247D01*
X173207142Y-173776247D02*
X173159523Y-173966723D01*
X173159523Y-173966723D02*
X173111904Y-174061961D01*
X173111904Y-174061961D02*
X173016666Y-174157200D01*
X173016666Y-174157200D02*
X172873809Y-174204819D01*
X172873809Y-174204819D02*
X172635714Y-174204819D01*
X174064285Y-173538152D02*
X174064285Y-174204819D01*
X173826190Y-173157200D02*
X173588095Y-173871485D01*
X173588095Y-173871485D02*
X174207142Y-173871485D01*
X174540476Y-173300057D02*
X174588095Y-173252438D01*
X174588095Y-173252438D02*
X174683333Y-173204819D01*
X174683333Y-173204819D02*
X174921428Y-173204819D01*
X174921428Y-173204819D02*
X175016666Y-173252438D01*
X175016666Y-173252438D02*
X175064285Y-173300057D01*
X175064285Y-173300057D02*
X175111904Y-173395295D01*
X175111904Y-173395295D02*
X175111904Y-173490533D01*
X175111904Y-173490533D02*
X175064285Y-173633390D01*
X175064285Y-173633390D02*
X174492857Y-174204819D01*
X174492857Y-174204819D02*
X175111904Y-174204819D01*
X264960476Y-100531200D02*
X265103333Y-100578819D01*
X265103333Y-100578819D02*
X265341428Y-100578819D01*
X265341428Y-100578819D02*
X265436666Y-100531200D01*
X265436666Y-100531200D02*
X265484285Y-100483580D01*
X265484285Y-100483580D02*
X265531904Y-100388342D01*
X265531904Y-100388342D02*
X265531904Y-100293104D01*
X265531904Y-100293104D02*
X265484285Y-100197866D01*
X265484285Y-100197866D02*
X265436666Y-100150247D01*
X265436666Y-100150247D02*
X265341428Y-100102628D01*
X265341428Y-100102628D02*
X265150952Y-100055009D01*
X265150952Y-100055009D02*
X265055714Y-100007390D01*
X265055714Y-100007390D02*
X265008095Y-99959771D01*
X265008095Y-99959771D02*
X264960476Y-99864533D01*
X264960476Y-99864533D02*
X264960476Y-99769295D01*
X264960476Y-99769295D02*
X265008095Y-99674057D01*
X265008095Y-99674057D02*
X265055714Y-99626438D01*
X265055714Y-99626438D02*
X265150952Y-99578819D01*
X265150952Y-99578819D02*
X265389047Y-99578819D01*
X265389047Y-99578819D02*
X265531904Y-99626438D01*
X265865238Y-99578819D02*
X266103333Y-100578819D01*
X266103333Y-100578819D02*
X266293809Y-99864533D01*
X266293809Y-99864533D02*
X266484285Y-100578819D01*
X266484285Y-100578819D02*
X266722381Y-99578819D01*
X267627142Y-100578819D02*
X267055714Y-100578819D01*
X267341428Y-100578819D02*
X267341428Y-99578819D01*
X267341428Y-99578819D02*
X267246190Y-99721676D01*
X267246190Y-99721676D02*
X267150952Y-99816914D01*
X267150952Y-99816914D02*
X267055714Y-99864533D01*
X268246190Y-99578819D02*
X268341428Y-99578819D01*
X268341428Y-99578819D02*
X268436666Y-99626438D01*
X268436666Y-99626438D02*
X268484285Y-99674057D01*
X268484285Y-99674057D02*
X268531904Y-99769295D01*
X268531904Y-99769295D02*
X268579523Y-99959771D01*
X268579523Y-99959771D02*
X268579523Y-100197866D01*
X268579523Y-100197866D02*
X268531904Y-100388342D01*
X268531904Y-100388342D02*
X268484285Y-100483580D01*
X268484285Y-100483580D02*
X268436666Y-100531200D01*
X268436666Y-100531200D02*
X268341428Y-100578819D01*
X268341428Y-100578819D02*
X268246190Y-100578819D01*
X268246190Y-100578819D02*
X268150952Y-100531200D01*
X268150952Y-100531200D02*
X268103333Y-100483580D01*
X268103333Y-100483580D02*
X268055714Y-100388342D01*
X268055714Y-100388342D02*
X268008095Y-100197866D01*
X268008095Y-100197866D02*
X268008095Y-99959771D01*
X268008095Y-99959771D02*
X268055714Y-99769295D01*
X268055714Y-99769295D02*
X268103333Y-99674057D01*
X268103333Y-99674057D02*
X268150952Y-99626438D01*
X268150952Y-99626438D02*
X268246190Y-99578819D01*
X226960476Y-172681200D02*
X227103333Y-172728819D01*
X227103333Y-172728819D02*
X227341428Y-172728819D01*
X227341428Y-172728819D02*
X227436666Y-172681200D01*
X227436666Y-172681200D02*
X227484285Y-172633580D01*
X227484285Y-172633580D02*
X227531904Y-172538342D01*
X227531904Y-172538342D02*
X227531904Y-172443104D01*
X227531904Y-172443104D02*
X227484285Y-172347866D01*
X227484285Y-172347866D02*
X227436666Y-172300247D01*
X227436666Y-172300247D02*
X227341428Y-172252628D01*
X227341428Y-172252628D02*
X227150952Y-172205009D01*
X227150952Y-172205009D02*
X227055714Y-172157390D01*
X227055714Y-172157390D02*
X227008095Y-172109771D01*
X227008095Y-172109771D02*
X226960476Y-172014533D01*
X226960476Y-172014533D02*
X226960476Y-171919295D01*
X226960476Y-171919295D02*
X227008095Y-171824057D01*
X227008095Y-171824057D02*
X227055714Y-171776438D01*
X227055714Y-171776438D02*
X227150952Y-171728819D01*
X227150952Y-171728819D02*
X227389047Y-171728819D01*
X227389047Y-171728819D02*
X227531904Y-171776438D01*
X227865238Y-171728819D02*
X228103333Y-172728819D01*
X228103333Y-172728819D02*
X228293809Y-172014533D01*
X228293809Y-172014533D02*
X228484285Y-172728819D01*
X228484285Y-172728819D02*
X228722381Y-171728819D01*
X229008095Y-171728819D02*
X229627142Y-171728819D01*
X229627142Y-171728819D02*
X229293809Y-172109771D01*
X229293809Y-172109771D02*
X229436666Y-172109771D01*
X229436666Y-172109771D02*
X229531904Y-172157390D01*
X229531904Y-172157390D02*
X229579523Y-172205009D01*
X229579523Y-172205009D02*
X229627142Y-172300247D01*
X229627142Y-172300247D02*
X229627142Y-172538342D01*
X229627142Y-172538342D02*
X229579523Y-172633580D01*
X229579523Y-172633580D02*
X229531904Y-172681200D01*
X229531904Y-172681200D02*
X229436666Y-172728819D01*
X229436666Y-172728819D02*
X229150952Y-172728819D01*
X229150952Y-172728819D02*
X229055714Y-172681200D01*
X229055714Y-172681200D02*
X229008095Y-172633580D01*
X230198571Y-172157390D02*
X230103333Y-172109771D01*
X230103333Y-172109771D02*
X230055714Y-172062152D01*
X230055714Y-172062152D02*
X230008095Y-171966914D01*
X230008095Y-171966914D02*
X230008095Y-171919295D01*
X230008095Y-171919295D02*
X230055714Y-171824057D01*
X230055714Y-171824057D02*
X230103333Y-171776438D01*
X230103333Y-171776438D02*
X230198571Y-171728819D01*
X230198571Y-171728819D02*
X230389047Y-171728819D01*
X230389047Y-171728819D02*
X230484285Y-171776438D01*
X230484285Y-171776438D02*
X230531904Y-171824057D01*
X230531904Y-171824057D02*
X230579523Y-171919295D01*
X230579523Y-171919295D02*
X230579523Y-171966914D01*
X230579523Y-171966914D02*
X230531904Y-172062152D01*
X230531904Y-172062152D02*
X230484285Y-172109771D01*
X230484285Y-172109771D02*
X230389047Y-172157390D01*
X230389047Y-172157390D02*
X230198571Y-172157390D01*
X230198571Y-172157390D02*
X230103333Y-172205009D01*
X230103333Y-172205009D02*
X230055714Y-172252628D01*
X230055714Y-172252628D02*
X230008095Y-172347866D01*
X230008095Y-172347866D02*
X230008095Y-172538342D01*
X230008095Y-172538342D02*
X230055714Y-172633580D01*
X230055714Y-172633580D02*
X230103333Y-172681200D01*
X230103333Y-172681200D02*
X230198571Y-172728819D01*
X230198571Y-172728819D02*
X230389047Y-172728819D01*
X230389047Y-172728819D02*
X230484285Y-172681200D01*
X230484285Y-172681200D02*
X230531904Y-172633580D01*
X230531904Y-172633580D02*
X230579523Y-172538342D01*
X230579523Y-172538342D02*
X230579523Y-172347866D01*
X230579523Y-172347866D02*
X230531904Y-172252628D01*
X230531904Y-172252628D02*
X230484285Y-172205009D01*
X230484285Y-172205009D02*
X230389047Y-172157390D01*
X101880476Y-124581200D02*
X102023333Y-124628819D01*
X102023333Y-124628819D02*
X102261428Y-124628819D01*
X102261428Y-124628819D02*
X102356666Y-124581200D01*
X102356666Y-124581200D02*
X102404285Y-124533580D01*
X102404285Y-124533580D02*
X102451904Y-124438342D01*
X102451904Y-124438342D02*
X102451904Y-124343104D01*
X102451904Y-124343104D02*
X102404285Y-124247866D01*
X102404285Y-124247866D02*
X102356666Y-124200247D01*
X102356666Y-124200247D02*
X102261428Y-124152628D01*
X102261428Y-124152628D02*
X102070952Y-124105009D01*
X102070952Y-124105009D02*
X101975714Y-124057390D01*
X101975714Y-124057390D02*
X101928095Y-124009771D01*
X101928095Y-124009771D02*
X101880476Y-123914533D01*
X101880476Y-123914533D02*
X101880476Y-123819295D01*
X101880476Y-123819295D02*
X101928095Y-123724057D01*
X101928095Y-123724057D02*
X101975714Y-123676438D01*
X101975714Y-123676438D02*
X102070952Y-123628819D01*
X102070952Y-123628819D02*
X102309047Y-123628819D01*
X102309047Y-123628819D02*
X102451904Y-123676438D01*
X102785238Y-123628819D02*
X103023333Y-124628819D01*
X103023333Y-124628819D02*
X103213809Y-123914533D01*
X103213809Y-123914533D02*
X103404285Y-124628819D01*
X103404285Y-124628819D02*
X103642381Y-123628819D01*
X104547142Y-124628819D02*
X103975714Y-124628819D01*
X104261428Y-124628819D02*
X104261428Y-123628819D01*
X104261428Y-123628819D02*
X104166190Y-123771676D01*
X104166190Y-123771676D02*
X104070952Y-123866914D01*
X104070952Y-123866914D02*
X103975714Y-123914533D01*
X105404285Y-123962152D02*
X105404285Y-124628819D01*
X105166190Y-123581200D02*
X104928095Y-124295485D01*
X104928095Y-124295485D02*
X105547142Y-124295485D01*
X101870476Y-148631200D02*
X102013333Y-148678819D01*
X102013333Y-148678819D02*
X102251428Y-148678819D01*
X102251428Y-148678819D02*
X102346666Y-148631200D01*
X102346666Y-148631200D02*
X102394285Y-148583580D01*
X102394285Y-148583580D02*
X102441904Y-148488342D01*
X102441904Y-148488342D02*
X102441904Y-148393104D01*
X102441904Y-148393104D02*
X102394285Y-148297866D01*
X102394285Y-148297866D02*
X102346666Y-148250247D01*
X102346666Y-148250247D02*
X102251428Y-148202628D01*
X102251428Y-148202628D02*
X102060952Y-148155009D01*
X102060952Y-148155009D02*
X101965714Y-148107390D01*
X101965714Y-148107390D02*
X101918095Y-148059771D01*
X101918095Y-148059771D02*
X101870476Y-147964533D01*
X101870476Y-147964533D02*
X101870476Y-147869295D01*
X101870476Y-147869295D02*
X101918095Y-147774057D01*
X101918095Y-147774057D02*
X101965714Y-147726438D01*
X101965714Y-147726438D02*
X102060952Y-147678819D01*
X102060952Y-147678819D02*
X102299047Y-147678819D01*
X102299047Y-147678819D02*
X102441904Y-147726438D01*
X102775238Y-147678819D02*
X103013333Y-148678819D01*
X103013333Y-148678819D02*
X103203809Y-147964533D01*
X103203809Y-147964533D02*
X103394285Y-148678819D01*
X103394285Y-148678819D02*
X103632381Y-147678819D01*
X103965714Y-147774057D02*
X104013333Y-147726438D01*
X104013333Y-147726438D02*
X104108571Y-147678819D01*
X104108571Y-147678819D02*
X104346666Y-147678819D01*
X104346666Y-147678819D02*
X104441904Y-147726438D01*
X104441904Y-147726438D02*
X104489523Y-147774057D01*
X104489523Y-147774057D02*
X104537142Y-147869295D01*
X104537142Y-147869295D02*
X104537142Y-147964533D01*
X104537142Y-147964533D02*
X104489523Y-148107390D01*
X104489523Y-148107390D02*
X103918095Y-148678819D01*
X103918095Y-148678819D02*
X104537142Y-148678819D01*
X105394285Y-148012152D02*
X105394285Y-148678819D01*
X105156190Y-147631200D02*
X104918095Y-148345485D01*
X104918095Y-148345485D02*
X105537142Y-148345485D01*
X85745714Y-173904819D02*
X85745714Y-172904819D01*
X85745714Y-172904819D02*
X85983809Y-172904819D01*
X85983809Y-172904819D02*
X86126666Y-172952438D01*
X86126666Y-172952438D02*
X86221904Y-173047676D01*
X86221904Y-173047676D02*
X86269523Y-173142914D01*
X86269523Y-173142914D02*
X86317142Y-173333390D01*
X86317142Y-173333390D02*
X86317142Y-173476247D01*
X86317142Y-173476247D02*
X86269523Y-173666723D01*
X86269523Y-173666723D02*
X86221904Y-173761961D01*
X86221904Y-173761961D02*
X86126666Y-173857200D01*
X86126666Y-173857200D02*
X85983809Y-173904819D01*
X85983809Y-173904819D02*
X85745714Y-173904819D01*
X86650476Y-172904819D02*
X87269523Y-172904819D01*
X87269523Y-172904819D02*
X86936190Y-173285771D01*
X86936190Y-173285771D02*
X87079047Y-173285771D01*
X87079047Y-173285771D02*
X87174285Y-173333390D01*
X87174285Y-173333390D02*
X87221904Y-173381009D01*
X87221904Y-173381009D02*
X87269523Y-173476247D01*
X87269523Y-173476247D02*
X87269523Y-173714342D01*
X87269523Y-173714342D02*
X87221904Y-173809580D01*
X87221904Y-173809580D02*
X87174285Y-173857200D01*
X87174285Y-173857200D02*
X87079047Y-173904819D01*
X87079047Y-173904819D02*
X86793333Y-173904819D01*
X86793333Y-173904819D02*
X86698095Y-173857200D01*
X86698095Y-173857200D02*
X86650476Y-173809580D01*
X87602857Y-172904819D02*
X88221904Y-172904819D01*
X88221904Y-172904819D02*
X87888571Y-173285771D01*
X87888571Y-173285771D02*
X88031428Y-173285771D01*
X88031428Y-173285771D02*
X88126666Y-173333390D01*
X88126666Y-173333390D02*
X88174285Y-173381009D01*
X88174285Y-173381009D02*
X88221904Y-173476247D01*
X88221904Y-173476247D02*
X88221904Y-173714342D01*
X88221904Y-173714342D02*
X88174285Y-173809580D01*
X88174285Y-173809580D02*
X88126666Y-173857200D01*
X88126666Y-173857200D02*
X88031428Y-173904819D01*
X88031428Y-173904819D02*
X87745714Y-173904819D01*
X87745714Y-173904819D02*
X87650476Y-173857200D01*
X87650476Y-173857200D02*
X87602857Y-173809580D01*
X210635714Y-126304819D02*
X210635714Y-125304819D01*
X210635714Y-125304819D02*
X210873809Y-125304819D01*
X210873809Y-125304819D02*
X211016666Y-125352438D01*
X211016666Y-125352438D02*
X211111904Y-125447676D01*
X211111904Y-125447676D02*
X211159523Y-125542914D01*
X211159523Y-125542914D02*
X211207142Y-125733390D01*
X211207142Y-125733390D02*
X211207142Y-125876247D01*
X211207142Y-125876247D02*
X211159523Y-126066723D01*
X211159523Y-126066723D02*
X211111904Y-126161961D01*
X211111904Y-126161961D02*
X211016666Y-126257200D01*
X211016666Y-126257200D02*
X210873809Y-126304819D01*
X210873809Y-126304819D02*
X210635714Y-126304819D01*
X212159523Y-126304819D02*
X211588095Y-126304819D01*
X211873809Y-126304819D02*
X211873809Y-125304819D01*
X211873809Y-125304819D02*
X211778571Y-125447676D01*
X211778571Y-125447676D02*
X211683333Y-125542914D01*
X211683333Y-125542914D02*
X211588095Y-125590533D01*
X212492857Y-125304819D02*
X213159523Y-125304819D01*
X213159523Y-125304819D02*
X212730952Y-126304819D01*
X139940476Y-172681200D02*
X140083333Y-172728819D01*
X140083333Y-172728819D02*
X140321428Y-172728819D01*
X140321428Y-172728819D02*
X140416666Y-172681200D01*
X140416666Y-172681200D02*
X140464285Y-172633580D01*
X140464285Y-172633580D02*
X140511904Y-172538342D01*
X140511904Y-172538342D02*
X140511904Y-172443104D01*
X140511904Y-172443104D02*
X140464285Y-172347866D01*
X140464285Y-172347866D02*
X140416666Y-172300247D01*
X140416666Y-172300247D02*
X140321428Y-172252628D01*
X140321428Y-172252628D02*
X140130952Y-172205009D01*
X140130952Y-172205009D02*
X140035714Y-172157390D01*
X140035714Y-172157390D02*
X139988095Y-172109771D01*
X139988095Y-172109771D02*
X139940476Y-172014533D01*
X139940476Y-172014533D02*
X139940476Y-171919295D01*
X139940476Y-171919295D02*
X139988095Y-171824057D01*
X139988095Y-171824057D02*
X140035714Y-171776438D01*
X140035714Y-171776438D02*
X140130952Y-171728819D01*
X140130952Y-171728819D02*
X140369047Y-171728819D01*
X140369047Y-171728819D02*
X140511904Y-171776438D01*
X140845238Y-171728819D02*
X141083333Y-172728819D01*
X141083333Y-172728819D02*
X141273809Y-172014533D01*
X141273809Y-172014533D02*
X141464285Y-172728819D01*
X141464285Y-172728819D02*
X141702381Y-171728819D01*
X142511904Y-172062152D02*
X142511904Y-172728819D01*
X142273809Y-171681200D02*
X142035714Y-172395485D01*
X142035714Y-172395485D02*
X142654761Y-172395485D01*
X143559523Y-172728819D02*
X142988095Y-172728819D01*
X143273809Y-172728819D02*
X143273809Y-171728819D01*
X143273809Y-171728819D02*
X143178571Y-171871676D01*
X143178571Y-171871676D02*
X143083333Y-171966914D01*
X143083333Y-171966914D02*
X142988095Y-172014533D01*
X264960476Y-172681200D02*
X265103333Y-172728819D01*
X265103333Y-172728819D02*
X265341428Y-172728819D01*
X265341428Y-172728819D02*
X265436666Y-172681200D01*
X265436666Y-172681200D02*
X265484285Y-172633580D01*
X265484285Y-172633580D02*
X265531904Y-172538342D01*
X265531904Y-172538342D02*
X265531904Y-172443104D01*
X265531904Y-172443104D02*
X265484285Y-172347866D01*
X265484285Y-172347866D02*
X265436666Y-172300247D01*
X265436666Y-172300247D02*
X265341428Y-172252628D01*
X265341428Y-172252628D02*
X265150952Y-172205009D01*
X265150952Y-172205009D02*
X265055714Y-172157390D01*
X265055714Y-172157390D02*
X265008095Y-172109771D01*
X265008095Y-172109771D02*
X264960476Y-172014533D01*
X264960476Y-172014533D02*
X264960476Y-171919295D01*
X264960476Y-171919295D02*
X265008095Y-171824057D01*
X265008095Y-171824057D02*
X265055714Y-171776438D01*
X265055714Y-171776438D02*
X265150952Y-171728819D01*
X265150952Y-171728819D02*
X265389047Y-171728819D01*
X265389047Y-171728819D02*
X265531904Y-171776438D01*
X265865238Y-171728819D02*
X266103333Y-172728819D01*
X266103333Y-172728819D02*
X266293809Y-172014533D01*
X266293809Y-172014533D02*
X266484285Y-172728819D01*
X266484285Y-172728819D02*
X266722381Y-171728819D01*
X267531904Y-172062152D02*
X267531904Y-172728819D01*
X267293809Y-171681200D02*
X267055714Y-172395485D01*
X267055714Y-172395485D02*
X267674761Y-172395485D01*
X268246190Y-171728819D02*
X268341428Y-171728819D01*
X268341428Y-171728819D02*
X268436666Y-171776438D01*
X268436666Y-171776438D02*
X268484285Y-171824057D01*
X268484285Y-171824057D02*
X268531904Y-171919295D01*
X268531904Y-171919295D02*
X268579523Y-172109771D01*
X268579523Y-172109771D02*
X268579523Y-172347866D01*
X268579523Y-172347866D02*
X268531904Y-172538342D01*
X268531904Y-172538342D02*
X268484285Y-172633580D01*
X268484285Y-172633580D02*
X268436666Y-172681200D01*
X268436666Y-172681200D02*
X268341428Y-172728819D01*
X268341428Y-172728819D02*
X268246190Y-172728819D01*
X268246190Y-172728819D02*
X268150952Y-172681200D01*
X268150952Y-172681200D02*
X268103333Y-172633580D01*
X268103333Y-172633580D02*
X268055714Y-172538342D01*
X268055714Y-172538342D02*
X268008095Y-172347866D01*
X268008095Y-172347866D02*
X268008095Y-172109771D01*
X268008095Y-172109771D02*
X268055714Y-171919295D01*
X268055714Y-171919295D02*
X268103333Y-171824057D01*
X268103333Y-171824057D02*
X268150952Y-171776438D01*
X268150952Y-171776438D02*
X268246190Y-171728819D01*
X66745714Y-126304819D02*
X66745714Y-125304819D01*
X66745714Y-125304819D02*
X66983809Y-125304819D01*
X66983809Y-125304819D02*
X67126666Y-125352438D01*
X67126666Y-125352438D02*
X67221904Y-125447676D01*
X67221904Y-125447676D02*
X67269523Y-125542914D01*
X67269523Y-125542914D02*
X67317142Y-125733390D01*
X67317142Y-125733390D02*
X67317142Y-125876247D01*
X67317142Y-125876247D02*
X67269523Y-126066723D01*
X67269523Y-126066723D02*
X67221904Y-126161961D01*
X67221904Y-126161961D02*
X67126666Y-126257200D01*
X67126666Y-126257200D02*
X66983809Y-126304819D01*
X66983809Y-126304819D02*
X66745714Y-126304819D01*
X68269523Y-126304819D02*
X67698095Y-126304819D01*
X67983809Y-126304819D02*
X67983809Y-125304819D01*
X67983809Y-125304819D02*
X67888571Y-125447676D01*
X67888571Y-125447676D02*
X67793333Y-125542914D01*
X67793333Y-125542914D02*
X67698095Y-125590533D01*
X68650476Y-125400057D02*
X68698095Y-125352438D01*
X68698095Y-125352438D02*
X68793333Y-125304819D01*
X68793333Y-125304819D02*
X69031428Y-125304819D01*
X69031428Y-125304819D02*
X69126666Y-125352438D01*
X69126666Y-125352438D02*
X69174285Y-125400057D01*
X69174285Y-125400057D02*
X69221904Y-125495295D01*
X69221904Y-125495295D02*
X69221904Y-125590533D01*
X69221904Y-125590533D02*
X69174285Y-125733390D01*
X69174285Y-125733390D02*
X68602857Y-126304819D01*
X68602857Y-126304819D02*
X69221904Y-126304819D01*
X104445714Y-173904819D02*
X104445714Y-172904819D01*
X104445714Y-172904819D02*
X104683809Y-172904819D01*
X104683809Y-172904819D02*
X104826666Y-172952438D01*
X104826666Y-172952438D02*
X104921904Y-173047676D01*
X104921904Y-173047676D02*
X104969523Y-173142914D01*
X104969523Y-173142914D02*
X105017142Y-173333390D01*
X105017142Y-173333390D02*
X105017142Y-173476247D01*
X105017142Y-173476247D02*
X104969523Y-173666723D01*
X104969523Y-173666723D02*
X104921904Y-173761961D01*
X104921904Y-173761961D02*
X104826666Y-173857200D01*
X104826666Y-173857200D02*
X104683809Y-173904819D01*
X104683809Y-173904819D02*
X104445714Y-173904819D01*
X105350476Y-172904819D02*
X105969523Y-172904819D01*
X105969523Y-172904819D02*
X105636190Y-173285771D01*
X105636190Y-173285771D02*
X105779047Y-173285771D01*
X105779047Y-173285771D02*
X105874285Y-173333390D01*
X105874285Y-173333390D02*
X105921904Y-173381009D01*
X105921904Y-173381009D02*
X105969523Y-173476247D01*
X105969523Y-173476247D02*
X105969523Y-173714342D01*
X105969523Y-173714342D02*
X105921904Y-173809580D01*
X105921904Y-173809580D02*
X105874285Y-173857200D01*
X105874285Y-173857200D02*
X105779047Y-173904819D01*
X105779047Y-173904819D02*
X105493333Y-173904819D01*
X105493333Y-173904819D02*
X105398095Y-173857200D01*
X105398095Y-173857200D02*
X105350476Y-173809580D01*
X106826666Y-173238152D02*
X106826666Y-173904819D01*
X106588571Y-172857200D02*
X106350476Y-173571485D01*
X106350476Y-173571485D02*
X106969523Y-173571485D01*
X51145714Y-130304819D02*
X51145714Y-129304819D01*
X51145714Y-129304819D02*
X51383809Y-129304819D01*
X51383809Y-129304819D02*
X51526666Y-129352438D01*
X51526666Y-129352438D02*
X51621904Y-129447676D01*
X51621904Y-129447676D02*
X51669523Y-129542914D01*
X51669523Y-129542914D02*
X51717142Y-129733390D01*
X51717142Y-129733390D02*
X51717142Y-129876247D01*
X51717142Y-129876247D02*
X51669523Y-130066723D01*
X51669523Y-130066723D02*
X51621904Y-130161961D01*
X51621904Y-130161961D02*
X51526666Y-130257200D01*
X51526666Y-130257200D02*
X51383809Y-130304819D01*
X51383809Y-130304819D02*
X51145714Y-130304819D01*
X52669523Y-130304819D02*
X52098095Y-130304819D01*
X52383809Y-130304819D02*
X52383809Y-129304819D01*
X52383809Y-129304819D02*
X52288571Y-129447676D01*
X52288571Y-129447676D02*
X52193333Y-129542914D01*
X52193333Y-129542914D02*
X52098095Y-129590533D01*
X53621904Y-130304819D02*
X53050476Y-130304819D01*
X53336190Y-130304819D02*
X53336190Y-129304819D01*
X53336190Y-129304819D02*
X53240952Y-129447676D01*
X53240952Y-129447676D02*
X53145714Y-129542914D01*
X53145714Y-129542914D02*
X53050476Y-129590533D01*
X120920476Y-172681200D02*
X121063333Y-172728819D01*
X121063333Y-172728819D02*
X121301428Y-172728819D01*
X121301428Y-172728819D02*
X121396666Y-172681200D01*
X121396666Y-172681200D02*
X121444285Y-172633580D01*
X121444285Y-172633580D02*
X121491904Y-172538342D01*
X121491904Y-172538342D02*
X121491904Y-172443104D01*
X121491904Y-172443104D02*
X121444285Y-172347866D01*
X121444285Y-172347866D02*
X121396666Y-172300247D01*
X121396666Y-172300247D02*
X121301428Y-172252628D01*
X121301428Y-172252628D02*
X121110952Y-172205009D01*
X121110952Y-172205009D02*
X121015714Y-172157390D01*
X121015714Y-172157390D02*
X120968095Y-172109771D01*
X120968095Y-172109771D02*
X120920476Y-172014533D01*
X120920476Y-172014533D02*
X120920476Y-171919295D01*
X120920476Y-171919295D02*
X120968095Y-171824057D01*
X120968095Y-171824057D02*
X121015714Y-171776438D01*
X121015714Y-171776438D02*
X121110952Y-171728819D01*
X121110952Y-171728819D02*
X121349047Y-171728819D01*
X121349047Y-171728819D02*
X121491904Y-171776438D01*
X121825238Y-171728819D02*
X122063333Y-172728819D01*
X122063333Y-172728819D02*
X122253809Y-172014533D01*
X122253809Y-172014533D02*
X122444285Y-172728819D01*
X122444285Y-172728819D02*
X122682381Y-171728819D01*
X122968095Y-171728819D02*
X123587142Y-171728819D01*
X123587142Y-171728819D02*
X123253809Y-172109771D01*
X123253809Y-172109771D02*
X123396666Y-172109771D01*
X123396666Y-172109771D02*
X123491904Y-172157390D01*
X123491904Y-172157390D02*
X123539523Y-172205009D01*
X123539523Y-172205009D02*
X123587142Y-172300247D01*
X123587142Y-172300247D02*
X123587142Y-172538342D01*
X123587142Y-172538342D02*
X123539523Y-172633580D01*
X123539523Y-172633580D02*
X123491904Y-172681200D01*
X123491904Y-172681200D02*
X123396666Y-172728819D01*
X123396666Y-172728819D02*
X123110952Y-172728819D01*
X123110952Y-172728819D02*
X123015714Y-172681200D01*
X123015714Y-172681200D02*
X122968095Y-172633580D01*
X124491904Y-171728819D02*
X124015714Y-171728819D01*
X124015714Y-171728819D02*
X123968095Y-172205009D01*
X123968095Y-172205009D02*
X124015714Y-172157390D01*
X124015714Y-172157390D02*
X124110952Y-172109771D01*
X124110952Y-172109771D02*
X124349047Y-172109771D01*
X124349047Y-172109771D02*
X124444285Y-172157390D01*
X124444285Y-172157390D02*
X124491904Y-172205009D01*
X124491904Y-172205009D02*
X124539523Y-172300247D01*
X124539523Y-172300247D02*
X124539523Y-172538342D01*
X124539523Y-172538342D02*
X124491904Y-172633580D01*
X124491904Y-172633580D02*
X124444285Y-172681200D01*
X124444285Y-172681200D02*
X124349047Y-172728819D01*
X124349047Y-172728819D02*
X124110952Y-172728819D01*
X124110952Y-172728819D02*
X124015714Y-172681200D01*
X124015714Y-172681200D02*
X123968095Y-172633580D01*
X123745714Y-173804819D02*
X123745714Y-172804819D01*
X123745714Y-172804819D02*
X123983809Y-172804819D01*
X123983809Y-172804819D02*
X124126666Y-172852438D01*
X124126666Y-172852438D02*
X124221904Y-172947676D01*
X124221904Y-172947676D02*
X124269523Y-173042914D01*
X124269523Y-173042914D02*
X124317142Y-173233390D01*
X124317142Y-173233390D02*
X124317142Y-173376247D01*
X124317142Y-173376247D02*
X124269523Y-173566723D01*
X124269523Y-173566723D02*
X124221904Y-173661961D01*
X124221904Y-173661961D02*
X124126666Y-173757200D01*
X124126666Y-173757200D02*
X123983809Y-173804819D01*
X123983809Y-173804819D02*
X123745714Y-173804819D01*
X124650476Y-172804819D02*
X125269523Y-172804819D01*
X125269523Y-172804819D02*
X124936190Y-173185771D01*
X124936190Y-173185771D02*
X125079047Y-173185771D01*
X125079047Y-173185771D02*
X125174285Y-173233390D01*
X125174285Y-173233390D02*
X125221904Y-173281009D01*
X125221904Y-173281009D02*
X125269523Y-173376247D01*
X125269523Y-173376247D02*
X125269523Y-173614342D01*
X125269523Y-173614342D02*
X125221904Y-173709580D01*
X125221904Y-173709580D02*
X125174285Y-173757200D01*
X125174285Y-173757200D02*
X125079047Y-173804819D01*
X125079047Y-173804819D02*
X124793333Y-173804819D01*
X124793333Y-173804819D02*
X124698095Y-173757200D01*
X124698095Y-173757200D02*
X124650476Y-173709580D01*
X126174285Y-172804819D02*
X125698095Y-172804819D01*
X125698095Y-172804819D02*
X125650476Y-173281009D01*
X125650476Y-173281009D02*
X125698095Y-173233390D01*
X125698095Y-173233390D02*
X125793333Y-173185771D01*
X125793333Y-173185771D02*
X126031428Y-173185771D01*
X126031428Y-173185771D02*
X126126666Y-173233390D01*
X126126666Y-173233390D02*
X126174285Y-173281009D01*
X126174285Y-173281009D02*
X126221904Y-173376247D01*
X126221904Y-173376247D02*
X126221904Y-173614342D01*
X126221904Y-173614342D02*
X126174285Y-173709580D01*
X126174285Y-173709580D02*
X126126666Y-173757200D01*
X126126666Y-173757200D02*
X126031428Y-173804819D01*
X126031428Y-173804819D02*
X125793333Y-173804819D01*
X125793333Y-173804819D02*
X125698095Y-173757200D01*
X125698095Y-173757200D02*
X125650476Y-173709580D01*
X194935714Y-130304819D02*
X194935714Y-129304819D01*
X194935714Y-129304819D02*
X195173809Y-129304819D01*
X195173809Y-129304819D02*
X195316666Y-129352438D01*
X195316666Y-129352438D02*
X195411904Y-129447676D01*
X195411904Y-129447676D02*
X195459523Y-129542914D01*
X195459523Y-129542914D02*
X195507142Y-129733390D01*
X195507142Y-129733390D02*
X195507142Y-129876247D01*
X195507142Y-129876247D02*
X195459523Y-130066723D01*
X195459523Y-130066723D02*
X195411904Y-130161961D01*
X195411904Y-130161961D02*
X195316666Y-130257200D01*
X195316666Y-130257200D02*
X195173809Y-130304819D01*
X195173809Y-130304819D02*
X194935714Y-130304819D01*
X196459523Y-130304819D02*
X195888095Y-130304819D01*
X196173809Y-130304819D02*
X196173809Y-129304819D01*
X196173809Y-129304819D02*
X196078571Y-129447676D01*
X196078571Y-129447676D02*
X195983333Y-129542914D01*
X195983333Y-129542914D02*
X195888095Y-129590533D01*
X197316666Y-129304819D02*
X197126190Y-129304819D01*
X197126190Y-129304819D02*
X197030952Y-129352438D01*
X197030952Y-129352438D02*
X196983333Y-129400057D01*
X196983333Y-129400057D02*
X196888095Y-129542914D01*
X196888095Y-129542914D02*
X196840476Y-129733390D01*
X196840476Y-129733390D02*
X196840476Y-130114342D01*
X196840476Y-130114342D02*
X196888095Y-130209580D01*
X196888095Y-130209580D02*
X196935714Y-130257200D01*
X196935714Y-130257200D02*
X197030952Y-130304819D01*
X197030952Y-130304819D02*
X197221428Y-130304819D01*
X197221428Y-130304819D02*
X197316666Y-130257200D01*
X197316666Y-130257200D02*
X197364285Y-130209580D01*
X197364285Y-130209580D02*
X197411904Y-130114342D01*
X197411904Y-130114342D02*
X197411904Y-129876247D01*
X197411904Y-129876247D02*
X197364285Y-129781009D01*
X197364285Y-129781009D02*
X197316666Y-129733390D01*
X197316666Y-129733390D02*
X197221428Y-129685771D01*
X197221428Y-129685771D02*
X197030952Y-129685771D01*
X197030952Y-129685771D02*
X196935714Y-129733390D01*
X196935714Y-129733390D02*
X196888095Y-129781009D01*
X196888095Y-129781009D02*
X196840476Y-129876247D01*
X210535714Y-150254819D02*
X210535714Y-149254819D01*
X210535714Y-149254819D02*
X210773809Y-149254819D01*
X210773809Y-149254819D02*
X210916666Y-149302438D01*
X210916666Y-149302438D02*
X211011904Y-149397676D01*
X211011904Y-149397676D02*
X211059523Y-149492914D01*
X211059523Y-149492914D02*
X211107142Y-149683390D01*
X211107142Y-149683390D02*
X211107142Y-149826247D01*
X211107142Y-149826247D02*
X211059523Y-150016723D01*
X211059523Y-150016723D02*
X211011904Y-150111961D01*
X211011904Y-150111961D02*
X210916666Y-150207200D01*
X210916666Y-150207200D02*
X210773809Y-150254819D01*
X210773809Y-150254819D02*
X210535714Y-150254819D01*
X211488095Y-149350057D02*
X211535714Y-149302438D01*
X211535714Y-149302438D02*
X211630952Y-149254819D01*
X211630952Y-149254819D02*
X211869047Y-149254819D01*
X211869047Y-149254819D02*
X211964285Y-149302438D01*
X211964285Y-149302438D02*
X212011904Y-149350057D01*
X212011904Y-149350057D02*
X212059523Y-149445295D01*
X212059523Y-149445295D02*
X212059523Y-149540533D01*
X212059523Y-149540533D02*
X212011904Y-149683390D01*
X212011904Y-149683390D02*
X211440476Y-150254819D01*
X211440476Y-150254819D02*
X212059523Y-150254819D01*
X212392857Y-149254819D02*
X213059523Y-149254819D01*
X213059523Y-149254819D02*
X212630952Y-150254819D01*
X169910476Y-172681200D02*
X170053333Y-172728819D01*
X170053333Y-172728819D02*
X170291428Y-172728819D01*
X170291428Y-172728819D02*
X170386666Y-172681200D01*
X170386666Y-172681200D02*
X170434285Y-172633580D01*
X170434285Y-172633580D02*
X170481904Y-172538342D01*
X170481904Y-172538342D02*
X170481904Y-172443104D01*
X170481904Y-172443104D02*
X170434285Y-172347866D01*
X170434285Y-172347866D02*
X170386666Y-172300247D01*
X170386666Y-172300247D02*
X170291428Y-172252628D01*
X170291428Y-172252628D02*
X170100952Y-172205009D01*
X170100952Y-172205009D02*
X170005714Y-172157390D01*
X170005714Y-172157390D02*
X169958095Y-172109771D01*
X169958095Y-172109771D02*
X169910476Y-172014533D01*
X169910476Y-172014533D02*
X169910476Y-171919295D01*
X169910476Y-171919295D02*
X169958095Y-171824057D01*
X169958095Y-171824057D02*
X170005714Y-171776438D01*
X170005714Y-171776438D02*
X170100952Y-171728819D01*
X170100952Y-171728819D02*
X170339047Y-171728819D01*
X170339047Y-171728819D02*
X170481904Y-171776438D01*
X170815238Y-171728819D02*
X171053333Y-172728819D01*
X171053333Y-172728819D02*
X171243809Y-172014533D01*
X171243809Y-172014533D02*
X171434285Y-172728819D01*
X171434285Y-172728819D02*
X171672381Y-171728819D01*
X172481904Y-172062152D02*
X172481904Y-172728819D01*
X172243809Y-171681200D02*
X172005714Y-172395485D01*
X172005714Y-172395485D02*
X172624761Y-172395485D01*
X172958095Y-171824057D02*
X173005714Y-171776438D01*
X173005714Y-171776438D02*
X173100952Y-171728819D01*
X173100952Y-171728819D02*
X173339047Y-171728819D01*
X173339047Y-171728819D02*
X173434285Y-171776438D01*
X173434285Y-171776438D02*
X173481904Y-171824057D01*
X173481904Y-171824057D02*
X173529523Y-171919295D01*
X173529523Y-171919295D02*
X173529523Y-172014533D01*
X173529523Y-172014533D02*
X173481904Y-172157390D01*
X173481904Y-172157390D02*
X172910476Y-172728819D01*
X172910476Y-172728819D02*
X173529523Y-172728819D01*
X105121905Y-102704819D02*
X105121905Y-101704819D01*
X105121905Y-101704819D02*
X105360000Y-101704819D01*
X105360000Y-101704819D02*
X105502857Y-101752438D01*
X105502857Y-101752438D02*
X105598095Y-101847676D01*
X105598095Y-101847676D02*
X105645714Y-101942914D01*
X105645714Y-101942914D02*
X105693333Y-102133390D01*
X105693333Y-102133390D02*
X105693333Y-102276247D01*
X105693333Y-102276247D02*
X105645714Y-102466723D01*
X105645714Y-102466723D02*
X105598095Y-102561961D01*
X105598095Y-102561961D02*
X105502857Y-102657200D01*
X105502857Y-102657200D02*
X105360000Y-102704819D01*
X105360000Y-102704819D02*
X105121905Y-102704819D01*
X106550476Y-101704819D02*
X106360000Y-101704819D01*
X106360000Y-101704819D02*
X106264762Y-101752438D01*
X106264762Y-101752438D02*
X106217143Y-101800057D01*
X106217143Y-101800057D02*
X106121905Y-101942914D01*
X106121905Y-101942914D02*
X106074286Y-102133390D01*
X106074286Y-102133390D02*
X106074286Y-102514342D01*
X106074286Y-102514342D02*
X106121905Y-102609580D01*
X106121905Y-102609580D02*
X106169524Y-102657200D01*
X106169524Y-102657200D02*
X106264762Y-102704819D01*
X106264762Y-102704819D02*
X106455238Y-102704819D01*
X106455238Y-102704819D02*
X106550476Y-102657200D01*
X106550476Y-102657200D02*
X106598095Y-102609580D01*
X106598095Y-102609580D02*
X106645714Y-102514342D01*
X106645714Y-102514342D02*
X106645714Y-102276247D01*
X106645714Y-102276247D02*
X106598095Y-102181009D01*
X106598095Y-102181009D02*
X106550476Y-102133390D01*
X106550476Y-102133390D02*
X106455238Y-102085771D01*
X106455238Y-102085771D02*
X106264762Y-102085771D01*
X106264762Y-102085771D02*
X106169524Y-102133390D01*
X106169524Y-102133390D02*
X106121905Y-102181009D01*
X106121905Y-102181009D02*
X106074286Y-102276247D01*
X189396667Y-100531200D02*
X189539524Y-100578819D01*
X189539524Y-100578819D02*
X189777619Y-100578819D01*
X189777619Y-100578819D02*
X189872857Y-100531200D01*
X189872857Y-100531200D02*
X189920476Y-100483580D01*
X189920476Y-100483580D02*
X189968095Y-100388342D01*
X189968095Y-100388342D02*
X189968095Y-100293104D01*
X189968095Y-100293104D02*
X189920476Y-100197866D01*
X189920476Y-100197866D02*
X189872857Y-100150247D01*
X189872857Y-100150247D02*
X189777619Y-100102628D01*
X189777619Y-100102628D02*
X189587143Y-100055009D01*
X189587143Y-100055009D02*
X189491905Y-100007390D01*
X189491905Y-100007390D02*
X189444286Y-99959771D01*
X189444286Y-99959771D02*
X189396667Y-99864533D01*
X189396667Y-99864533D02*
X189396667Y-99769295D01*
X189396667Y-99769295D02*
X189444286Y-99674057D01*
X189444286Y-99674057D02*
X189491905Y-99626438D01*
X189491905Y-99626438D02*
X189587143Y-99578819D01*
X189587143Y-99578819D02*
X189825238Y-99578819D01*
X189825238Y-99578819D02*
X189968095Y-99626438D01*
X190301429Y-99578819D02*
X190539524Y-100578819D01*
X190539524Y-100578819D02*
X190730000Y-99864533D01*
X190730000Y-99864533D02*
X190920476Y-100578819D01*
X190920476Y-100578819D02*
X191158572Y-99578819D01*
X191491905Y-99674057D02*
X191539524Y-99626438D01*
X191539524Y-99626438D02*
X191634762Y-99578819D01*
X191634762Y-99578819D02*
X191872857Y-99578819D01*
X191872857Y-99578819D02*
X191968095Y-99626438D01*
X191968095Y-99626438D02*
X192015714Y-99674057D01*
X192015714Y-99674057D02*
X192063333Y-99769295D01*
X192063333Y-99769295D02*
X192063333Y-99864533D01*
X192063333Y-99864533D02*
X192015714Y-100007390D01*
X192015714Y-100007390D02*
X191444286Y-100578819D01*
X191444286Y-100578819D02*
X192063333Y-100578819D01*
X207920476Y-148631200D02*
X208063333Y-148678819D01*
X208063333Y-148678819D02*
X208301428Y-148678819D01*
X208301428Y-148678819D02*
X208396666Y-148631200D01*
X208396666Y-148631200D02*
X208444285Y-148583580D01*
X208444285Y-148583580D02*
X208491904Y-148488342D01*
X208491904Y-148488342D02*
X208491904Y-148393104D01*
X208491904Y-148393104D02*
X208444285Y-148297866D01*
X208444285Y-148297866D02*
X208396666Y-148250247D01*
X208396666Y-148250247D02*
X208301428Y-148202628D01*
X208301428Y-148202628D02*
X208110952Y-148155009D01*
X208110952Y-148155009D02*
X208015714Y-148107390D01*
X208015714Y-148107390D02*
X207968095Y-148059771D01*
X207968095Y-148059771D02*
X207920476Y-147964533D01*
X207920476Y-147964533D02*
X207920476Y-147869295D01*
X207920476Y-147869295D02*
X207968095Y-147774057D01*
X207968095Y-147774057D02*
X208015714Y-147726438D01*
X208015714Y-147726438D02*
X208110952Y-147678819D01*
X208110952Y-147678819D02*
X208349047Y-147678819D01*
X208349047Y-147678819D02*
X208491904Y-147726438D01*
X208825238Y-147678819D02*
X209063333Y-148678819D01*
X209063333Y-148678819D02*
X209253809Y-147964533D01*
X209253809Y-147964533D02*
X209444285Y-148678819D01*
X209444285Y-148678819D02*
X209682381Y-147678819D01*
X210015714Y-147774057D02*
X210063333Y-147726438D01*
X210063333Y-147726438D02*
X210158571Y-147678819D01*
X210158571Y-147678819D02*
X210396666Y-147678819D01*
X210396666Y-147678819D02*
X210491904Y-147726438D01*
X210491904Y-147726438D02*
X210539523Y-147774057D01*
X210539523Y-147774057D02*
X210587142Y-147869295D01*
X210587142Y-147869295D02*
X210587142Y-147964533D01*
X210587142Y-147964533D02*
X210539523Y-148107390D01*
X210539523Y-148107390D02*
X209968095Y-148678819D01*
X209968095Y-148678819D02*
X210587142Y-148678819D01*
X210920476Y-147678819D02*
X211587142Y-147678819D01*
X211587142Y-147678819D02*
X211158571Y-148678819D01*
X123645714Y-126304819D02*
X123645714Y-125304819D01*
X123645714Y-125304819D02*
X123883809Y-125304819D01*
X123883809Y-125304819D02*
X124026666Y-125352438D01*
X124026666Y-125352438D02*
X124121904Y-125447676D01*
X124121904Y-125447676D02*
X124169523Y-125542914D01*
X124169523Y-125542914D02*
X124217142Y-125733390D01*
X124217142Y-125733390D02*
X124217142Y-125876247D01*
X124217142Y-125876247D02*
X124169523Y-126066723D01*
X124169523Y-126066723D02*
X124121904Y-126161961D01*
X124121904Y-126161961D02*
X124026666Y-126257200D01*
X124026666Y-126257200D02*
X123883809Y-126304819D01*
X123883809Y-126304819D02*
X123645714Y-126304819D01*
X125169523Y-126304819D02*
X124598095Y-126304819D01*
X124883809Y-126304819D02*
X124883809Y-125304819D01*
X124883809Y-125304819D02*
X124788571Y-125447676D01*
X124788571Y-125447676D02*
X124693333Y-125542914D01*
X124693333Y-125542914D02*
X124598095Y-125590533D01*
X126074285Y-125304819D02*
X125598095Y-125304819D01*
X125598095Y-125304819D02*
X125550476Y-125781009D01*
X125550476Y-125781009D02*
X125598095Y-125733390D01*
X125598095Y-125733390D02*
X125693333Y-125685771D01*
X125693333Y-125685771D02*
X125931428Y-125685771D01*
X125931428Y-125685771D02*
X126026666Y-125733390D01*
X126026666Y-125733390D02*
X126074285Y-125781009D01*
X126074285Y-125781009D02*
X126121904Y-125876247D01*
X126121904Y-125876247D02*
X126121904Y-126114342D01*
X126121904Y-126114342D02*
X126074285Y-126209580D01*
X126074285Y-126209580D02*
X126026666Y-126257200D01*
X126026666Y-126257200D02*
X125931428Y-126304819D01*
X125931428Y-126304819D02*
X125693333Y-126304819D01*
X125693333Y-126304819D02*
X125598095Y-126257200D01*
X125598095Y-126257200D02*
X125550476Y-126209580D01*
X226960476Y-148631200D02*
X227103333Y-148678819D01*
X227103333Y-148678819D02*
X227341428Y-148678819D01*
X227341428Y-148678819D02*
X227436666Y-148631200D01*
X227436666Y-148631200D02*
X227484285Y-148583580D01*
X227484285Y-148583580D02*
X227531904Y-148488342D01*
X227531904Y-148488342D02*
X227531904Y-148393104D01*
X227531904Y-148393104D02*
X227484285Y-148297866D01*
X227484285Y-148297866D02*
X227436666Y-148250247D01*
X227436666Y-148250247D02*
X227341428Y-148202628D01*
X227341428Y-148202628D02*
X227150952Y-148155009D01*
X227150952Y-148155009D02*
X227055714Y-148107390D01*
X227055714Y-148107390D02*
X227008095Y-148059771D01*
X227008095Y-148059771D02*
X226960476Y-147964533D01*
X226960476Y-147964533D02*
X226960476Y-147869295D01*
X226960476Y-147869295D02*
X227008095Y-147774057D01*
X227008095Y-147774057D02*
X227055714Y-147726438D01*
X227055714Y-147726438D02*
X227150952Y-147678819D01*
X227150952Y-147678819D02*
X227389047Y-147678819D01*
X227389047Y-147678819D02*
X227531904Y-147726438D01*
X227865238Y-147678819D02*
X228103333Y-148678819D01*
X228103333Y-148678819D02*
X228293809Y-147964533D01*
X228293809Y-147964533D02*
X228484285Y-148678819D01*
X228484285Y-148678819D02*
X228722381Y-147678819D01*
X229055714Y-147774057D02*
X229103333Y-147726438D01*
X229103333Y-147726438D02*
X229198571Y-147678819D01*
X229198571Y-147678819D02*
X229436666Y-147678819D01*
X229436666Y-147678819D02*
X229531904Y-147726438D01*
X229531904Y-147726438D02*
X229579523Y-147774057D01*
X229579523Y-147774057D02*
X229627142Y-147869295D01*
X229627142Y-147869295D02*
X229627142Y-147964533D01*
X229627142Y-147964533D02*
X229579523Y-148107390D01*
X229579523Y-148107390D02*
X229008095Y-148678819D01*
X229008095Y-148678819D02*
X229627142Y-148678819D01*
X230198571Y-148107390D02*
X230103333Y-148059771D01*
X230103333Y-148059771D02*
X230055714Y-148012152D01*
X230055714Y-148012152D02*
X230008095Y-147916914D01*
X230008095Y-147916914D02*
X230008095Y-147869295D01*
X230008095Y-147869295D02*
X230055714Y-147774057D01*
X230055714Y-147774057D02*
X230103333Y-147726438D01*
X230103333Y-147726438D02*
X230198571Y-147678819D01*
X230198571Y-147678819D02*
X230389047Y-147678819D01*
X230389047Y-147678819D02*
X230484285Y-147726438D01*
X230484285Y-147726438D02*
X230531904Y-147774057D01*
X230531904Y-147774057D02*
X230579523Y-147869295D01*
X230579523Y-147869295D02*
X230579523Y-147916914D01*
X230579523Y-147916914D02*
X230531904Y-148012152D01*
X230531904Y-148012152D02*
X230484285Y-148059771D01*
X230484285Y-148059771D02*
X230389047Y-148107390D01*
X230389047Y-148107390D02*
X230198571Y-148107390D01*
X230198571Y-148107390D02*
X230103333Y-148155009D01*
X230103333Y-148155009D02*
X230055714Y-148202628D01*
X230055714Y-148202628D02*
X230008095Y-148297866D01*
X230008095Y-148297866D02*
X230008095Y-148488342D01*
X230008095Y-148488342D02*
X230055714Y-148583580D01*
X230055714Y-148583580D02*
X230103333Y-148631200D01*
X230103333Y-148631200D02*
X230198571Y-148678819D01*
X230198571Y-148678819D02*
X230389047Y-148678819D01*
X230389047Y-148678819D02*
X230484285Y-148631200D01*
X230484285Y-148631200D02*
X230531904Y-148583580D01*
X230531904Y-148583580D02*
X230579523Y-148488342D01*
X230579523Y-148488342D02*
X230579523Y-148297866D01*
X230579523Y-148297866D02*
X230531904Y-148202628D01*
X230531904Y-148202628D02*
X230484285Y-148155009D01*
X230484285Y-148155009D02*
X230389047Y-148107390D01*
D11*
X141997950Y-127110641D02*
X141997950Y-127743948D01*
X141997950Y-127743948D02*
X142035204Y-127818454D01*
X142035204Y-127818454D02*
X142072457Y-127855708D01*
X142072457Y-127855708D02*
X142146964Y-127892961D01*
X142146964Y-127892961D02*
X142295977Y-127892961D01*
X142295977Y-127892961D02*
X142370484Y-127855708D01*
X142370484Y-127855708D02*
X142407737Y-127818454D01*
X142407737Y-127818454D02*
X142444990Y-127743948D01*
X142444990Y-127743948D02*
X142444990Y-127110641D01*
X143227310Y-127892961D02*
X142780270Y-127892961D01*
X143003790Y-127892961D02*
X143003790Y-127110641D01*
X143003790Y-127110641D02*
X142929283Y-127222401D01*
X142929283Y-127222401D02*
X142854777Y-127296908D01*
X142854777Y-127296908D02*
X142780270Y-127334161D01*
D10*
X194935714Y-178054819D02*
X194935714Y-177054819D01*
X194935714Y-177054819D02*
X195173809Y-177054819D01*
X195173809Y-177054819D02*
X195316666Y-177102438D01*
X195316666Y-177102438D02*
X195411904Y-177197676D01*
X195411904Y-177197676D02*
X195459523Y-177292914D01*
X195459523Y-177292914D02*
X195507142Y-177483390D01*
X195507142Y-177483390D02*
X195507142Y-177626247D01*
X195507142Y-177626247D02*
X195459523Y-177816723D01*
X195459523Y-177816723D02*
X195411904Y-177911961D01*
X195411904Y-177911961D02*
X195316666Y-178007200D01*
X195316666Y-178007200D02*
X195173809Y-178054819D01*
X195173809Y-178054819D02*
X194935714Y-178054819D01*
X195840476Y-177054819D02*
X196459523Y-177054819D01*
X196459523Y-177054819D02*
X196126190Y-177435771D01*
X196126190Y-177435771D02*
X196269047Y-177435771D01*
X196269047Y-177435771D02*
X196364285Y-177483390D01*
X196364285Y-177483390D02*
X196411904Y-177531009D01*
X196411904Y-177531009D02*
X196459523Y-177626247D01*
X196459523Y-177626247D02*
X196459523Y-177864342D01*
X196459523Y-177864342D02*
X196411904Y-177959580D01*
X196411904Y-177959580D02*
X196364285Y-178007200D01*
X196364285Y-178007200D02*
X196269047Y-178054819D01*
X196269047Y-178054819D02*
X195983333Y-178054819D01*
X195983333Y-178054819D02*
X195888095Y-178007200D01*
X195888095Y-178007200D02*
X195840476Y-177959580D01*
X197316666Y-177054819D02*
X197126190Y-177054819D01*
X197126190Y-177054819D02*
X197030952Y-177102438D01*
X197030952Y-177102438D02*
X196983333Y-177150057D01*
X196983333Y-177150057D02*
X196888095Y-177292914D01*
X196888095Y-177292914D02*
X196840476Y-177483390D01*
X196840476Y-177483390D02*
X196840476Y-177864342D01*
X196840476Y-177864342D02*
X196888095Y-177959580D01*
X196888095Y-177959580D02*
X196935714Y-178007200D01*
X196935714Y-178007200D02*
X197030952Y-178054819D01*
X197030952Y-178054819D02*
X197221428Y-178054819D01*
X197221428Y-178054819D02*
X197316666Y-178007200D01*
X197316666Y-178007200D02*
X197364285Y-177959580D01*
X197364285Y-177959580D02*
X197411904Y-177864342D01*
X197411904Y-177864342D02*
X197411904Y-177626247D01*
X197411904Y-177626247D02*
X197364285Y-177531009D01*
X197364285Y-177531009D02*
X197316666Y-177483390D01*
X197316666Y-177483390D02*
X197221428Y-177435771D01*
X197221428Y-177435771D02*
X197030952Y-177435771D01*
X197030952Y-177435771D02*
X196935714Y-177483390D01*
X196935714Y-177483390D02*
X196888095Y-177531009D01*
X196888095Y-177531009D02*
X196840476Y-177626247D01*
X63880476Y-124581200D02*
X64023333Y-124628819D01*
X64023333Y-124628819D02*
X64261428Y-124628819D01*
X64261428Y-124628819D02*
X64356666Y-124581200D01*
X64356666Y-124581200D02*
X64404285Y-124533580D01*
X64404285Y-124533580D02*
X64451904Y-124438342D01*
X64451904Y-124438342D02*
X64451904Y-124343104D01*
X64451904Y-124343104D02*
X64404285Y-124247866D01*
X64404285Y-124247866D02*
X64356666Y-124200247D01*
X64356666Y-124200247D02*
X64261428Y-124152628D01*
X64261428Y-124152628D02*
X64070952Y-124105009D01*
X64070952Y-124105009D02*
X63975714Y-124057390D01*
X63975714Y-124057390D02*
X63928095Y-124009771D01*
X63928095Y-124009771D02*
X63880476Y-123914533D01*
X63880476Y-123914533D02*
X63880476Y-123819295D01*
X63880476Y-123819295D02*
X63928095Y-123724057D01*
X63928095Y-123724057D02*
X63975714Y-123676438D01*
X63975714Y-123676438D02*
X64070952Y-123628819D01*
X64070952Y-123628819D02*
X64309047Y-123628819D01*
X64309047Y-123628819D02*
X64451904Y-123676438D01*
X64785238Y-123628819D02*
X65023333Y-124628819D01*
X65023333Y-124628819D02*
X65213809Y-123914533D01*
X65213809Y-123914533D02*
X65404285Y-124628819D01*
X65404285Y-124628819D02*
X65642381Y-123628819D01*
X66547142Y-124628819D02*
X65975714Y-124628819D01*
X66261428Y-124628819D02*
X66261428Y-123628819D01*
X66261428Y-123628819D02*
X66166190Y-123771676D01*
X66166190Y-123771676D02*
X66070952Y-123866914D01*
X66070952Y-123866914D02*
X65975714Y-123914533D01*
X66928095Y-123724057D02*
X66975714Y-123676438D01*
X66975714Y-123676438D02*
X67070952Y-123628819D01*
X67070952Y-123628819D02*
X67309047Y-123628819D01*
X67309047Y-123628819D02*
X67404285Y-123676438D01*
X67404285Y-123676438D02*
X67451904Y-123724057D01*
X67451904Y-123724057D02*
X67499523Y-123819295D01*
X67499523Y-123819295D02*
X67499523Y-123914533D01*
X67499523Y-123914533D02*
X67451904Y-124057390D01*
X67451904Y-124057390D02*
X66880476Y-124628819D01*
X66880476Y-124628819D02*
X67499523Y-124628819D01*
X104745714Y-150304819D02*
X104745714Y-149304819D01*
X104745714Y-149304819D02*
X104983809Y-149304819D01*
X104983809Y-149304819D02*
X105126666Y-149352438D01*
X105126666Y-149352438D02*
X105221904Y-149447676D01*
X105221904Y-149447676D02*
X105269523Y-149542914D01*
X105269523Y-149542914D02*
X105317142Y-149733390D01*
X105317142Y-149733390D02*
X105317142Y-149876247D01*
X105317142Y-149876247D02*
X105269523Y-150066723D01*
X105269523Y-150066723D02*
X105221904Y-150161961D01*
X105221904Y-150161961D02*
X105126666Y-150257200D01*
X105126666Y-150257200D02*
X104983809Y-150304819D01*
X104983809Y-150304819D02*
X104745714Y-150304819D01*
X105698095Y-149400057D02*
X105745714Y-149352438D01*
X105745714Y-149352438D02*
X105840952Y-149304819D01*
X105840952Y-149304819D02*
X106079047Y-149304819D01*
X106079047Y-149304819D02*
X106174285Y-149352438D01*
X106174285Y-149352438D02*
X106221904Y-149400057D01*
X106221904Y-149400057D02*
X106269523Y-149495295D01*
X106269523Y-149495295D02*
X106269523Y-149590533D01*
X106269523Y-149590533D02*
X106221904Y-149733390D01*
X106221904Y-149733390D02*
X105650476Y-150304819D01*
X105650476Y-150304819D02*
X106269523Y-150304819D01*
X107126666Y-149638152D02*
X107126666Y-150304819D01*
X106888571Y-149257200D02*
X106650476Y-149971485D01*
X106650476Y-149971485D02*
X107269523Y-149971485D01*
X249161905Y-102204819D02*
X249161905Y-101204819D01*
X249161905Y-101204819D02*
X249400000Y-101204819D01*
X249400000Y-101204819D02*
X249542857Y-101252438D01*
X249542857Y-101252438D02*
X249638095Y-101347676D01*
X249638095Y-101347676D02*
X249685714Y-101442914D01*
X249685714Y-101442914D02*
X249733333Y-101633390D01*
X249733333Y-101633390D02*
X249733333Y-101776247D01*
X249733333Y-101776247D02*
X249685714Y-101966723D01*
X249685714Y-101966723D02*
X249638095Y-102061961D01*
X249638095Y-102061961D02*
X249542857Y-102157200D01*
X249542857Y-102157200D02*
X249400000Y-102204819D01*
X249400000Y-102204819D02*
X249161905Y-102204819D01*
X250304762Y-101633390D02*
X250209524Y-101585771D01*
X250209524Y-101585771D02*
X250161905Y-101538152D01*
X250161905Y-101538152D02*
X250114286Y-101442914D01*
X250114286Y-101442914D02*
X250114286Y-101395295D01*
X250114286Y-101395295D02*
X250161905Y-101300057D01*
X250161905Y-101300057D02*
X250209524Y-101252438D01*
X250209524Y-101252438D02*
X250304762Y-101204819D01*
X250304762Y-101204819D02*
X250495238Y-101204819D01*
X250495238Y-101204819D02*
X250590476Y-101252438D01*
X250590476Y-101252438D02*
X250638095Y-101300057D01*
X250638095Y-101300057D02*
X250685714Y-101395295D01*
X250685714Y-101395295D02*
X250685714Y-101442914D01*
X250685714Y-101442914D02*
X250638095Y-101538152D01*
X250638095Y-101538152D02*
X250590476Y-101585771D01*
X250590476Y-101585771D02*
X250495238Y-101633390D01*
X250495238Y-101633390D02*
X250304762Y-101633390D01*
X250304762Y-101633390D02*
X250209524Y-101681009D01*
X250209524Y-101681009D02*
X250161905Y-101728628D01*
X250161905Y-101728628D02*
X250114286Y-101823866D01*
X250114286Y-101823866D02*
X250114286Y-102014342D01*
X250114286Y-102014342D02*
X250161905Y-102109580D01*
X250161905Y-102109580D02*
X250209524Y-102157200D01*
X250209524Y-102157200D02*
X250304762Y-102204819D01*
X250304762Y-102204819D02*
X250495238Y-102204819D01*
X250495238Y-102204819D02*
X250590476Y-102157200D01*
X250590476Y-102157200D02*
X250638095Y-102109580D01*
X250638095Y-102109580D02*
X250685714Y-102014342D01*
X250685714Y-102014342D02*
X250685714Y-101823866D01*
X250685714Y-101823866D02*
X250638095Y-101728628D01*
X250638095Y-101728628D02*
X250590476Y-101681009D01*
X250590476Y-101681009D02*
X250495238Y-101633390D01*
X267685714Y-174254819D02*
X267685714Y-173254819D01*
X267685714Y-173254819D02*
X267923809Y-173254819D01*
X267923809Y-173254819D02*
X268066666Y-173302438D01*
X268066666Y-173302438D02*
X268161904Y-173397676D01*
X268161904Y-173397676D02*
X268209523Y-173492914D01*
X268209523Y-173492914D02*
X268257142Y-173683390D01*
X268257142Y-173683390D02*
X268257142Y-173826247D01*
X268257142Y-173826247D02*
X268209523Y-174016723D01*
X268209523Y-174016723D02*
X268161904Y-174111961D01*
X268161904Y-174111961D02*
X268066666Y-174207200D01*
X268066666Y-174207200D02*
X267923809Y-174254819D01*
X267923809Y-174254819D02*
X267685714Y-174254819D01*
X269114285Y-173588152D02*
X269114285Y-174254819D01*
X268876190Y-173207200D02*
X268638095Y-173921485D01*
X268638095Y-173921485D02*
X269257142Y-173921485D01*
X269828571Y-173254819D02*
X269923809Y-173254819D01*
X269923809Y-173254819D02*
X270019047Y-173302438D01*
X270019047Y-173302438D02*
X270066666Y-173350057D01*
X270066666Y-173350057D02*
X270114285Y-173445295D01*
X270114285Y-173445295D02*
X270161904Y-173635771D01*
X270161904Y-173635771D02*
X270161904Y-173873866D01*
X270161904Y-173873866D02*
X270114285Y-174064342D01*
X270114285Y-174064342D02*
X270066666Y-174159580D01*
X270066666Y-174159580D02*
X270019047Y-174207200D01*
X270019047Y-174207200D02*
X269923809Y-174254819D01*
X269923809Y-174254819D02*
X269828571Y-174254819D01*
X269828571Y-174254819D02*
X269733333Y-174207200D01*
X269733333Y-174207200D02*
X269685714Y-174159580D01*
X269685714Y-174159580D02*
X269638095Y-174064342D01*
X269638095Y-174064342D02*
X269590476Y-173873866D01*
X269590476Y-173873866D02*
X269590476Y-173635771D01*
X269590476Y-173635771D02*
X269638095Y-173445295D01*
X269638095Y-173445295D02*
X269685714Y-173350057D01*
X269685714Y-173350057D02*
X269733333Y-173302438D01*
X269733333Y-173302438D02*
X269828571Y-173254819D01*
X47645714Y-174004819D02*
X47645714Y-173004819D01*
X47645714Y-173004819D02*
X47883809Y-173004819D01*
X47883809Y-173004819D02*
X48026666Y-173052438D01*
X48026666Y-173052438D02*
X48121904Y-173147676D01*
X48121904Y-173147676D02*
X48169523Y-173242914D01*
X48169523Y-173242914D02*
X48217142Y-173433390D01*
X48217142Y-173433390D02*
X48217142Y-173576247D01*
X48217142Y-173576247D02*
X48169523Y-173766723D01*
X48169523Y-173766723D02*
X48121904Y-173861961D01*
X48121904Y-173861961D02*
X48026666Y-173957200D01*
X48026666Y-173957200D02*
X47883809Y-174004819D01*
X47883809Y-174004819D02*
X47645714Y-174004819D01*
X48550476Y-173004819D02*
X49169523Y-173004819D01*
X49169523Y-173004819D02*
X48836190Y-173385771D01*
X48836190Y-173385771D02*
X48979047Y-173385771D01*
X48979047Y-173385771D02*
X49074285Y-173433390D01*
X49074285Y-173433390D02*
X49121904Y-173481009D01*
X49121904Y-173481009D02*
X49169523Y-173576247D01*
X49169523Y-173576247D02*
X49169523Y-173814342D01*
X49169523Y-173814342D02*
X49121904Y-173909580D01*
X49121904Y-173909580D02*
X49074285Y-173957200D01*
X49074285Y-173957200D02*
X48979047Y-174004819D01*
X48979047Y-174004819D02*
X48693333Y-174004819D01*
X48693333Y-174004819D02*
X48598095Y-173957200D01*
X48598095Y-173957200D02*
X48550476Y-173909580D01*
X50121904Y-174004819D02*
X49550476Y-174004819D01*
X49836190Y-174004819D02*
X49836190Y-173004819D01*
X49836190Y-173004819D02*
X49740952Y-173147676D01*
X49740952Y-173147676D02*
X49645714Y-173242914D01*
X49645714Y-173242914D02*
X49550476Y-173290533D01*
X51421905Y-106304819D02*
X51421905Y-105304819D01*
X51421905Y-105304819D02*
X51660000Y-105304819D01*
X51660000Y-105304819D02*
X51802857Y-105352438D01*
X51802857Y-105352438D02*
X51898095Y-105447676D01*
X51898095Y-105447676D02*
X51945714Y-105542914D01*
X51945714Y-105542914D02*
X51993333Y-105733390D01*
X51993333Y-105733390D02*
X51993333Y-105876247D01*
X51993333Y-105876247D02*
X51945714Y-106066723D01*
X51945714Y-106066723D02*
X51898095Y-106161961D01*
X51898095Y-106161961D02*
X51802857Y-106257200D01*
X51802857Y-106257200D02*
X51660000Y-106304819D01*
X51660000Y-106304819D02*
X51421905Y-106304819D01*
X52945714Y-106304819D02*
X52374286Y-106304819D01*
X52660000Y-106304819D02*
X52660000Y-105304819D01*
X52660000Y-105304819D02*
X52564762Y-105447676D01*
X52564762Y-105447676D02*
X52469524Y-105542914D01*
X52469524Y-105542914D02*
X52374286Y-105590533D01*
X245960476Y-148631200D02*
X246103333Y-148678819D01*
X246103333Y-148678819D02*
X246341428Y-148678819D01*
X246341428Y-148678819D02*
X246436666Y-148631200D01*
X246436666Y-148631200D02*
X246484285Y-148583580D01*
X246484285Y-148583580D02*
X246531904Y-148488342D01*
X246531904Y-148488342D02*
X246531904Y-148393104D01*
X246531904Y-148393104D02*
X246484285Y-148297866D01*
X246484285Y-148297866D02*
X246436666Y-148250247D01*
X246436666Y-148250247D02*
X246341428Y-148202628D01*
X246341428Y-148202628D02*
X246150952Y-148155009D01*
X246150952Y-148155009D02*
X246055714Y-148107390D01*
X246055714Y-148107390D02*
X246008095Y-148059771D01*
X246008095Y-148059771D02*
X245960476Y-147964533D01*
X245960476Y-147964533D02*
X245960476Y-147869295D01*
X245960476Y-147869295D02*
X246008095Y-147774057D01*
X246008095Y-147774057D02*
X246055714Y-147726438D01*
X246055714Y-147726438D02*
X246150952Y-147678819D01*
X246150952Y-147678819D02*
X246389047Y-147678819D01*
X246389047Y-147678819D02*
X246531904Y-147726438D01*
X246865238Y-147678819D02*
X247103333Y-148678819D01*
X247103333Y-148678819D02*
X247293809Y-147964533D01*
X247293809Y-147964533D02*
X247484285Y-148678819D01*
X247484285Y-148678819D02*
X247722381Y-147678819D01*
X248055714Y-147774057D02*
X248103333Y-147726438D01*
X248103333Y-147726438D02*
X248198571Y-147678819D01*
X248198571Y-147678819D02*
X248436666Y-147678819D01*
X248436666Y-147678819D02*
X248531904Y-147726438D01*
X248531904Y-147726438D02*
X248579523Y-147774057D01*
X248579523Y-147774057D02*
X248627142Y-147869295D01*
X248627142Y-147869295D02*
X248627142Y-147964533D01*
X248627142Y-147964533D02*
X248579523Y-148107390D01*
X248579523Y-148107390D02*
X248008095Y-148678819D01*
X248008095Y-148678819D02*
X248627142Y-148678819D01*
X249103333Y-148678819D02*
X249293809Y-148678819D01*
X249293809Y-148678819D02*
X249389047Y-148631200D01*
X249389047Y-148631200D02*
X249436666Y-148583580D01*
X249436666Y-148583580D02*
X249531904Y-148440723D01*
X249531904Y-148440723D02*
X249579523Y-148250247D01*
X249579523Y-148250247D02*
X249579523Y-147869295D01*
X249579523Y-147869295D02*
X249531904Y-147774057D01*
X249531904Y-147774057D02*
X249484285Y-147726438D01*
X249484285Y-147726438D02*
X249389047Y-147678819D01*
X249389047Y-147678819D02*
X249198571Y-147678819D01*
X249198571Y-147678819D02*
X249103333Y-147726438D01*
X249103333Y-147726438D02*
X249055714Y-147774057D01*
X249055714Y-147774057D02*
X249008095Y-147869295D01*
X249008095Y-147869295D02*
X249008095Y-148107390D01*
X249008095Y-148107390D02*
X249055714Y-148202628D01*
X249055714Y-148202628D02*
X249103333Y-148250247D01*
X249103333Y-148250247D02*
X249198571Y-148297866D01*
X249198571Y-148297866D02*
X249389047Y-148297866D01*
X249389047Y-148297866D02*
X249484285Y-148250247D01*
X249484285Y-148250247D02*
X249531904Y-148202628D01*
X249531904Y-148202628D02*
X249579523Y-148107390D01*
X66921905Y-102404819D02*
X66921905Y-101404819D01*
X66921905Y-101404819D02*
X67160000Y-101404819D01*
X67160000Y-101404819D02*
X67302857Y-101452438D01*
X67302857Y-101452438D02*
X67398095Y-101547676D01*
X67398095Y-101547676D02*
X67445714Y-101642914D01*
X67445714Y-101642914D02*
X67493333Y-101833390D01*
X67493333Y-101833390D02*
X67493333Y-101976247D01*
X67493333Y-101976247D02*
X67445714Y-102166723D01*
X67445714Y-102166723D02*
X67398095Y-102261961D01*
X67398095Y-102261961D02*
X67302857Y-102357200D01*
X67302857Y-102357200D02*
X67160000Y-102404819D01*
X67160000Y-102404819D02*
X66921905Y-102404819D01*
X67826667Y-101404819D02*
X68445714Y-101404819D01*
X68445714Y-101404819D02*
X68112381Y-101785771D01*
X68112381Y-101785771D02*
X68255238Y-101785771D01*
X68255238Y-101785771D02*
X68350476Y-101833390D01*
X68350476Y-101833390D02*
X68398095Y-101881009D01*
X68398095Y-101881009D02*
X68445714Y-101976247D01*
X68445714Y-101976247D02*
X68445714Y-102214342D01*
X68445714Y-102214342D02*
X68398095Y-102309580D01*
X68398095Y-102309580D02*
X68350476Y-102357200D01*
X68350476Y-102357200D02*
X68255238Y-102404819D01*
X68255238Y-102404819D02*
X67969524Y-102404819D01*
X67969524Y-102404819D02*
X67874286Y-102357200D01*
X67874286Y-102357200D02*
X67826667Y-102309580D01*
X264960476Y-148631200D02*
X265103333Y-148678819D01*
X265103333Y-148678819D02*
X265341428Y-148678819D01*
X265341428Y-148678819D02*
X265436666Y-148631200D01*
X265436666Y-148631200D02*
X265484285Y-148583580D01*
X265484285Y-148583580D02*
X265531904Y-148488342D01*
X265531904Y-148488342D02*
X265531904Y-148393104D01*
X265531904Y-148393104D02*
X265484285Y-148297866D01*
X265484285Y-148297866D02*
X265436666Y-148250247D01*
X265436666Y-148250247D02*
X265341428Y-148202628D01*
X265341428Y-148202628D02*
X265150952Y-148155009D01*
X265150952Y-148155009D02*
X265055714Y-148107390D01*
X265055714Y-148107390D02*
X265008095Y-148059771D01*
X265008095Y-148059771D02*
X264960476Y-147964533D01*
X264960476Y-147964533D02*
X264960476Y-147869295D01*
X264960476Y-147869295D02*
X265008095Y-147774057D01*
X265008095Y-147774057D02*
X265055714Y-147726438D01*
X265055714Y-147726438D02*
X265150952Y-147678819D01*
X265150952Y-147678819D02*
X265389047Y-147678819D01*
X265389047Y-147678819D02*
X265531904Y-147726438D01*
X265865238Y-147678819D02*
X266103333Y-148678819D01*
X266103333Y-148678819D02*
X266293809Y-147964533D01*
X266293809Y-147964533D02*
X266484285Y-148678819D01*
X266484285Y-148678819D02*
X266722381Y-147678819D01*
X267008095Y-147678819D02*
X267627142Y-147678819D01*
X267627142Y-147678819D02*
X267293809Y-148059771D01*
X267293809Y-148059771D02*
X267436666Y-148059771D01*
X267436666Y-148059771D02*
X267531904Y-148107390D01*
X267531904Y-148107390D02*
X267579523Y-148155009D01*
X267579523Y-148155009D02*
X267627142Y-148250247D01*
X267627142Y-148250247D02*
X267627142Y-148488342D01*
X267627142Y-148488342D02*
X267579523Y-148583580D01*
X267579523Y-148583580D02*
X267531904Y-148631200D01*
X267531904Y-148631200D02*
X267436666Y-148678819D01*
X267436666Y-148678819D02*
X267150952Y-148678819D01*
X267150952Y-148678819D02*
X267055714Y-148631200D01*
X267055714Y-148631200D02*
X267008095Y-148583580D01*
X268246190Y-147678819D02*
X268341428Y-147678819D01*
X268341428Y-147678819D02*
X268436666Y-147726438D01*
X268436666Y-147726438D02*
X268484285Y-147774057D01*
X268484285Y-147774057D02*
X268531904Y-147869295D01*
X268531904Y-147869295D02*
X268579523Y-148059771D01*
X268579523Y-148059771D02*
X268579523Y-148297866D01*
X268579523Y-148297866D02*
X268531904Y-148488342D01*
X268531904Y-148488342D02*
X268484285Y-148583580D01*
X268484285Y-148583580D02*
X268436666Y-148631200D01*
X268436666Y-148631200D02*
X268341428Y-148678819D01*
X268341428Y-148678819D02*
X268246190Y-148678819D01*
X268246190Y-148678819D02*
X268150952Y-148631200D01*
X268150952Y-148631200D02*
X268103333Y-148583580D01*
X268103333Y-148583580D02*
X268055714Y-148488342D01*
X268055714Y-148488342D02*
X268008095Y-148297866D01*
X268008095Y-148297866D02*
X268008095Y-148059771D01*
X268008095Y-148059771D02*
X268055714Y-147869295D01*
X268055714Y-147869295D02*
X268103333Y-147774057D01*
X268103333Y-147774057D02*
X268150952Y-147726438D01*
X268150952Y-147726438D02*
X268246190Y-147678819D01*
X133998095Y-114706819D02*
X134569523Y-114706819D01*
X134283809Y-115706819D02*
X134283809Y-114706819D01*
X134902857Y-115706819D02*
X134902857Y-114706819D01*
X134902857Y-114706819D02*
X135283809Y-114706819D01*
X135283809Y-114706819D02*
X135379047Y-114754438D01*
X135379047Y-114754438D02*
X135426666Y-114802057D01*
X135426666Y-114802057D02*
X135474285Y-114897295D01*
X135474285Y-114897295D02*
X135474285Y-115040152D01*
X135474285Y-115040152D02*
X135426666Y-115135390D01*
X135426666Y-115135390D02*
X135379047Y-115183009D01*
X135379047Y-115183009D02*
X135283809Y-115230628D01*
X135283809Y-115230628D02*
X134902857Y-115230628D01*
X136426666Y-115706819D02*
X135855238Y-115706819D01*
X136140952Y-115706819D02*
X136140952Y-114706819D01*
X136140952Y-114706819D02*
X136045714Y-114849676D01*
X136045714Y-114849676D02*
X135950476Y-114944914D01*
X135950476Y-114944914D02*
X135855238Y-114992533D01*
X227436667Y-100531200D02*
X227579524Y-100578819D01*
X227579524Y-100578819D02*
X227817619Y-100578819D01*
X227817619Y-100578819D02*
X227912857Y-100531200D01*
X227912857Y-100531200D02*
X227960476Y-100483580D01*
X227960476Y-100483580D02*
X228008095Y-100388342D01*
X228008095Y-100388342D02*
X228008095Y-100293104D01*
X228008095Y-100293104D02*
X227960476Y-100197866D01*
X227960476Y-100197866D02*
X227912857Y-100150247D01*
X227912857Y-100150247D02*
X227817619Y-100102628D01*
X227817619Y-100102628D02*
X227627143Y-100055009D01*
X227627143Y-100055009D02*
X227531905Y-100007390D01*
X227531905Y-100007390D02*
X227484286Y-99959771D01*
X227484286Y-99959771D02*
X227436667Y-99864533D01*
X227436667Y-99864533D02*
X227436667Y-99769295D01*
X227436667Y-99769295D02*
X227484286Y-99674057D01*
X227484286Y-99674057D02*
X227531905Y-99626438D01*
X227531905Y-99626438D02*
X227627143Y-99578819D01*
X227627143Y-99578819D02*
X227865238Y-99578819D01*
X227865238Y-99578819D02*
X228008095Y-99626438D01*
X228341429Y-99578819D02*
X228579524Y-100578819D01*
X228579524Y-100578819D02*
X228770000Y-99864533D01*
X228770000Y-99864533D02*
X228960476Y-100578819D01*
X228960476Y-100578819D02*
X229198572Y-99578819D01*
X229484286Y-99578819D02*
X230150952Y-99578819D01*
X230150952Y-99578819D02*
X229722381Y-100578819D01*
X188920476Y-172681200D02*
X189063333Y-172728819D01*
X189063333Y-172728819D02*
X189301428Y-172728819D01*
X189301428Y-172728819D02*
X189396666Y-172681200D01*
X189396666Y-172681200D02*
X189444285Y-172633580D01*
X189444285Y-172633580D02*
X189491904Y-172538342D01*
X189491904Y-172538342D02*
X189491904Y-172443104D01*
X189491904Y-172443104D02*
X189444285Y-172347866D01*
X189444285Y-172347866D02*
X189396666Y-172300247D01*
X189396666Y-172300247D02*
X189301428Y-172252628D01*
X189301428Y-172252628D02*
X189110952Y-172205009D01*
X189110952Y-172205009D02*
X189015714Y-172157390D01*
X189015714Y-172157390D02*
X188968095Y-172109771D01*
X188968095Y-172109771D02*
X188920476Y-172014533D01*
X188920476Y-172014533D02*
X188920476Y-171919295D01*
X188920476Y-171919295D02*
X188968095Y-171824057D01*
X188968095Y-171824057D02*
X189015714Y-171776438D01*
X189015714Y-171776438D02*
X189110952Y-171728819D01*
X189110952Y-171728819D02*
X189349047Y-171728819D01*
X189349047Y-171728819D02*
X189491904Y-171776438D01*
X189825238Y-171728819D02*
X190063333Y-172728819D01*
X190063333Y-172728819D02*
X190253809Y-172014533D01*
X190253809Y-172014533D02*
X190444285Y-172728819D01*
X190444285Y-172728819D02*
X190682381Y-171728819D01*
X190968095Y-171728819D02*
X191587142Y-171728819D01*
X191587142Y-171728819D02*
X191253809Y-172109771D01*
X191253809Y-172109771D02*
X191396666Y-172109771D01*
X191396666Y-172109771D02*
X191491904Y-172157390D01*
X191491904Y-172157390D02*
X191539523Y-172205009D01*
X191539523Y-172205009D02*
X191587142Y-172300247D01*
X191587142Y-172300247D02*
X191587142Y-172538342D01*
X191587142Y-172538342D02*
X191539523Y-172633580D01*
X191539523Y-172633580D02*
X191491904Y-172681200D01*
X191491904Y-172681200D02*
X191396666Y-172728819D01*
X191396666Y-172728819D02*
X191110952Y-172728819D01*
X191110952Y-172728819D02*
X191015714Y-172681200D01*
X191015714Y-172681200D02*
X190968095Y-172633580D01*
X192444285Y-171728819D02*
X192253809Y-171728819D01*
X192253809Y-171728819D02*
X192158571Y-171776438D01*
X192158571Y-171776438D02*
X192110952Y-171824057D01*
X192110952Y-171824057D02*
X192015714Y-171966914D01*
X192015714Y-171966914D02*
X191968095Y-172157390D01*
X191968095Y-172157390D02*
X191968095Y-172538342D01*
X191968095Y-172538342D02*
X192015714Y-172633580D01*
X192015714Y-172633580D02*
X192063333Y-172681200D01*
X192063333Y-172681200D02*
X192158571Y-172728819D01*
X192158571Y-172728819D02*
X192349047Y-172728819D01*
X192349047Y-172728819D02*
X192444285Y-172681200D01*
X192444285Y-172681200D02*
X192491904Y-172633580D01*
X192491904Y-172633580D02*
X192539523Y-172538342D01*
X192539523Y-172538342D02*
X192539523Y-172300247D01*
X192539523Y-172300247D02*
X192491904Y-172205009D01*
X192491904Y-172205009D02*
X192444285Y-172157390D01*
X192444285Y-172157390D02*
X192349047Y-172109771D01*
X192349047Y-172109771D02*
X192158571Y-172109771D01*
X192158571Y-172109771D02*
X192063333Y-172157390D01*
X192063333Y-172157390D02*
X192015714Y-172205009D01*
X192015714Y-172205009D02*
X191968095Y-172300247D01*
X188920476Y-148631200D02*
X189063333Y-148678819D01*
X189063333Y-148678819D02*
X189301428Y-148678819D01*
X189301428Y-148678819D02*
X189396666Y-148631200D01*
X189396666Y-148631200D02*
X189444285Y-148583580D01*
X189444285Y-148583580D02*
X189491904Y-148488342D01*
X189491904Y-148488342D02*
X189491904Y-148393104D01*
X189491904Y-148393104D02*
X189444285Y-148297866D01*
X189444285Y-148297866D02*
X189396666Y-148250247D01*
X189396666Y-148250247D02*
X189301428Y-148202628D01*
X189301428Y-148202628D02*
X189110952Y-148155009D01*
X189110952Y-148155009D02*
X189015714Y-148107390D01*
X189015714Y-148107390D02*
X188968095Y-148059771D01*
X188968095Y-148059771D02*
X188920476Y-147964533D01*
X188920476Y-147964533D02*
X188920476Y-147869295D01*
X188920476Y-147869295D02*
X188968095Y-147774057D01*
X188968095Y-147774057D02*
X189015714Y-147726438D01*
X189015714Y-147726438D02*
X189110952Y-147678819D01*
X189110952Y-147678819D02*
X189349047Y-147678819D01*
X189349047Y-147678819D02*
X189491904Y-147726438D01*
X189825238Y-147678819D02*
X190063333Y-148678819D01*
X190063333Y-148678819D02*
X190253809Y-147964533D01*
X190253809Y-147964533D02*
X190444285Y-148678819D01*
X190444285Y-148678819D02*
X190682381Y-147678819D01*
X191015714Y-147774057D02*
X191063333Y-147726438D01*
X191063333Y-147726438D02*
X191158571Y-147678819D01*
X191158571Y-147678819D02*
X191396666Y-147678819D01*
X191396666Y-147678819D02*
X191491904Y-147726438D01*
X191491904Y-147726438D02*
X191539523Y-147774057D01*
X191539523Y-147774057D02*
X191587142Y-147869295D01*
X191587142Y-147869295D02*
X191587142Y-147964533D01*
X191587142Y-147964533D02*
X191539523Y-148107390D01*
X191539523Y-148107390D02*
X190968095Y-148678819D01*
X190968095Y-148678819D02*
X191587142Y-148678819D01*
X192444285Y-147678819D02*
X192253809Y-147678819D01*
X192253809Y-147678819D02*
X192158571Y-147726438D01*
X192158571Y-147726438D02*
X192110952Y-147774057D01*
X192110952Y-147774057D02*
X192015714Y-147916914D01*
X192015714Y-147916914D02*
X191968095Y-148107390D01*
X191968095Y-148107390D02*
X191968095Y-148488342D01*
X191968095Y-148488342D02*
X192015714Y-148583580D01*
X192015714Y-148583580D02*
X192063333Y-148631200D01*
X192063333Y-148631200D02*
X192158571Y-148678819D01*
X192158571Y-148678819D02*
X192349047Y-148678819D01*
X192349047Y-148678819D02*
X192444285Y-148631200D01*
X192444285Y-148631200D02*
X192491904Y-148583580D01*
X192491904Y-148583580D02*
X192539523Y-148488342D01*
X192539523Y-148488342D02*
X192539523Y-148250247D01*
X192539523Y-148250247D02*
X192491904Y-148155009D01*
X192491904Y-148155009D02*
X192444285Y-148107390D01*
X192444285Y-148107390D02*
X192349047Y-148059771D01*
X192349047Y-148059771D02*
X192158571Y-148059771D01*
X192158571Y-148059771D02*
X192063333Y-148107390D01*
X192063333Y-148107390D02*
X192015714Y-148155009D01*
X192015714Y-148155009D02*
X191968095Y-148250247D01*
X66845714Y-174004819D02*
X66845714Y-173004819D01*
X66845714Y-173004819D02*
X67083809Y-173004819D01*
X67083809Y-173004819D02*
X67226666Y-173052438D01*
X67226666Y-173052438D02*
X67321904Y-173147676D01*
X67321904Y-173147676D02*
X67369523Y-173242914D01*
X67369523Y-173242914D02*
X67417142Y-173433390D01*
X67417142Y-173433390D02*
X67417142Y-173576247D01*
X67417142Y-173576247D02*
X67369523Y-173766723D01*
X67369523Y-173766723D02*
X67321904Y-173861961D01*
X67321904Y-173861961D02*
X67226666Y-173957200D01*
X67226666Y-173957200D02*
X67083809Y-174004819D01*
X67083809Y-174004819D02*
X66845714Y-174004819D01*
X67750476Y-173004819D02*
X68369523Y-173004819D01*
X68369523Y-173004819D02*
X68036190Y-173385771D01*
X68036190Y-173385771D02*
X68179047Y-173385771D01*
X68179047Y-173385771D02*
X68274285Y-173433390D01*
X68274285Y-173433390D02*
X68321904Y-173481009D01*
X68321904Y-173481009D02*
X68369523Y-173576247D01*
X68369523Y-173576247D02*
X68369523Y-173814342D01*
X68369523Y-173814342D02*
X68321904Y-173909580D01*
X68321904Y-173909580D02*
X68274285Y-173957200D01*
X68274285Y-173957200D02*
X68179047Y-174004819D01*
X68179047Y-174004819D02*
X67893333Y-174004819D01*
X67893333Y-174004819D02*
X67798095Y-173957200D01*
X67798095Y-173957200D02*
X67750476Y-173909580D01*
X68750476Y-173100057D02*
X68798095Y-173052438D01*
X68798095Y-173052438D02*
X68893333Y-173004819D01*
X68893333Y-173004819D02*
X69131428Y-173004819D01*
X69131428Y-173004819D02*
X69226666Y-173052438D01*
X69226666Y-173052438D02*
X69274285Y-173100057D01*
X69274285Y-173100057D02*
X69321904Y-173195295D01*
X69321904Y-173195295D02*
X69321904Y-173290533D01*
X69321904Y-173290533D02*
X69274285Y-173433390D01*
X69274285Y-173433390D02*
X68702857Y-174004819D01*
X68702857Y-174004819D02*
X69321904Y-174004819D01*
X229635714Y-174204819D02*
X229635714Y-173204819D01*
X229635714Y-173204819D02*
X229873809Y-173204819D01*
X229873809Y-173204819D02*
X230016666Y-173252438D01*
X230016666Y-173252438D02*
X230111904Y-173347676D01*
X230111904Y-173347676D02*
X230159523Y-173442914D01*
X230159523Y-173442914D02*
X230207142Y-173633390D01*
X230207142Y-173633390D02*
X230207142Y-173776247D01*
X230207142Y-173776247D02*
X230159523Y-173966723D01*
X230159523Y-173966723D02*
X230111904Y-174061961D01*
X230111904Y-174061961D02*
X230016666Y-174157200D01*
X230016666Y-174157200D02*
X229873809Y-174204819D01*
X229873809Y-174204819D02*
X229635714Y-174204819D01*
X230540476Y-173204819D02*
X231159523Y-173204819D01*
X231159523Y-173204819D02*
X230826190Y-173585771D01*
X230826190Y-173585771D02*
X230969047Y-173585771D01*
X230969047Y-173585771D02*
X231064285Y-173633390D01*
X231064285Y-173633390D02*
X231111904Y-173681009D01*
X231111904Y-173681009D02*
X231159523Y-173776247D01*
X231159523Y-173776247D02*
X231159523Y-174014342D01*
X231159523Y-174014342D02*
X231111904Y-174109580D01*
X231111904Y-174109580D02*
X231064285Y-174157200D01*
X231064285Y-174157200D02*
X230969047Y-174204819D01*
X230969047Y-174204819D02*
X230683333Y-174204819D01*
X230683333Y-174204819D02*
X230588095Y-174157200D01*
X230588095Y-174157200D02*
X230540476Y-174109580D01*
X231730952Y-173633390D02*
X231635714Y-173585771D01*
X231635714Y-173585771D02*
X231588095Y-173538152D01*
X231588095Y-173538152D02*
X231540476Y-173442914D01*
X231540476Y-173442914D02*
X231540476Y-173395295D01*
X231540476Y-173395295D02*
X231588095Y-173300057D01*
X231588095Y-173300057D02*
X231635714Y-173252438D01*
X231635714Y-173252438D02*
X231730952Y-173204819D01*
X231730952Y-173204819D02*
X231921428Y-173204819D01*
X231921428Y-173204819D02*
X232016666Y-173252438D01*
X232016666Y-173252438D02*
X232064285Y-173300057D01*
X232064285Y-173300057D02*
X232111904Y-173395295D01*
X232111904Y-173395295D02*
X232111904Y-173442914D01*
X232111904Y-173442914D02*
X232064285Y-173538152D01*
X232064285Y-173538152D02*
X232016666Y-173585771D01*
X232016666Y-173585771D02*
X231921428Y-173633390D01*
X231921428Y-173633390D02*
X231730952Y-173633390D01*
X231730952Y-173633390D02*
X231635714Y-173681009D01*
X231635714Y-173681009D02*
X231588095Y-173728628D01*
X231588095Y-173728628D02*
X231540476Y-173823866D01*
X231540476Y-173823866D02*
X231540476Y-174014342D01*
X231540476Y-174014342D02*
X231588095Y-174109580D01*
X231588095Y-174109580D02*
X231635714Y-174157200D01*
X231635714Y-174157200D02*
X231730952Y-174204819D01*
X231730952Y-174204819D02*
X231921428Y-174204819D01*
X231921428Y-174204819D02*
X232016666Y-174157200D01*
X232016666Y-174157200D02*
X232064285Y-174109580D01*
X232064285Y-174109580D02*
X232111904Y-174014342D01*
X232111904Y-174014342D02*
X232111904Y-173823866D01*
X232111904Y-173823866D02*
X232064285Y-173728628D01*
X232064285Y-173728628D02*
X232016666Y-173681009D01*
X232016666Y-173681009D02*
X231921428Y-173633390D01*
X248785714Y-150204819D02*
X248785714Y-149204819D01*
X248785714Y-149204819D02*
X249023809Y-149204819D01*
X249023809Y-149204819D02*
X249166666Y-149252438D01*
X249166666Y-149252438D02*
X249261904Y-149347676D01*
X249261904Y-149347676D02*
X249309523Y-149442914D01*
X249309523Y-149442914D02*
X249357142Y-149633390D01*
X249357142Y-149633390D02*
X249357142Y-149776247D01*
X249357142Y-149776247D02*
X249309523Y-149966723D01*
X249309523Y-149966723D02*
X249261904Y-150061961D01*
X249261904Y-150061961D02*
X249166666Y-150157200D01*
X249166666Y-150157200D02*
X249023809Y-150204819D01*
X249023809Y-150204819D02*
X248785714Y-150204819D01*
X249738095Y-149300057D02*
X249785714Y-149252438D01*
X249785714Y-149252438D02*
X249880952Y-149204819D01*
X249880952Y-149204819D02*
X250119047Y-149204819D01*
X250119047Y-149204819D02*
X250214285Y-149252438D01*
X250214285Y-149252438D02*
X250261904Y-149300057D01*
X250261904Y-149300057D02*
X250309523Y-149395295D01*
X250309523Y-149395295D02*
X250309523Y-149490533D01*
X250309523Y-149490533D02*
X250261904Y-149633390D01*
X250261904Y-149633390D02*
X249690476Y-150204819D01*
X249690476Y-150204819D02*
X250309523Y-150204819D01*
X250785714Y-150204819D02*
X250976190Y-150204819D01*
X250976190Y-150204819D02*
X251071428Y-150157200D01*
X251071428Y-150157200D02*
X251119047Y-150109580D01*
X251119047Y-150109580D02*
X251214285Y-149966723D01*
X251214285Y-149966723D02*
X251261904Y-149776247D01*
X251261904Y-149776247D02*
X251261904Y-149395295D01*
X251261904Y-149395295D02*
X251214285Y-149300057D01*
X251214285Y-149300057D02*
X251166666Y-149252438D01*
X251166666Y-149252438D02*
X251071428Y-149204819D01*
X251071428Y-149204819D02*
X250880952Y-149204819D01*
X250880952Y-149204819D02*
X250785714Y-149252438D01*
X250785714Y-149252438D02*
X250738095Y-149300057D01*
X250738095Y-149300057D02*
X250690476Y-149395295D01*
X250690476Y-149395295D02*
X250690476Y-149633390D01*
X250690476Y-149633390D02*
X250738095Y-149728628D01*
X250738095Y-149728628D02*
X250785714Y-149776247D01*
X250785714Y-149776247D02*
X250880952Y-149823866D01*
X250880952Y-149823866D02*
X251071428Y-149823866D01*
X251071428Y-149823866D02*
X251166666Y-149776247D01*
X251166666Y-149776247D02*
X251214285Y-149728628D01*
X251214285Y-149728628D02*
X251261904Y-149633390D01*
X66545714Y-150404819D02*
X66545714Y-149404819D01*
X66545714Y-149404819D02*
X66783809Y-149404819D01*
X66783809Y-149404819D02*
X66926666Y-149452438D01*
X66926666Y-149452438D02*
X67021904Y-149547676D01*
X67021904Y-149547676D02*
X67069523Y-149642914D01*
X67069523Y-149642914D02*
X67117142Y-149833390D01*
X67117142Y-149833390D02*
X67117142Y-149976247D01*
X67117142Y-149976247D02*
X67069523Y-150166723D01*
X67069523Y-150166723D02*
X67021904Y-150261961D01*
X67021904Y-150261961D02*
X66926666Y-150357200D01*
X66926666Y-150357200D02*
X66783809Y-150404819D01*
X66783809Y-150404819D02*
X66545714Y-150404819D01*
X67498095Y-149500057D02*
X67545714Y-149452438D01*
X67545714Y-149452438D02*
X67640952Y-149404819D01*
X67640952Y-149404819D02*
X67879047Y-149404819D01*
X67879047Y-149404819D02*
X67974285Y-149452438D01*
X67974285Y-149452438D02*
X68021904Y-149500057D01*
X68021904Y-149500057D02*
X68069523Y-149595295D01*
X68069523Y-149595295D02*
X68069523Y-149690533D01*
X68069523Y-149690533D02*
X68021904Y-149833390D01*
X68021904Y-149833390D02*
X67450476Y-150404819D01*
X67450476Y-150404819D02*
X68069523Y-150404819D01*
X68450476Y-149500057D02*
X68498095Y-149452438D01*
X68498095Y-149452438D02*
X68593333Y-149404819D01*
X68593333Y-149404819D02*
X68831428Y-149404819D01*
X68831428Y-149404819D02*
X68926666Y-149452438D01*
X68926666Y-149452438D02*
X68974285Y-149500057D01*
X68974285Y-149500057D02*
X69021904Y-149595295D01*
X69021904Y-149595295D02*
X69021904Y-149690533D01*
X69021904Y-149690533D02*
X68974285Y-149833390D01*
X68974285Y-149833390D02*
X68402857Y-150404819D01*
X68402857Y-150404819D02*
X69021904Y-150404819D01*
X44920476Y-148631200D02*
X45063333Y-148678819D01*
X45063333Y-148678819D02*
X45301428Y-148678819D01*
X45301428Y-148678819D02*
X45396666Y-148631200D01*
X45396666Y-148631200D02*
X45444285Y-148583580D01*
X45444285Y-148583580D02*
X45491904Y-148488342D01*
X45491904Y-148488342D02*
X45491904Y-148393104D01*
X45491904Y-148393104D02*
X45444285Y-148297866D01*
X45444285Y-148297866D02*
X45396666Y-148250247D01*
X45396666Y-148250247D02*
X45301428Y-148202628D01*
X45301428Y-148202628D02*
X45110952Y-148155009D01*
X45110952Y-148155009D02*
X45015714Y-148107390D01*
X45015714Y-148107390D02*
X44968095Y-148059771D01*
X44968095Y-148059771D02*
X44920476Y-147964533D01*
X44920476Y-147964533D02*
X44920476Y-147869295D01*
X44920476Y-147869295D02*
X44968095Y-147774057D01*
X44968095Y-147774057D02*
X45015714Y-147726438D01*
X45015714Y-147726438D02*
X45110952Y-147678819D01*
X45110952Y-147678819D02*
X45349047Y-147678819D01*
X45349047Y-147678819D02*
X45491904Y-147726438D01*
X45825238Y-147678819D02*
X46063333Y-148678819D01*
X46063333Y-148678819D02*
X46253809Y-147964533D01*
X46253809Y-147964533D02*
X46444285Y-148678819D01*
X46444285Y-148678819D02*
X46682381Y-147678819D01*
X47015714Y-147774057D02*
X47063333Y-147726438D01*
X47063333Y-147726438D02*
X47158571Y-147678819D01*
X47158571Y-147678819D02*
X47396666Y-147678819D01*
X47396666Y-147678819D02*
X47491904Y-147726438D01*
X47491904Y-147726438D02*
X47539523Y-147774057D01*
X47539523Y-147774057D02*
X47587142Y-147869295D01*
X47587142Y-147869295D02*
X47587142Y-147964533D01*
X47587142Y-147964533D02*
X47539523Y-148107390D01*
X47539523Y-148107390D02*
X46968095Y-148678819D01*
X46968095Y-148678819D02*
X47587142Y-148678819D01*
X48539523Y-148678819D02*
X47968095Y-148678819D01*
X48253809Y-148678819D02*
X48253809Y-147678819D01*
X48253809Y-147678819D02*
X48158571Y-147821676D01*
X48158571Y-147821676D02*
X48063333Y-147916914D01*
X48063333Y-147916914D02*
X47968095Y-147964533D01*
X194935714Y-154154819D02*
X194935714Y-153154819D01*
X194935714Y-153154819D02*
X195173809Y-153154819D01*
X195173809Y-153154819D02*
X195316666Y-153202438D01*
X195316666Y-153202438D02*
X195411904Y-153297676D01*
X195411904Y-153297676D02*
X195459523Y-153392914D01*
X195459523Y-153392914D02*
X195507142Y-153583390D01*
X195507142Y-153583390D02*
X195507142Y-153726247D01*
X195507142Y-153726247D02*
X195459523Y-153916723D01*
X195459523Y-153916723D02*
X195411904Y-154011961D01*
X195411904Y-154011961D02*
X195316666Y-154107200D01*
X195316666Y-154107200D02*
X195173809Y-154154819D01*
X195173809Y-154154819D02*
X194935714Y-154154819D01*
X195888095Y-153250057D02*
X195935714Y-153202438D01*
X195935714Y-153202438D02*
X196030952Y-153154819D01*
X196030952Y-153154819D02*
X196269047Y-153154819D01*
X196269047Y-153154819D02*
X196364285Y-153202438D01*
X196364285Y-153202438D02*
X196411904Y-153250057D01*
X196411904Y-153250057D02*
X196459523Y-153345295D01*
X196459523Y-153345295D02*
X196459523Y-153440533D01*
X196459523Y-153440533D02*
X196411904Y-153583390D01*
X196411904Y-153583390D02*
X195840476Y-154154819D01*
X195840476Y-154154819D02*
X196459523Y-154154819D01*
X197316666Y-153154819D02*
X197126190Y-153154819D01*
X197126190Y-153154819D02*
X197030952Y-153202438D01*
X197030952Y-153202438D02*
X196983333Y-153250057D01*
X196983333Y-153250057D02*
X196888095Y-153392914D01*
X196888095Y-153392914D02*
X196840476Y-153583390D01*
X196840476Y-153583390D02*
X196840476Y-153964342D01*
X196840476Y-153964342D02*
X196888095Y-154059580D01*
X196888095Y-154059580D02*
X196935714Y-154107200D01*
X196935714Y-154107200D02*
X197030952Y-154154819D01*
X197030952Y-154154819D02*
X197221428Y-154154819D01*
X197221428Y-154154819D02*
X197316666Y-154107200D01*
X197316666Y-154107200D02*
X197364285Y-154059580D01*
X197364285Y-154059580D02*
X197411904Y-153964342D01*
X197411904Y-153964342D02*
X197411904Y-153726247D01*
X197411904Y-153726247D02*
X197364285Y-153631009D01*
X197364285Y-153631009D02*
X197316666Y-153583390D01*
X197316666Y-153583390D02*
X197221428Y-153535771D01*
X197221428Y-153535771D02*
X197030952Y-153535771D01*
X197030952Y-153535771D02*
X196935714Y-153583390D01*
X196935714Y-153583390D02*
X196888095Y-153631009D01*
X196888095Y-153631009D02*
X196840476Y-153726247D01*
X120920476Y-148631200D02*
X121063333Y-148678819D01*
X121063333Y-148678819D02*
X121301428Y-148678819D01*
X121301428Y-148678819D02*
X121396666Y-148631200D01*
X121396666Y-148631200D02*
X121444285Y-148583580D01*
X121444285Y-148583580D02*
X121491904Y-148488342D01*
X121491904Y-148488342D02*
X121491904Y-148393104D01*
X121491904Y-148393104D02*
X121444285Y-148297866D01*
X121444285Y-148297866D02*
X121396666Y-148250247D01*
X121396666Y-148250247D02*
X121301428Y-148202628D01*
X121301428Y-148202628D02*
X121110952Y-148155009D01*
X121110952Y-148155009D02*
X121015714Y-148107390D01*
X121015714Y-148107390D02*
X120968095Y-148059771D01*
X120968095Y-148059771D02*
X120920476Y-147964533D01*
X120920476Y-147964533D02*
X120920476Y-147869295D01*
X120920476Y-147869295D02*
X120968095Y-147774057D01*
X120968095Y-147774057D02*
X121015714Y-147726438D01*
X121015714Y-147726438D02*
X121110952Y-147678819D01*
X121110952Y-147678819D02*
X121349047Y-147678819D01*
X121349047Y-147678819D02*
X121491904Y-147726438D01*
X121825238Y-147678819D02*
X122063333Y-148678819D01*
X122063333Y-148678819D02*
X122253809Y-147964533D01*
X122253809Y-147964533D02*
X122444285Y-148678819D01*
X122444285Y-148678819D02*
X122682381Y-147678819D01*
X123015714Y-147774057D02*
X123063333Y-147726438D01*
X123063333Y-147726438D02*
X123158571Y-147678819D01*
X123158571Y-147678819D02*
X123396666Y-147678819D01*
X123396666Y-147678819D02*
X123491904Y-147726438D01*
X123491904Y-147726438D02*
X123539523Y-147774057D01*
X123539523Y-147774057D02*
X123587142Y-147869295D01*
X123587142Y-147869295D02*
X123587142Y-147964533D01*
X123587142Y-147964533D02*
X123539523Y-148107390D01*
X123539523Y-148107390D02*
X122968095Y-148678819D01*
X122968095Y-148678819D02*
X123587142Y-148678819D01*
X124491904Y-147678819D02*
X124015714Y-147678819D01*
X124015714Y-147678819D02*
X123968095Y-148155009D01*
X123968095Y-148155009D02*
X124015714Y-148107390D01*
X124015714Y-148107390D02*
X124110952Y-148059771D01*
X124110952Y-148059771D02*
X124349047Y-148059771D01*
X124349047Y-148059771D02*
X124444285Y-148107390D01*
X124444285Y-148107390D02*
X124491904Y-148155009D01*
X124491904Y-148155009D02*
X124539523Y-148250247D01*
X124539523Y-148250247D02*
X124539523Y-148488342D01*
X124539523Y-148488342D02*
X124491904Y-148583580D01*
X124491904Y-148583580D02*
X124444285Y-148631200D01*
X124444285Y-148631200D02*
X124349047Y-148678819D01*
X124349047Y-148678819D02*
X124110952Y-148678819D01*
X124110952Y-148678819D02*
X124015714Y-148631200D01*
X124015714Y-148631200D02*
X123968095Y-148583580D01*
X121366667Y-100531200D02*
X121509524Y-100578819D01*
X121509524Y-100578819D02*
X121747619Y-100578819D01*
X121747619Y-100578819D02*
X121842857Y-100531200D01*
X121842857Y-100531200D02*
X121890476Y-100483580D01*
X121890476Y-100483580D02*
X121938095Y-100388342D01*
X121938095Y-100388342D02*
X121938095Y-100293104D01*
X121938095Y-100293104D02*
X121890476Y-100197866D01*
X121890476Y-100197866D02*
X121842857Y-100150247D01*
X121842857Y-100150247D02*
X121747619Y-100102628D01*
X121747619Y-100102628D02*
X121557143Y-100055009D01*
X121557143Y-100055009D02*
X121461905Y-100007390D01*
X121461905Y-100007390D02*
X121414286Y-99959771D01*
X121414286Y-99959771D02*
X121366667Y-99864533D01*
X121366667Y-99864533D02*
X121366667Y-99769295D01*
X121366667Y-99769295D02*
X121414286Y-99674057D01*
X121414286Y-99674057D02*
X121461905Y-99626438D01*
X121461905Y-99626438D02*
X121557143Y-99578819D01*
X121557143Y-99578819D02*
X121795238Y-99578819D01*
X121795238Y-99578819D02*
X121938095Y-99626438D01*
X122271429Y-99578819D02*
X122509524Y-100578819D01*
X122509524Y-100578819D02*
X122700000Y-99864533D01*
X122700000Y-99864533D02*
X122890476Y-100578819D01*
X122890476Y-100578819D02*
X123128572Y-99578819D01*
X123557143Y-100578819D02*
X123747619Y-100578819D01*
X123747619Y-100578819D02*
X123842857Y-100531200D01*
X123842857Y-100531200D02*
X123890476Y-100483580D01*
X123890476Y-100483580D02*
X123985714Y-100340723D01*
X123985714Y-100340723D02*
X124033333Y-100150247D01*
X124033333Y-100150247D02*
X124033333Y-99769295D01*
X124033333Y-99769295D02*
X123985714Y-99674057D01*
X123985714Y-99674057D02*
X123938095Y-99626438D01*
X123938095Y-99626438D02*
X123842857Y-99578819D01*
X123842857Y-99578819D02*
X123652381Y-99578819D01*
X123652381Y-99578819D02*
X123557143Y-99626438D01*
X123557143Y-99626438D02*
X123509524Y-99674057D01*
X123509524Y-99674057D02*
X123461905Y-99769295D01*
X123461905Y-99769295D02*
X123461905Y-100007390D01*
X123461905Y-100007390D02*
X123509524Y-100102628D01*
X123509524Y-100102628D02*
X123557143Y-100150247D01*
X123557143Y-100150247D02*
X123652381Y-100197866D01*
X123652381Y-100197866D02*
X123842857Y-100197866D01*
X123842857Y-100197866D02*
X123938095Y-100150247D01*
X123938095Y-100150247D02*
X123985714Y-100102628D01*
X123985714Y-100102628D02*
X124033333Y-100007390D01*
X45396667Y-100531200D02*
X45539524Y-100578819D01*
X45539524Y-100578819D02*
X45777619Y-100578819D01*
X45777619Y-100578819D02*
X45872857Y-100531200D01*
X45872857Y-100531200D02*
X45920476Y-100483580D01*
X45920476Y-100483580D02*
X45968095Y-100388342D01*
X45968095Y-100388342D02*
X45968095Y-100293104D01*
X45968095Y-100293104D02*
X45920476Y-100197866D01*
X45920476Y-100197866D02*
X45872857Y-100150247D01*
X45872857Y-100150247D02*
X45777619Y-100102628D01*
X45777619Y-100102628D02*
X45587143Y-100055009D01*
X45587143Y-100055009D02*
X45491905Y-100007390D01*
X45491905Y-100007390D02*
X45444286Y-99959771D01*
X45444286Y-99959771D02*
X45396667Y-99864533D01*
X45396667Y-99864533D02*
X45396667Y-99769295D01*
X45396667Y-99769295D02*
X45444286Y-99674057D01*
X45444286Y-99674057D02*
X45491905Y-99626438D01*
X45491905Y-99626438D02*
X45587143Y-99578819D01*
X45587143Y-99578819D02*
X45825238Y-99578819D01*
X45825238Y-99578819D02*
X45968095Y-99626438D01*
X46301429Y-99578819D02*
X46539524Y-100578819D01*
X46539524Y-100578819D02*
X46730000Y-99864533D01*
X46730000Y-99864533D02*
X46920476Y-100578819D01*
X46920476Y-100578819D02*
X47158572Y-99578819D01*
X48063333Y-100578819D02*
X47491905Y-100578819D01*
X47777619Y-100578819D02*
X47777619Y-99578819D01*
X47777619Y-99578819D02*
X47682381Y-99721676D01*
X47682381Y-99721676D02*
X47587143Y-99816914D01*
X47587143Y-99816914D02*
X47491905Y-99864533D01*
X63870476Y-148631200D02*
X64013333Y-148678819D01*
X64013333Y-148678819D02*
X64251428Y-148678819D01*
X64251428Y-148678819D02*
X64346666Y-148631200D01*
X64346666Y-148631200D02*
X64394285Y-148583580D01*
X64394285Y-148583580D02*
X64441904Y-148488342D01*
X64441904Y-148488342D02*
X64441904Y-148393104D01*
X64441904Y-148393104D02*
X64394285Y-148297866D01*
X64394285Y-148297866D02*
X64346666Y-148250247D01*
X64346666Y-148250247D02*
X64251428Y-148202628D01*
X64251428Y-148202628D02*
X64060952Y-148155009D01*
X64060952Y-148155009D02*
X63965714Y-148107390D01*
X63965714Y-148107390D02*
X63918095Y-148059771D01*
X63918095Y-148059771D02*
X63870476Y-147964533D01*
X63870476Y-147964533D02*
X63870476Y-147869295D01*
X63870476Y-147869295D02*
X63918095Y-147774057D01*
X63918095Y-147774057D02*
X63965714Y-147726438D01*
X63965714Y-147726438D02*
X64060952Y-147678819D01*
X64060952Y-147678819D02*
X64299047Y-147678819D01*
X64299047Y-147678819D02*
X64441904Y-147726438D01*
X64775238Y-147678819D02*
X65013333Y-148678819D01*
X65013333Y-148678819D02*
X65203809Y-147964533D01*
X65203809Y-147964533D02*
X65394285Y-148678819D01*
X65394285Y-148678819D02*
X65632381Y-147678819D01*
X65965714Y-147774057D02*
X66013333Y-147726438D01*
X66013333Y-147726438D02*
X66108571Y-147678819D01*
X66108571Y-147678819D02*
X66346666Y-147678819D01*
X66346666Y-147678819D02*
X66441904Y-147726438D01*
X66441904Y-147726438D02*
X66489523Y-147774057D01*
X66489523Y-147774057D02*
X66537142Y-147869295D01*
X66537142Y-147869295D02*
X66537142Y-147964533D01*
X66537142Y-147964533D02*
X66489523Y-148107390D01*
X66489523Y-148107390D02*
X65918095Y-148678819D01*
X65918095Y-148678819D02*
X66537142Y-148678819D01*
X66918095Y-147774057D02*
X66965714Y-147726438D01*
X66965714Y-147726438D02*
X67060952Y-147678819D01*
X67060952Y-147678819D02*
X67299047Y-147678819D01*
X67299047Y-147678819D02*
X67394285Y-147726438D01*
X67394285Y-147726438D02*
X67441904Y-147774057D01*
X67441904Y-147774057D02*
X67489523Y-147869295D01*
X67489523Y-147869295D02*
X67489523Y-147964533D01*
X67489523Y-147964533D02*
X67441904Y-148107390D01*
X67441904Y-148107390D02*
X66870476Y-148678819D01*
X66870476Y-148678819D02*
X67489523Y-148678819D01*
X124071905Y-102604819D02*
X124071905Y-101604819D01*
X124071905Y-101604819D02*
X124310000Y-101604819D01*
X124310000Y-101604819D02*
X124452857Y-101652438D01*
X124452857Y-101652438D02*
X124548095Y-101747676D01*
X124548095Y-101747676D02*
X124595714Y-101842914D01*
X124595714Y-101842914D02*
X124643333Y-102033390D01*
X124643333Y-102033390D02*
X124643333Y-102176247D01*
X124643333Y-102176247D02*
X124595714Y-102366723D01*
X124595714Y-102366723D02*
X124548095Y-102461961D01*
X124548095Y-102461961D02*
X124452857Y-102557200D01*
X124452857Y-102557200D02*
X124310000Y-102604819D01*
X124310000Y-102604819D02*
X124071905Y-102604819D01*
X125119524Y-102604819D02*
X125310000Y-102604819D01*
X125310000Y-102604819D02*
X125405238Y-102557200D01*
X125405238Y-102557200D02*
X125452857Y-102509580D01*
X125452857Y-102509580D02*
X125548095Y-102366723D01*
X125548095Y-102366723D02*
X125595714Y-102176247D01*
X125595714Y-102176247D02*
X125595714Y-101795295D01*
X125595714Y-101795295D02*
X125548095Y-101700057D01*
X125548095Y-101700057D02*
X125500476Y-101652438D01*
X125500476Y-101652438D02*
X125405238Y-101604819D01*
X125405238Y-101604819D02*
X125214762Y-101604819D01*
X125214762Y-101604819D02*
X125119524Y-101652438D01*
X125119524Y-101652438D02*
X125071905Y-101700057D01*
X125071905Y-101700057D02*
X125024286Y-101795295D01*
X125024286Y-101795295D02*
X125024286Y-102033390D01*
X125024286Y-102033390D02*
X125071905Y-102128628D01*
X125071905Y-102128628D02*
X125119524Y-102176247D01*
X125119524Y-102176247D02*
X125214762Y-102223866D01*
X125214762Y-102223866D02*
X125405238Y-102223866D01*
X125405238Y-102223866D02*
X125500476Y-102176247D01*
X125500476Y-102176247D02*
X125548095Y-102128628D01*
X125548095Y-102128628D02*
X125595714Y-102033390D01*
X63870476Y-172681200D02*
X64013333Y-172728819D01*
X64013333Y-172728819D02*
X64251428Y-172728819D01*
X64251428Y-172728819D02*
X64346666Y-172681200D01*
X64346666Y-172681200D02*
X64394285Y-172633580D01*
X64394285Y-172633580D02*
X64441904Y-172538342D01*
X64441904Y-172538342D02*
X64441904Y-172443104D01*
X64441904Y-172443104D02*
X64394285Y-172347866D01*
X64394285Y-172347866D02*
X64346666Y-172300247D01*
X64346666Y-172300247D02*
X64251428Y-172252628D01*
X64251428Y-172252628D02*
X64060952Y-172205009D01*
X64060952Y-172205009D02*
X63965714Y-172157390D01*
X63965714Y-172157390D02*
X63918095Y-172109771D01*
X63918095Y-172109771D02*
X63870476Y-172014533D01*
X63870476Y-172014533D02*
X63870476Y-171919295D01*
X63870476Y-171919295D02*
X63918095Y-171824057D01*
X63918095Y-171824057D02*
X63965714Y-171776438D01*
X63965714Y-171776438D02*
X64060952Y-171728819D01*
X64060952Y-171728819D02*
X64299047Y-171728819D01*
X64299047Y-171728819D02*
X64441904Y-171776438D01*
X64775238Y-171728819D02*
X65013333Y-172728819D01*
X65013333Y-172728819D02*
X65203809Y-172014533D01*
X65203809Y-172014533D02*
X65394285Y-172728819D01*
X65394285Y-172728819D02*
X65632381Y-171728819D01*
X65918095Y-171728819D02*
X66537142Y-171728819D01*
X66537142Y-171728819D02*
X66203809Y-172109771D01*
X66203809Y-172109771D02*
X66346666Y-172109771D01*
X66346666Y-172109771D02*
X66441904Y-172157390D01*
X66441904Y-172157390D02*
X66489523Y-172205009D01*
X66489523Y-172205009D02*
X66537142Y-172300247D01*
X66537142Y-172300247D02*
X66537142Y-172538342D01*
X66537142Y-172538342D02*
X66489523Y-172633580D01*
X66489523Y-172633580D02*
X66441904Y-172681200D01*
X66441904Y-172681200D02*
X66346666Y-172728819D01*
X66346666Y-172728819D02*
X66060952Y-172728819D01*
X66060952Y-172728819D02*
X65965714Y-172681200D01*
X65965714Y-172681200D02*
X65918095Y-172633580D01*
X66918095Y-171824057D02*
X66965714Y-171776438D01*
X66965714Y-171776438D02*
X67060952Y-171728819D01*
X67060952Y-171728819D02*
X67299047Y-171728819D01*
X67299047Y-171728819D02*
X67394285Y-171776438D01*
X67394285Y-171776438D02*
X67441904Y-171824057D01*
X67441904Y-171824057D02*
X67489523Y-171919295D01*
X67489523Y-171919295D02*
X67489523Y-172014533D01*
X67489523Y-172014533D02*
X67441904Y-172157390D01*
X67441904Y-172157390D02*
X66870476Y-172728819D01*
X66870476Y-172728819D02*
X67489523Y-172728819D01*
X226960476Y-124581200D02*
X227103333Y-124628819D01*
X227103333Y-124628819D02*
X227341428Y-124628819D01*
X227341428Y-124628819D02*
X227436666Y-124581200D01*
X227436666Y-124581200D02*
X227484285Y-124533580D01*
X227484285Y-124533580D02*
X227531904Y-124438342D01*
X227531904Y-124438342D02*
X227531904Y-124343104D01*
X227531904Y-124343104D02*
X227484285Y-124247866D01*
X227484285Y-124247866D02*
X227436666Y-124200247D01*
X227436666Y-124200247D02*
X227341428Y-124152628D01*
X227341428Y-124152628D02*
X227150952Y-124105009D01*
X227150952Y-124105009D02*
X227055714Y-124057390D01*
X227055714Y-124057390D02*
X227008095Y-124009771D01*
X227008095Y-124009771D02*
X226960476Y-123914533D01*
X226960476Y-123914533D02*
X226960476Y-123819295D01*
X226960476Y-123819295D02*
X227008095Y-123724057D01*
X227008095Y-123724057D02*
X227055714Y-123676438D01*
X227055714Y-123676438D02*
X227150952Y-123628819D01*
X227150952Y-123628819D02*
X227389047Y-123628819D01*
X227389047Y-123628819D02*
X227531904Y-123676438D01*
X227865238Y-123628819D02*
X228103333Y-124628819D01*
X228103333Y-124628819D02*
X228293809Y-123914533D01*
X228293809Y-123914533D02*
X228484285Y-124628819D01*
X228484285Y-124628819D02*
X228722381Y-123628819D01*
X229627142Y-124628819D02*
X229055714Y-124628819D01*
X229341428Y-124628819D02*
X229341428Y-123628819D01*
X229341428Y-123628819D02*
X229246190Y-123771676D01*
X229246190Y-123771676D02*
X229150952Y-123866914D01*
X229150952Y-123866914D02*
X229055714Y-123914533D01*
X230198571Y-124057390D02*
X230103333Y-124009771D01*
X230103333Y-124009771D02*
X230055714Y-123962152D01*
X230055714Y-123962152D02*
X230008095Y-123866914D01*
X230008095Y-123866914D02*
X230008095Y-123819295D01*
X230008095Y-123819295D02*
X230055714Y-123724057D01*
X230055714Y-123724057D02*
X230103333Y-123676438D01*
X230103333Y-123676438D02*
X230198571Y-123628819D01*
X230198571Y-123628819D02*
X230389047Y-123628819D01*
X230389047Y-123628819D02*
X230484285Y-123676438D01*
X230484285Y-123676438D02*
X230531904Y-123724057D01*
X230531904Y-123724057D02*
X230579523Y-123819295D01*
X230579523Y-123819295D02*
X230579523Y-123866914D01*
X230579523Y-123866914D02*
X230531904Y-123962152D01*
X230531904Y-123962152D02*
X230484285Y-124009771D01*
X230484285Y-124009771D02*
X230389047Y-124057390D01*
X230389047Y-124057390D02*
X230198571Y-124057390D01*
X230198571Y-124057390D02*
X230103333Y-124105009D01*
X230103333Y-124105009D02*
X230055714Y-124152628D01*
X230055714Y-124152628D02*
X230008095Y-124247866D01*
X230008095Y-124247866D02*
X230008095Y-124438342D01*
X230008095Y-124438342D02*
X230055714Y-124533580D01*
X230055714Y-124533580D02*
X230103333Y-124581200D01*
X230103333Y-124581200D02*
X230198571Y-124628819D01*
X230198571Y-124628819D02*
X230389047Y-124628819D01*
X230389047Y-124628819D02*
X230484285Y-124581200D01*
X230484285Y-124581200D02*
X230531904Y-124533580D01*
X230531904Y-124533580D02*
X230579523Y-124438342D01*
X230579523Y-124438342D02*
X230579523Y-124247866D01*
X230579523Y-124247866D02*
X230531904Y-124152628D01*
X230531904Y-124152628D02*
X230484285Y-124105009D01*
X230484285Y-124105009D02*
X230389047Y-124057390D01*
%TO.C,R2*%
D12*
X176185000Y-139322936D02*
X176185000Y-139777064D01*
X174715000Y-139322936D02*
X174715000Y-139777064D01*
%TO.C,TP2*%
X175850000Y-133800000D02*
G75*
G02*
X173450000Y-133800000I-1200000J0D01*
G01*
X173450000Y-133800000D02*
G75*
G02*
X175850000Y-133800000I1200000J0D01*
G01*
%TO.C,TP4*%
X179350000Y-133900000D02*
G75*
G02*
X176950000Y-133900000I-1200000J0D01*
G01*
X176950000Y-133900000D02*
G75*
G02*
X179350000Y-133900000I1200000J0D01*
G01*
%TO.C,R4*%
X178085000Y-139777064D02*
X178085000Y-139322936D01*
X176615000Y-139777064D02*
X176615000Y-139322936D01*
%TO.C,SW33*%
X77695000Y-157415000D02*
X91665000Y-157415000D01*
X77695000Y-171385000D02*
X77695000Y-157415000D01*
X91665000Y-157415000D02*
X91665000Y-171385000D01*
X91665000Y-171385000D02*
X77695000Y-171385000D01*
%TO.C,SW8*%
X240785000Y-85265000D02*
X254755000Y-85265000D01*
X240785000Y-99235000D02*
X240785000Y-85265000D01*
X254755000Y-85265000D02*
X254755000Y-99235000D01*
X254755000Y-99235000D02*
X240785000Y-99235000D01*
%TO.C,D39*%
X247640000Y-174700000D02*
X247640000Y-176700000D01*
X247640000Y-174700000D02*
X251650000Y-174700000D01*
X247640000Y-176700000D02*
X251650000Y-176700000D01*
%TO.C,D13*%
X84500000Y-126850000D02*
X84500000Y-128850000D01*
X84500000Y-126850000D02*
X88510000Y-126850000D01*
X84500000Y-128850000D02*
X88510000Y-128850000D01*
%TO.C,SW23*%
X77695000Y-133365000D02*
X91665000Y-133365000D01*
X77695000Y-147335000D02*
X77695000Y-133365000D01*
X91665000Y-133365000D02*
X91665000Y-147335000D01*
X91665000Y-147335000D02*
X77695000Y-147335000D01*
%TO.C,SW4*%
X202745000Y-85265000D02*
X216715000Y-85265000D01*
X202745000Y-99235000D02*
X202745000Y-85265000D01*
X216715000Y-85265000D02*
X216715000Y-99235000D01*
X216715000Y-99235000D02*
X202745000Y-99235000D01*
%TO.C,U2*%
D13*
X160750500Y-106356750D02*
X160750500Y-123501750D01*
X162655500Y-125406750D02*
X176625500Y-125406750D01*
D14*
X165136500Y-126416750D02*
X165136500Y-125406750D01*
X173631772Y-126916750D02*
X165636500Y-126916750D01*
X174135500Y-125406750D02*
X174131772Y-126417022D01*
D13*
X176625500Y-104451750D02*
X162655500Y-104451750D01*
X178530500Y-106356750D02*
X178530500Y-123501750D01*
X160750500Y-106356750D02*
G75*
G02*
X162655500Y-104451750I1905000J0D01*
G01*
X162655500Y-125406750D02*
G75*
G02*
X160750500Y-123501750I50J1905050D01*
G01*
D14*
X165636500Y-126916750D02*
G75*
G02*
X165136500Y-126416750I100J500100D01*
G01*
X174131772Y-126417022D02*
G75*
G02*
X173631772Y-126916752I-500022J292D01*
G01*
D13*
X176625500Y-104451750D02*
G75*
G02*
X178530500Y-106356750I0J-1905000D01*
G01*
X178530500Y-123505750D02*
G75*
G02*
X176625500Y-125410750I-1905001J1D01*
G01*
D15*
X177718500Y-124273750D02*
G75*
G02*
X177214500Y-124273750I-252000J0D01*
G01*
X177214500Y-124273750D02*
G75*
G02*
X177718500Y-124273750I252000J0D01*
G01*
X178992500Y-124990750D02*
G75*
G02*
X178488500Y-124990750I-252000J0D01*
G01*
X178488500Y-124990750D02*
G75*
G02*
X178992500Y-124990750I252000J0D01*
G01*
%TO.C,D41*%
D12*
X149720000Y-174550000D02*
X145710000Y-174550000D01*
X149720000Y-176550000D02*
X145710000Y-176550000D01*
X149720000Y-176550000D02*
X149720000Y-174550000D01*
%TO.C,D30*%
X266540000Y-150800000D02*
X266540000Y-152800000D01*
X266540000Y-150800000D02*
X270550000Y-150800000D01*
X266540000Y-152800000D02*
X270550000Y-152800000D01*
%TO.C,R1*%
X134825000Y-124622936D02*
X134825000Y-125077064D01*
X136295000Y-124622936D02*
X136295000Y-125077064D01*
%TO.C,SW11*%
X39745000Y-109315000D02*
X53715000Y-109315000D01*
X39745000Y-123285000D02*
X39745000Y-109315000D01*
X53715000Y-109315000D02*
X53715000Y-123285000D01*
X53715000Y-123285000D02*
X39745000Y-123285000D01*
%TO.C,SW6*%
X96725000Y-85265000D02*
X110695000Y-85265000D01*
X96725000Y-99235000D02*
X96725000Y-85265000D01*
X110695000Y-85265000D02*
X110695000Y-99235000D01*
X110695000Y-99235000D02*
X96725000Y-99235000D01*
%TO.C,D20*%
X266540000Y-126750000D02*
X266540000Y-128750000D01*
X266540000Y-126750000D02*
X270550000Y-126750000D01*
X266540000Y-128750000D02*
X270550000Y-128750000D01*
%TO.C,SW17*%
X202745000Y-109315000D02*
X216715000Y-109315000D01*
X202745000Y-123285000D02*
X202745000Y-109315000D01*
X216715000Y-109315000D02*
X216715000Y-123285000D01*
X216715000Y-123285000D02*
X202745000Y-123285000D01*
%TO.C,TP3*%
X140260000Y-117350000D02*
G75*
G02*
X137860000Y-117350000I-1200000J0D01*
G01*
X137860000Y-117350000D02*
G75*
G02*
X140260000Y-117350000I1200000J0D01*
G01*
%TO.C,SW5*%
X77755000Y-85265000D02*
X91725000Y-85265000D01*
X77755000Y-99235000D02*
X77755000Y-85265000D01*
X91725000Y-85265000D02*
X91725000Y-99235000D01*
X91725000Y-99235000D02*
X77755000Y-99235000D01*
%TO.C,SW3*%
X58695000Y-85265000D02*
X72665000Y-85265000D01*
X58695000Y-99235000D02*
X58695000Y-85265000D01*
X72665000Y-85265000D02*
X72665000Y-99235000D01*
X72665000Y-99235000D02*
X58695000Y-99235000D01*
%TO.C,D7*%
X228390000Y-102850000D02*
X228390000Y-104850000D01*
X228390000Y-102850000D02*
X232400000Y-102850000D01*
X228390000Y-104850000D02*
X232400000Y-104850000D01*
%TO.C,SW31*%
X39745000Y-157415000D02*
X53715000Y-157415000D01*
X39745000Y-171385000D02*
X39745000Y-157415000D01*
X53715000Y-157415000D02*
X53715000Y-171385000D01*
X53715000Y-171385000D02*
X39745000Y-171385000D01*
%TO.C,SW19*%
X240785000Y-109315000D02*
X254755000Y-109315000D01*
X240785000Y-123285000D02*
X240785000Y-109315000D01*
X254755000Y-109315000D02*
X254755000Y-123285000D01*
X254755000Y-123285000D02*
X240785000Y-123285000D01*
%TO.C,D18*%
X228490000Y-126800000D02*
X228490000Y-128800000D01*
X228490000Y-126800000D02*
X232500000Y-126800000D01*
X228490000Y-128800000D02*
X232500000Y-128800000D01*
%TO.C,D25*%
X122250000Y-150950000D02*
X122250000Y-152950000D01*
X122250000Y-150950000D02*
X126260000Y-150950000D01*
X122250000Y-152950000D02*
X126260000Y-152950000D01*
%TO.C,D28*%
X228490000Y-150750000D02*
X228490000Y-152750000D01*
X228490000Y-150750000D02*
X232500000Y-150750000D01*
X228490000Y-152750000D02*
X232500000Y-152750000D01*
%TO.C,D10*%
X266540000Y-102750000D02*
X266540000Y-104750000D01*
X266540000Y-102750000D02*
X270550000Y-102750000D01*
X266540000Y-104750000D02*
X270550000Y-104750000D01*
%TO.C,SW16*%
X183745000Y-109315000D02*
X197715000Y-109315000D01*
X183745000Y-123285000D02*
X183745000Y-109315000D01*
X197715000Y-109315000D02*
X197715000Y-123285000D01*
X197715000Y-123285000D02*
X183745000Y-123285000D01*
%TO.C,D21*%
X54520000Y-151050000D02*
X50510000Y-151050000D01*
X54520000Y-153050000D02*
X50510000Y-153050000D01*
X54520000Y-153050000D02*
X54520000Y-151050000D01*
%TO.C,D2*%
X198560000Y-102650000D02*
X194550000Y-102650000D01*
X198560000Y-104650000D02*
X194550000Y-104650000D01*
X198560000Y-104650000D02*
X198560000Y-102650000D01*
%TO.C,SW15*%
X115695000Y-109315000D02*
X129665000Y-109315000D01*
X115695000Y-123285000D02*
X115695000Y-109315000D01*
X129665000Y-109315000D02*
X129665000Y-123285000D01*
X129665000Y-123285000D02*
X115695000Y-123285000D01*
%TO.C,SW13*%
X77745000Y-109315000D02*
X91715000Y-109315000D01*
X77745000Y-123285000D02*
X77745000Y-109315000D01*
X91715000Y-109315000D02*
X91715000Y-123285000D01*
X91715000Y-123285000D02*
X77745000Y-123285000D01*
%TO.C,SW20*%
X259785000Y-109315000D02*
X273755000Y-109315000D01*
X259785000Y-123285000D02*
X259785000Y-109315000D01*
X273755000Y-109315000D02*
X273755000Y-123285000D01*
X273755000Y-123285000D02*
X259785000Y-123285000D01*
%TO.C,D19*%
X247590000Y-126750000D02*
X247590000Y-128750000D01*
X247590000Y-126750000D02*
X251600000Y-126750000D01*
X247590000Y-128750000D02*
X251600000Y-128750000D01*
%TO.C,SW39*%
X240785000Y-157415000D02*
X254755000Y-157415000D01*
X240785000Y-171385000D02*
X240785000Y-157415000D01*
X254755000Y-157415000D02*
X254755000Y-171385000D01*
X254755000Y-171385000D02*
X240785000Y-171385000D01*
%TO.C,SW34*%
X96695000Y-157415000D02*
X110665000Y-157415000D01*
X96695000Y-171385000D02*
X96695000Y-157415000D01*
X110665000Y-157415000D02*
X110665000Y-171385000D01*
X110665000Y-171385000D02*
X96695000Y-171385000D01*
%TO.C,D14*%
X103600000Y-126850000D02*
X103600000Y-128850000D01*
X103600000Y-126850000D02*
X107610000Y-126850000D01*
X103600000Y-128850000D02*
X107610000Y-128850000D01*
%TO.C,D5*%
X84500000Y-103050000D02*
X84500000Y-105050000D01*
X84500000Y-103050000D02*
X88510000Y-103050000D01*
X84500000Y-105050000D02*
X88510000Y-105050000D01*
%TO.C,D23*%
X84350000Y-150950000D02*
X84350000Y-152950000D01*
X84350000Y-150950000D02*
X88360000Y-150950000D01*
X84350000Y-152950000D02*
X88360000Y-152950000D01*
%TO.C,SW37*%
X202745000Y-157415000D02*
X216715000Y-157415000D01*
X202745000Y-171385000D02*
X202745000Y-157415000D01*
X216715000Y-157415000D02*
X216715000Y-171385000D01*
X216715000Y-171385000D02*
X202745000Y-171385000D01*
%TO.C,D37*%
X209540000Y-174700000D02*
X209540000Y-176700000D01*
X209540000Y-174700000D02*
X213550000Y-174700000D01*
X209540000Y-176700000D02*
X213550000Y-176700000D01*
%TO.C,D4*%
X209540000Y-102600000D02*
X209540000Y-104600000D01*
X209540000Y-102600000D02*
X213550000Y-102600000D01*
X209540000Y-104600000D02*
X213550000Y-104600000D01*
%TO.C,D42*%
X171490000Y-174750000D02*
X171490000Y-176750000D01*
X171490000Y-174750000D02*
X175500000Y-174750000D01*
X171490000Y-176750000D02*
X175500000Y-176750000D01*
%TO.C,SW10*%
X259785000Y-85265000D02*
X273755000Y-85265000D01*
X259785000Y-99235000D02*
X259785000Y-85265000D01*
X273755000Y-85265000D02*
X273755000Y-99235000D01*
X273755000Y-99235000D02*
X259785000Y-99235000D01*
%TO.C,SW38*%
X221785000Y-157415000D02*
X235755000Y-157415000D01*
X221785000Y-171385000D02*
X221785000Y-157415000D01*
X235755000Y-157415000D02*
X235755000Y-171385000D01*
X235755000Y-171385000D02*
X221785000Y-171385000D01*
%TO.C,SW14*%
X96705000Y-109315000D02*
X110675000Y-109315000D01*
X96705000Y-123285000D02*
X96705000Y-109315000D01*
X110675000Y-109315000D02*
X110675000Y-123285000D01*
X110675000Y-123285000D02*
X96705000Y-123285000D01*
%TO.C,SW24*%
X96695000Y-133365000D02*
X110665000Y-133365000D01*
X96695000Y-147335000D02*
X96695000Y-133365000D01*
X110665000Y-133365000D02*
X110665000Y-147335000D01*
X110665000Y-147335000D02*
X96695000Y-147335000D01*
%TO.C,D33*%
X84600000Y-174450000D02*
X84600000Y-176450000D01*
X84600000Y-174450000D02*
X88610000Y-174450000D01*
X84600000Y-176450000D02*
X88610000Y-176450000D01*
%TO.C,D17*%
X209490000Y-126850000D02*
X209490000Y-128850000D01*
X209490000Y-126850000D02*
X213500000Y-126850000D01*
X209490000Y-128850000D02*
X213500000Y-128850000D01*
%TO.C,SW41*%
X134765000Y-157415000D02*
X148735000Y-157415000D01*
X134765000Y-171385000D02*
X134765000Y-157415000D01*
X148735000Y-157415000D02*
X148735000Y-171385000D01*
X148735000Y-171385000D02*
X134765000Y-171385000D01*
%TO.C,SW40*%
X259785000Y-157415000D02*
X273755000Y-157415000D01*
X259785000Y-171385000D02*
X259785000Y-157415000D01*
X273755000Y-157415000D02*
X273755000Y-171385000D01*
X273755000Y-171385000D02*
X259785000Y-171385000D01*
%TO.C,D12*%
X65600000Y-126850000D02*
X65600000Y-128850000D01*
X65600000Y-126850000D02*
X69610000Y-126850000D01*
X65600000Y-128850000D02*
X69610000Y-128850000D01*
%TO.C,D34*%
X103300000Y-174450000D02*
X103300000Y-176450000D01*
X103300000Y-174450000D02*
X107310000Y-174450000D01*
X103300000Y-176450000D02*
X107310000Y-176450000D01*
%TO.C,D11*%
X54720000Y-126850000D02*
X50710000Y-126850000D01*
X54720000Y-128850000D02*
X50710000Y-128850000D01*
X54720000Y-128850000D02*
X54720000Y-126850000D01*
%TO.C,SW35*%
X115745000Y-157415000D02*
X129715000Y-157415000D01*
X115745000Y-171385000D02*
X115745000Y-157415000D01*
X129715000Y-157415000D02*
X129715000Y-171385000D01*
X129715000Y-171385000D02*
X115745000Y-171385000D01*
%TO.C,R3*%
X136825000Y-125077064D02*
X136825000Y-124622936D01*
X138295000Y-125077064D02*
X138295000Y-124622936D01*
%TO.C,D35*%
X122600000Y-174350000D02*
X122600000Y-176350000D01*
X122600000Y-174350000D02*
X126610000Y-174350000D01*
X122600000Y-176350000D02*
X126610000Y-176350000D01*
%TO.C,D16*%
X198510000Y-126850000D02*
X194500000Y-126850000D01*
X198510000Y-128850000D02*
X194500000Y-128850000D01*
X198510000Y-128850000D02*
X198510000Y-126850000D01*
%TO.C,D27*%
X209390000Y-150800000D02*
X209390000Y-152800000D01*
X209390000Y-150800000D02*
X213400000Y-150800000D01*
X209390000Y-152800000D02*
X213400000Y-152800000D01*
%TO.C,SW42*%
X164735000Y-157415000D02*
X178705000Y-157415000D01*
X164735000Y-171385000D02*
X164735000Y-157415000D01*
X178705000Y-157415000D02*
X178705000Y-171385000D01*
X178705000Y-171385000D02*
X164735000Y-171385000D01*
%TO.C,D6*%
X103500000Y-103250000D02*
X103500000Y-105250000D01*
X103500000Y-103250000D02*
X107510000Y-103250000D01*
X103500000Y-105250000D02*
X107510000Y-105250000D01*
%TO.C,SW2*%
X183745000Y-85265000D02*
X197715000Y-85265000D01*
X183745000Y-99235000D02*
X183745000Y-85265000D01*
X197715000Y-85265000D02*
X197715000Y-99235000D01*
X197715000Y-99235000D02*
X183745000Y-99235000D01*
%TO.C,SW27*%
X202745000Y-133365000D02*
X216715000Y-133365000D01*
X202745000Y-147335000D02*
X202745000Y-133365000D01*
X216715000Y-133365000D02*
X216715000Y-147335000D01*
X216715000Y-147335000D02*
X202745000Y-147335000D01*
%TO.C,D15*%
X122500000Y-126850000D02*
X122500000Y-128850000D01*
X122500000Y-126850000D02*
X126510000Y-126850000D01*
X122500000Y-128850000D02*
X126510000Y-128850000D01*
%TO.C,SW28*%
X221785000Y-133365000D02*
X235755000Y-133365000D01*
X221785000Y-147335000D02*
X221785000Y-133365000D01*
X235755000Y-133365000D02*
X235755000Y-147335000D01*
X235755000Y-147335000D02*
X221785000Y-147335000D01*
%TO.C,U1*%
D13*
X134629500Y-147343250D02*
X134629500Y-130198250D01*
X136534500Y-149248250D02*
X150504500Y-149248250D01*
D14*
X139024500Y-128293250D02*
X139028228Y-127282978D01*
X139528228Y-126783250D02*
X147523500Y-126783250D01*
X148023500Y-127283250D02*
X148023500Y-128293250D01*
D13*
X150504500Y-128293250D02*
X136534500Y-128293250D01*
X152409500Y-147343250D02*
X152409500Y-130198250D01*
X134629500Y-130194250D02*
G75*
G02*
X136534500Y-128289250I1905001J-1D01*
G01*
X136534500Y-149248250D02*
G75*
G02*
X134629500Y-147343250I0J1905000D01*
G01*
D14*
X139028228Y-127282978D02*
G75*
G02*
X139528228Y-126783248I500022J-292D01*
G01*
X147523500Y-126783250D02*
G75*
G02*
X148023500Y-127283250I-100J-500100D01*
G01*
D13*
X150504500Y-128293250D02*
G75*
G02*
X152409500Y-130198250I-50J-1905050D01*
G01*
X152409500Y-147343250D02*
G75*
G02*
X150504500Y-149248250I-1905000J0D01*
G01*
D15*
X134671500Y-128709250D02*
G75*
G02*
X134167500Y-128709250I-252000J0D01*
G01*
X134167500Y-128709250D02*
G75*
G02*
X134671500Y-128709250I252000J0D01*
G01*
X135945500Y-129426250D02*
G75*
G02*
X135441500Y-129426250I-252000J0D01*
G01*
X135441500Y-129426250D02*
G75*
G02*
X135945500Y-129426250I252000J0D01*
G01*
%TO.C,D36*%
D12*
X198510000Y-176600000D02*
X198510000Y-174600000D01*
X198510000Y-176600000D02*
X194500000Y-176600000D01*
X198510000Y-174600000D02*
X194500000Y-174600000D01*
%TO.C,SW12*%
X58705000Y-109315000D02*
X72675000Y-109315000D01*
X58705000Y-123285000D02*
X58705000Y-109315000D01*
X72675000Y-109315000D02*
X72675000Y-123285000D01*
X72675000Y-123285000D02*
X58705000Y-123285000D01*
%TO.C,D24*%
X103600000Y-150850000D02*
X103600000Y-152850000D01*
X103600000Y-150850000D02*
X107610000Y-150850000D01*
X103600000Y-152850000D02*
X107610000Y-152850000D01*
%TO.C,D8*%
X247540000Y-102750000D02*
X247540000Y-104750000D01*
X247540000Y-102750000D02*
X251550000Y-102750000D01*
X247540000Y-104750000D02*
X251550000Y-104750000D01*
%TO.C,D40*%
X266540000Y-174800000D02*
X266540000Y-176800000D01*
X266540000Y-174800000D02*
X270550000Y-174800000D01*
X266540000Y-176800000D02*
X270550000Y-176800000D01*
%TO.C,D31*%
X46500000Y-174550000D02*
X46500000Y-176550000D01*
X46500000Y-174550000D02*
X50510000Y-174550000D01*
X46500000Y-176550000D02*
X50510000Y-176550000D01*
%TO.C,D1*%
X54520000Y-102850000D02*
X50510000Y-102850000D01*
X54520000Y-104850000D02*
X50510000Y-104850000D01*
X54520000Y-104850000D02*
X54520000Y-102850000D01*
%TO.C,SW29*%
X240785000Y-133365000D02*
X254755000Y-133365000D01*
X240785000Y-147335000D02*
X240785000Y-133365000D01*
X254755000Y-133365000D02*
X254755000Y-147335000D01*
X254755000Y-147335000D02*
X240785000Y-147335000D01*
%TO.C,D3*%
X65300000Y-102950000D02*
X65300000Y-104950000D01*
X65300000Y-102950000D02*
X69310000Y-102950000D01*
X65300000Y-104950000D02*
X69310000Y-104950000D01*
%TO.C,SW30*%
X259785000Y-133365000D02*
X273755000Y-133365000D01*
X259785000Y-147335000D02*
X259785000Y-133365000D01*
X273755000Y-133365000D02*
X273755000Y-147335000D01*
X273755000Y-147335000D02*
X259785000Y-147335000D01*
%TO.C,TP1*%
X136460000Y-117250000D02*
G75*
G02*
X134060000Y-117250000I-1200000J0D01*
G01*
X134060000Y-117250000D02*
G75*
G02*
X136460000Y-117250000I1200000J0D01*
G01*
%TO.C,SW7*%
X221785000Y-85265000D02*
X235755000Y-85265000D01*
X221785000Y-99235000D02*
X221785000Y-85265000D01*
X235755000Y-85265000D02*
X235755000Y-99235000D01*
X235755000Y-99235000D02*
X221785000Y-99235000D01*
%TO.C,SW36*%
X183745000Y-157415000D02*
X197715000Y-157415000D01*
X183745000Y-171385000D02*
X183745000Y-157415000D01*
X197715000Y-157415000D02*
X197715000Y-171385000D01*
X197715000Y-171385000D02*
X183745000Y-171385000D01*
%TO.C,SW26*%
X183745000Y-133365000D02*
X197715000Y-133365000D01*
X183745000Y-147335000D02*
X183745000Y-133365000D01*
X197715000Y-133365000D02*
X197715000Y-147335000D01*
X197715000Y-147335000D02*
X183745000Y-147335000D01*
%TO.C,D32*%
X65700000Y-174550000D02*
X65700000Y-176550000D01*
X65700000Y-174550000D02*
X69710000Y-174550000D01*
X65700000Y-176550000D02*
X69710000Y-176550000D01*
%TO.C,D38*%
X228490000Y-174750000D02*
X228490000Y-176750000D01*
X228490000Y-174750000D02*
X232500000Y-174750000D01*
X228490000Y-176750000D02*
X232500000Y-176750000D01*
%TO.C,D29*%
X247640000Y-150750000D02*
X247640000Y-152750000D01*
X247640000Y-150750000D02*
X251650000Y-150750000D01*
X247640000Y-152750000D02*
X251650000Y-152750000D01*
%TO.C,D22*%
X65400000Y-150950000D02*
X65400000Y-152950000D01*
X65400000Y-150950000D02*
X69410000Y-150950000D01*
X65400000Y-152950000D02*
X69410000Y-152950000D01*
%TO.C,SW21*%
X39745000Y-133365000D02*
X53715000Y-133365000D01*
X39745000Y-147335000D02*
X39745000Y-133365000D01*
X53715000Y-133365000D02*
X53715000Y-147335000D01*
X53715000Y-147335000D02*
X39745000Y-147335000D01*
%TO.C,D26*%
X198510000Y-152700000D02*
X198510000Y-150700000D01*
X198510000Y-152700000D02*
X194500000Y-152700000D01*
X198510000Y-150700000D02*
X194500000Y-150700000D01*
%TO.C,SW25*%
X115745000Y-133365000D02*
X129715000Y-133365000D01*
X115745000Y-147335000D02*
X115745000Y-133365000D01*
X129715000Y-133365000D02*
X129715000Y-147335000D01*
X129715000Y-147335000D02*
X115745000Y-147335000D01*
%TO.C,SW9*%
X115715000Y-85265000D02*
X129685000Y-85265000D01*
X115715000Y-99235000D02*
X115715000Y-85265000D01*
X129685000Y-85265000D02*
X129685000Y-99235000D01*
X129685000Y-99235000D02*
X115715000Y-99235000D01*
%TO.C,SW1*%
X39745000Y-85265000D02*
X53715000Y-85265000D01*
X39745000Y-99235000D02*
X39745000Y-85265000D01*
X53715000Y-85265000D02*
X53715000Y-99235000D01*
X53715000Y-99235000D02*
X39745000Y-99235000D01*
%TO.C,SW22*%
X58695000Y-133365000D02*
X72665000Y-133365000D01*
X58695000Y-147335000D02*
X58695000Y-133365000D01*
X72665000Y-133365000D02*
X72665000Y-147335000D01*
X72665000Y-147335000D02*
X58695000Y-147335000D01*
%TO.C,D9*%
X122450000Y-103150000D02*
X122450000Y-105150000D01*
X122450000Y-103150000D02*
X126460000Y-103150000D01*
X122450000Y-105150000D02*
X126460000Y-105150000D01*
%TO.C,SW32*%
X58695000Y-157415000D02*
X72665000Y-157415000D01*
X58695000Y-171385000D02*
X58695000Y-157415000D01*
X72665000Y-157415000D02*
X72665000Y-171385000D01*
X72665000Y-171385000D02*
X58695000Y-171385000D01*
%TO.C,SW18*%
X221785000Y-109315000D02*
X235755000Y-109315000D01*
X221785000Y-123285000D02*
X221785000Y-109315000D01*
X235755000Y-109315000D02*
X235755000Y-123285000D01*
X235755000Y-123285000D02*
X221785000Y-123285000D01*
%TD*%
M02*
