%TF.GenerationSoftware,KiCad,Pcbnew,10.0.2*%
%TF.CreationDate,2026-07-05T14:21:51+05:30*%
%TF.ProjectId,Split Keyboard,53706c69-7420-44b6-9579-626f6172642e,rev?*%
%TF.SameCoordinates,Original*%
%TF.FileFunction,Paste,Top*%
%TF.FilePolarity,Positive*%
%FSLAX46Y46*%
G04 Gerber Fmt 4.6, Leading zero omitted, Abs format (unit mm)*
G04 Created by KiCad (PCBNEW 10.0.2) date 2026-07-05 14:21:51*
%MOMM*%
%LPD*%
G01*
G04 APERTURE LIST*
G04 Aperture macros list*
%AMRoundRect*
0 Rectangle with rounded corners*
0 $1 Rounding radius*
0 $2 $3 $4 $5 $6 $7 $8 $9 X,Y pos of 4 corners*
0 Add a 4 corners polygon primitive as box body*
4,1,4,$2,$3,$4,$5,$6,$7,$8,$9,$2,$3,0*
0 Add four circle primitives for the rounded corners*
1,1,$1+$1,$2,$3*
1,1,$1+$1,$4,$5*
1,1,$1+$1,$6,$7*
1,1,$1+$1,$8,$9*
0 Add four rect primitives between the rounded corners*
20,1,$1+$1,$2,$3,$4,$5,0*
20,1,$1+$1,$4,$5,$6,$7,0*
20,1,$1+$1,$6,$7,$8,$9,0*
20,1,$1+$1,$8,$9,$2,$3,0*%
G04 Aperture macros list end*
%ADD10RoundRect,0.250000X-0.450000X0.262500X-0.450000X-0.262500X0.450000X-0.262500X0.450000X0.262500X0*%
%ADD11RoundRect,0.250000X0.450000X-0.262500X0.450000X0.262500X-0.450000X0.262500X-0.450000X-0.262500X0*%
%ADD12RoundRect,0.225000X-0.225000X-0.375000X0.225000X-0.375000X0.225000X0.375000X-0.225000X0.375000X0*%
%ADD13RoundRect,0.500000X0.875000X0.500000X-0.875000X0.500000X-0.875000X-0.500000X0.875000X-0.500000X0*%
%ADD14C,1.700000*%
%ADD15RoundRect,0.275000X-0.975000X-0.275000X0.975000X-0.275000X0.975000X0.275000X-0.975000X0.275000X0*%
%ADD16RoundRect,0.275000X0.275000X-0.975000X0.275000X0.975000X-0.275000X0.975000X-0.275000X-0.975000X0*%
%ADD17RoundRect,0.225000X0.225000X0.375000X-0.225000X0.375000X-0.225000X-0.375000X0.225000X-0.375000X0*%
%ADD18RoundRect,0.500000X-0.875000X-0.500000X0.875000X-0.500000X0.875000X0.500000X-0.875000X0.500000X0*%
%ADD19RoundRect,0.275000X0.975000X0.275000X-0.975000X0.275000X-0.975000X-0.275000X0.975000X-0.275000X0*%
%ADD20RoundRect,0.275000X-0.275000X0.975000X-0.275000X-0.975000X0.275000X-0.975000X0.275000X0.975000X0*%
G04 APERTURE END LIST*
D10*
%TO.C,R2*%
X175450000Y-138637500D03*
X175450000Y-140462500D03*
%TD*%
D11*
%TO.C,R4*%
X177350000Y-138637500D03*
X177350000Y-140462500D03*
%TD*%
D12*
%TO.C,D39*%
X248350000Y-175700000D03*
X251650000Y-175700000D03*
%TD*%
%TO.C,D13*%
X85210000Y-127850000D03*
X88510000Y-127850000D03*
%TD*%
D13*
%TO.C,U2*%
X177695500Y-122489750D03*
X177695500Y-119949750D03*
X177695500Y-117409750D03*
X177695500Y-114869750D03*
X177695500Y-112329750D03*
X177695500Y-109789750D03*
X177695500Y-107249750D03*
X161530500Y-107249750D03*
X161530500Y-109789750D03*
X161530500Y-112329750D03*
X161530500Y-114869750D03*
X161530500Y-117409750D03*
X161530500Y-119949750D03*
X161530500Y-122489750D03*
D14*
X170910500Y-123438250D03*
X168370500Y-123438250D03*
X170910500Y-120898250D03*
X168370500Y-120898250D03*
D15*
X174085500Y-115183250D03*
X174085500Y-117088250D03*
D16*
X165830500Y-105632850D03*
X163925500Y-105632850D03*
%TD*%
D17*
%TO.C,D41*%
X149010000Y-175550000D03*
X145710000Y-175550000D03*
%TD*%
D12*
%TO.C,D30*%
X267250000Y-151800000D03*
X270550000Y-151800000D03*
%TD*%
D10*
%TO.C,R1*%
X135560000Y-123937500D03*
X135560000Y-125762500D03*
%TD*%
D12*
%TO.C,D20*%
X267250000Y-127750000D03*
X270550000Y-127750000D03*
%TD*%
%TO.C,D7*%
X229100000Y-103850000D03*
X232400000Y-103850000D03*
%TD*%
%TO.C,D18*%
X229200000Y-127800000D03*
X232500000Y-127800000D03*
%TD*%
%TO.C,D25*%
X122960000Y-151950000D03*
X126260000Y-151950000D03*
%TD*%
%TO.C,D28*%
X229200000Y-151750000D03*
X232500000Y-151750000D03*
%TD*%
%TO.C,D10*%
X267250000Y-103750000D03*
X270550000Y-103750000D03*
%TD*%
D17*
%TO.C,D21*%
X53810000Y-152050000D03*
X50510000Y-152050000D03*
%TD*%
%TO.C,D2*%
X197850000Y-103650000D03*
X194550000Y-103650000D03*
%TD*%
D12*
%TO.C,D19*%
X248300000Y-127750000D03*
X251600000Y-127750000D03*
%TD*%
%TO.C,D14*%
X104310000Y-127850000D03*
X107610000Y-127850000D03*
%TD*%
%TO.C,D5*%
X85210000Y-104050000D03*
X88510000Y-104050000D03*
%TD*%
%TO.C,D23*%
X85060000Y-151950000D03*
X88360000Y-151950000D03*
%TD*%
%TO.C,D37*%
X210250000Y-175700000D03*
X213550000Y-175700000D03*
%TD*%
%TO.C,D4*%
X210250000Y-103600000D03*
X213550000Y-103600000D03*
%TD*%
%TO.C,D42*%
X172200000Y-175750000D03*
X175500000Y-175750000D03*
%TD*%
%TO.C,D33*%
X85310000Y-175450000D03*
X88610000Y-175450000D03*
%TD*%
%TO.C,D17*%
X210200000Y-127850000D03*
X213500000Y-127850000D03*
%TD*%
%TO.C,D12*%
X66310000Y-127850000D03*
X69610000Y-127850000D03*
%TD*%
%TO.C,D34*%
X104010000Y-175450000D03*
X107310000Y-175450000D03*
%TD*%
D17*
%TO.C,D11*%
X54010000Y-127850000D03*
X50710000Y-127850000D03*
%TD*%
D11*
%TO.C,R3*%
X137560000Y-125762500D03*
X137560000Y-123937500D03*
%TD*%
D12*
%TO.C,D35*%
X123310000Y-175350000D03*
X126610000Y-175350000D03*
%TD*%
D17*
%TO.C,D16*%
X197800000Y-127850000D03*
X194500000Y-127850000D03*
%TD*%
D12*
%TO.C,D27*%
X210100000Y-151800000D03*
X213400000Y-151800000D03*
%TD*%
%TO.C,D6*%
X104210000Y-104250000D03*
X107510000Y-104250000D03*
%TD*%
%TO.C,D15*%
X123210000Y-127850000D03*
X126510000Y-127850000D03*
%TD*%
D18*
%TO.C,U1*%
X135464500Y-131210250D03*
X135464500Y-133750250D03*
X135464500Y-136290250D03*
X135464500Y-138830250D03*
X135464500Y-141370250D03*
X135464500Y-143910250D03*
X135464500Y-146450250D03*
X151629500Y-146450250D03*
X151629500Y-143910250D03*
X151629500Y-141370250D03*
X151629500Y-138830250D03*
X151629500Y-136290250D03*
X151629500Y-133750250D03*
X151629500Y-131210250D03*
D14*
X142249500Y-130261750D03*
X144789500Y-130261750D03*
X142249500Y-132801750D03*
X144789500Y-132801750D03*
D19*
X139074500Y-138516750D03*
X139074500Y-136611750D03*
D20*
X147329500Y-148067150D03*
X149234500Y-148067150D03*
%TD*%
D17*
%TO.C,D36*%
X197800000Y-175600000D03*
X194500000Y-175600000D03*
%TD*%
D12*
%TO.C,D24*%
X104310000Y-151850000D03*
X107610000Y-151850000D03*
%TD*%
%TO.C,D8*%
X248250000Y-103750000D03*
X251550000Y-103750000D03*
%TD*%
%TO.C,D40*%
X267250000Y-175800000D03*
X270550000Y-175800000D03*
%TD*%
%TO.C,D31*%
X47210000Y-175550000D03*
X50510000Y-175550000D03*
%TD*%
D17*
%TO.C,D1*%
X53810000Y-103850000D03*
X50510000Y-103850000D03*
%TD*%
D12*
%TO.C,D3*%
X66010000Y-103950000D03*
X69310000Y-103950000D03*
%TD*%
%TO.C,D32*%
X66410000Y-175550000D03*
X69710000Y-175550000D03*
%TD*%
%TO.C,D38*%
X229200000Y-175750000D03*
X232500000Y-175750000D03*
%TD*%
%TO.C,D29*%
X248350000Y-151750000D03*
X251650000Y-151750000D03*
%TD*%
%TO.C,D22*%
X66110000Y-151950000D03*
X69410000Y-151950000D03*
%TD*%
D17*
%TO.C,D26*%
X197800000Y-151700000D03*
X194500000Y-151700000D03*
%TD*%
D12*
%TO.C,D9*%
X123160000Y-104150000D03*
X126460000Y-104150000D03*
%TD*%
M02*
